<mxfile host="app.diagrams.net" modified="2024-04-01T08:43:30.304Z" agent="Mozilla/5.0 (Macintosh; Intel Mac OS X 10_15_7) AppleWebKit/537.36 (KHTML, like Gecko) Chrome/122.0.0.0 Safari/537.36" etag="RMkB1QRM8YK4WLGva8JR" version="24.2.1" type="github">
  <diagram id="C5RBs43oDa-KdzZeNtuy" name="Page-1">
    <mxGraphModel dx="1736" dy="484" grid="1" gridSize="10" guides="1" tooltips="1" connect="1" arrows="1" fold="1" page="1" pageScale="1" pageWidth="827" pageHeight="1169" math="0" shadow="0">
      <root>
        <mxCell id="WIyWlLk6GJQsqaUBKTNV-0" />
        <mxCell id="WIyWlLk6GJQsqaUBKTNV-1" parent="WIyWlLk6GJQsqaUBKTNV-0" />
        <mxCell id="dSwJCHyqDTHwkJdP5-SC-18" value="" style="rounded=1;whiteSpace=wrap;html=1;fillColor=#A098CE;opacity=50;" vertex="1" parent="WIyWlLk6GJQsqaUBKTNV-1">
          <mxGeometry x="-610" y="720" width="600" height="380" as="geometry" />
        </mxCell>
        <mxCell id="dSwJCHyqDTHwkJdP5-SC-1" value="&lt;h1 style=&quot;margin-top: 0px;&quot;&gt;NEO Domain Driven Design :: 카테고리&lt;/h1&gt;&lt;p style=&quot;font-size: 14px;&quot;&gt;&lt;font style=&quot;font-size: 14px;&quot;&gt;&lt;b&gt;- 카테고리 애그리거트와 관련된 도메인 모델을 도식화 한 것이며, 아래의 텍스트에는 카테고리의 요구사항을 포함한다.&lt;/b&gt;&lt;/font&gt;&lt;/p&gt;&lt;p style=&quot;font-size: 14px;&quot;&gt;&lt;font style=&quot;font-size: 14px;&quot;&gt;&lt;b&gt;- 카테고리 애그리거트와 연관된 일부 다른 애그리거트 역시 이해를 돕기 위해 포함될 수 있다.&lt;/b&gt;&lt;/font&gt;&lt;/p&gt;&lt;p&gt;&lt;br&gt;&lt;/p&gt;&lt;p&gt;&amp;lt; 카테고리&amp;nbsp;&lt;span style=&quot;background-color: initial;&quot;&gt;&amp;gt;&lt;/span&gt;&lt;/p&gt;&lt;ul&gt;&lt;li&gt;[ ]  카테고리는 카테고리 이름, 카테고리 타입, 카테고리 상태, 작성자 제한여부, 댓글 제한 여부, 댓글 노출도를 갖는다.&lt;/li&gt;&lt;br&gt;&lt;li&gt;[ ]  각 카테고리는 특정 스타페이지에 속할 수 있으며, 다른 스타페이지에는 동일한 카테고리 이름, 타입, 상태를 갖는 카테고리가 있을 수 있다.&lt;/li&gt;&lt;br&gt;&lt;li&gt;[ ]  카테고리의 타입에는 통합형, 앨범형, OX형, 투표형으로 나뉜다.&lt;/li&gt;&lt;br&gt;&lt;li&gt;[ ]  카테고리에 사용자 제한사항 옵션을 붙일 수 있다.&lt;br&gt;&lt;ul&gt;&lt;br&gt;&lt;li&gt;[ ]  스타페이지 호스트만 작성가능한 옵션&lt;/li&gt;&lt;br&gt;&lt;li&gt;[ ]  댓글 작성 가능 / 불가능 옵션&lt;/li&gt;&lt;br&gt;&lt;li&gt;[ ]  좋아요 수 획득 상위 퍼센트만 호스트에게 노출되는 옵션 (팬에게는 모두 보임.)&lt;/li&gt;&lt;br&gt;&lt;li&gt;[ ]  상위 퍼센트 비율 조정 옵션&lt;/li&gt;&lt;br&gt;&lt;/ul&gt;&lt;br&gt;&lt;/li&gt;&lt;br&gt;&lt;li&gt;[ ]  각 타입에 따라 들어갈 수 있는 컨텐츠의 형식이 변경된다.&lt;/li&gt;&lt;br&gt;&lt;li&gt;[ ]  카테고리에 속한 포스트들을 순차적으로 볼 수 있다.&lt;/li&gt;&lt;br&gt;&lt;li&gt;[ ]  카테고리가 속한 스타페이지의 관리자만 카테고리에 대한 내용을 변경할 수 있다. (카테고리 제목, 지지투표 비율, 지지투표 on off 등)&lt;/li&gt;&lt;br&gt;&lt;li&gt;[ ]  카테고리가 스타페이지 메인화면에 노출중이면, 카테고리를 삭제할 수 없다.&lt;/li&gt;&lt;br&gt;&lt;li&gt;[ ]  카테고리를 삭제하는 경우, 카테고리에 속한 포스트와 댓글 모두 DELETE 상태로 전이된다.&lt;/li&gt;&lt;br&gt;&lt;li&gt;[ ]  삭제된 카테고리를 다시 살리는 경우, 카테고리에 속한 포스트와 댓글 모두 OPEN 상태로 전이된다.&lt;/li&gt;&lt;br&gt;&lt;/ul&gt;&lt;p style=&quot;line-height: 100%;&quot;&gt;&lt;br&gt;&lt;br&gt;&lt;br&gt;&lt;br&gt;&lt;/p&gt;&lt;p style=&quot;line-height: 100%;&quot;&gt;&lt;br&gt;&lt;/p&gt;" style="text;html=1;whiteSpace=wrap;overflow=hidden;rounded=0;" vertex="1" parent="WIyWlLk6GJQsqaUBKTNV-1">
          <mxGeometry x="-800" y="40" width="500" height="790" as="geometry" />
        </mxCell>
        <mxCell id="dSwJCHyqDTHwkJdP5-SC-3" value="" style="shape=image;verticalLabelPosition=bottom;labelBackgroundColor=default;verticalAlign=top;aspect=fixed;imageAspect=0;image=data:image/png,iVBORw0KGgoAAAANSUhEUgAAAdQAAAPICAYAAABgrAqlAAAMPGlDQ1BJQ0MgUHJvZmlsZQAASImVVwdYU8kWnluSkEBoAQSkhN4EESkBpITQAkjvNkISIJQYA0HEji4quHYRARu6KqLYaXbEzqLY+6KIgrIuFuzKmxTQdV/53sk39/7558x/zpw7twwAaic5IlE2qg5AjjBPHB3kR09MSqaTegACfySAA0cON1fEjIwMA9CGzn+3dzehL7Rr9lKtf/b/V9Pg8XO5ACCREKfycrk5EB8CAK/iisR5ABClvNn0PJEUwwa0xDBBiBdLcbocV0lxqhzvk/nERrMgbgVASYXDEacDoHoF8vR8bjrUUO2H2FHIEwgBUKND7J2TM5UHcQrE1tBHBLFUn5H6g0763zRThzU5nPRhLJ+LzJT8BbmibM6M/7Mc/9tysiVDMSxhU8kQB0dL5wzrdjtraqgUq0DcJ0wNj4BYE+IPAp7MH2KUkiEJjpP7owbcXBasGdCB2JHH8Q+F2ADiQGF2eJiCT00TBLIhhisELRDksWMh1oV4MT83IEbhs1k8NVoRC61PE7OYCv48RyyLK431UJIVx1Tov87gsxX6mGphRmwCxBSIzfMF8eEQq0LskJsVE6rwGVeYwQof8hFLoqX5m0MczRcG+cn1sfw0cWC0wr8kJ3dovtjmDAE7XIEP5GXEBsvrg7VyObL84VywK3whM25Ih5+bGDY0Fx7fP0A+d6yHL4yLUeh8EOX5RcvH4hRRdqTCHzflZwdJeVOInXPzYxRj8fg8uCDl+niaKC8yVp4nXpjJCYmU54OvAGGABfwBHUhgSwVTQSYQtPc19MF/8p5AwAFikA74wF7BDI1IkPUI4TEGFII/IeKD3OFxfrJePsiH/NdhVn60B2my3nzZiCzwFOIcEAqy4X+JbJRwOFo8eAIZwT+ic2DjwnyzYZP2/3t+iP3OMCETpmAkQxHpakOexACiPzGYGEi0wfVxb9wTD4NHX9iccAbuPjSP7/6Ep4QOwmPCDUIn4c4UQZH4pyzHg06oH6ioReqPtcAtoaYL7od7QXWojOvg+sAed4ZxmLgPjOwCWZYib2lV6D9p/20GP1wNhR/ZkYySR5B9ydY/j1S1VXUZVpHW+sf6yHNNHa43a7jn5/isH6rPg+fQnz2xxdhB7Bx2CruAHcUaAB07gTVibdgxKR5eXU9kq2soWrQsnyyoI/hHvKErK61krmOtY6/jF3lfHr9A+owGrKmiGWJBekYenQnfCHw6W8h1GEV3cnRyBkD6fpE/vt5Eyd4biE7bd27BHwB4nRgcHDzynQs5AcB+N3j7N33nrBnw1aEMwPkmrkScL+dw6YEAnxJq8E7TA0bADFjD+TgBV+AJfEEACAERIBYkgckw+wy4zsVgOpgF5oNiUApWgLWgAmwCW8FOsAccAA3gKDgFzoJL4Aq4Ae7B1dMNXoB+8A58RhCEhFARGqKHGCMWiB3ihDAQbyQACUOikSQkBUlHhIgEmYUsQEqRVUgFsgWpQfYjTcgp5ALSgdxBHiG9yGvkE4qhKqgWaohaoqNRBspEQ9FYdBKajk5DC9GF6DK0HK1Gd6P16Cn0EnoD7URfoAMYwJQxHcwEs8cYGAuLwJKxNEyMzcFKsDKsGqvDmuF1voZ1Yn3YR5yI03A6bg9XcDAeh3PxafgcfClege/E6/FW/Br+CO/HvxGoBAOCHcGDwCYkEtIJ0wnFhDLCdsJhwhl4L3UT3hGJRB2iFdEN3otJxEziTOJS4gbiXuJJYgexizhAIpH0SHYkL1IEiUPKIxWT1pN2k06QrpK6SR+UlJWMlZyUApWSlYRKRUplSruUjitdVXqm9JmsTrYge5AjyDzyDPJy8jZyM/kyuZv8maJBsaJ4UWIpmZT5lHJKHeUM5T7ljbKysqmyu3KUskB5nnK58j7l88qPlD+qaKrYqrBUJqpIVJap7FA5qXJH5Q2VSrWk+lKTqXnUZdQa6mnqQ+oHVZqqgypblac6V7VStV71qupLNbKahRpTbbJaoVqZ2kG1y2p96mR1S3WWOkd9jnqlepP6LfUBDZrGGI0IjRyNpRq7NC5o9GiSNC01AzR5mgs1t2qe1uyiYTQzGovGpS2gbaOdoXVrEbWstNhamVqlWnu02rX6tTW1nbXjtQu0K7WPaXfqYDqWOmydbJ3lOgd0bup8GmE4gjmCP2LJiLoRV0e81x2p66vL1y3R3at7Q/eTHl0vQC9Lb6Veg94DfVzfVj9Kf7r+Rv0z+n0jtUZ6juSOLBl5YORdA9TA1iDaYKbBVoM2gwFDI8MgQ5HhesPThn1GOka+RplGa4yOG/Ua04y9jQXGa4xPGD+na9OZ9Gx6Ob2V3m9iYBJsIjHZYtJu8tnUyjTOtMh0r+kDM4oZwyzNbI1Zi1m/ubH5ePNZ5rXmdy3IFgyLDIt1Fucs3ltaWSZYLrJssOyx0rViWxVa1Vrdt6Za+1hPs662vm5DtGHYZNlssLlii9q62GbYVtpetkPtXO0EdhvsOkYRRrmPEo6qHnXLXsWeaZ9vX2v/yEHHIcyhyKHB4eVo89HJo1eOPjf6m6OLY7bjNsd7YzTHhIwpGtM85rWTrRPXqdLp+ljq2MCxc8c2jn3lbOfMd97ofNuF5jLeZZFLi8tXVzdXsWuda6+buVuKW5XbLYYWI5KxlHHeneDu5z7X/aj7Rw9XjzyPAx5/edp7Znnu8uwZZzWOP27buC4vUy+O1xavTm+6d4r3Zu9OHxMfjk+1z2NfM1+e73bfZ0wbZiZzN/Oln6Of2O+w33uWB2s266Q/5h/kX+LfHqAZEBdQEfAw0DQwPbA2sD/IJWhm0MlgQnBo8MrgW2xDNpddw+4PcQuZHdIaqhIaE1oR+jjMNkwc1jweHR8yfvX4++EW4cLwhggQwY5YHfEg0ipyWuSRKGJUZFRl1NPoMdGzos/F0GKmxOyKeRfrF7s89l6cdZwkriVeLX5ifE38+wT/hFUJnYmjE2cnXkrSTxIkNSaTkuOTtycPTAiYsHZC90SXicUTb06ymlQw6cJk/cnZk49NUZvCmXIwhZCSkLIr5QsnglPNGUhlp1al9nNZ3HXcFzxf3hpeL9+Lv4r/LM0rbVVaT7pX+ur03gyfjLKMPgFLUCF4lRmcuSnzfVZE1o6sweyE7L05SjkpOU1CTWGWsHWq0dSCqR0iO1GxqHOax7S10/rFoeLtuUjupNzGPC34Id8msZb8InmU751fmf9hevz0gwUaBcKCthm2M5bMeFYYWPjbTHwmd2bLLJNZ82c9ms2cvWUOMid1Tstcs7kL53bPC5q3cz5lftb834sci1YVvV2QsKB5oeHCeQu7fgn6pbZYtVhcfGuR56JNi/HFgsXtS8YuWb/kWwmv5GKpY2lZ6Zel3KUXfx3za/mvg8vSlrUvd12+cQVxhXDFzZU+K3eu0lhVuKpr9fjV9Wvoa0rWvF07Ze2FMueyTeso6yTrOsvDyhvXm69fsf5LRUbFjUq/yr1VBlVLqt5v4G24utF3Y90mw02lmz5tFmy+vSVoS321ZXXZVuLW/K1Pt8VvO/cb47ea7frbS7d/3SHc0bkzemdrjVtNzS6DXctr0VpJbe/uibuv7PHf01hnX7dlr87e0n1gn2Tf8/0p+28eCD3QcpBxsO6QxaGqw7TDJfVI/Yz6/oaMhs7GpMaOppCmlmbP5sNHHI7sOGpytPKY9rHlxynHFx4fPFF4YuCk6GTfqfRTXS1TWu6dTjx9vTWqtf1M6JnzZwPPnj7HPHfivNf5oxc8LjRdZFxsuOR6qb7Npe3w7y6/H253ba+/7Ha58Yr7leaOcR3Hr/pcPXXN/9rZ6+zrl26E3+i4GXfz9q2Jtzpv82733Mm+8+pu/t3P9+bdJ9wveaD+oOyhwcPqP2z+2Nvp2nnskf+jtscxj+91cbtePMl98qV74VPq07Jnxs9qepx6jvYG9l55PuF59wvRi899xX9q/Fn10vrlob98/2rrT+zvfiV+Nfh66Ru9NzveOr9tGYgcePgu593n9yUf9D7s/Mj4eO5Twqdnn6d/IX0p/2rztflb6Lf7gzmDgyKOmCP7FMBgQ9PSAHi9AwBqEgA0uD+jTJDv/2SGyPesMgT+E5bvEWXmCkAd/H6P6oNfN7cA2LcNbr+gvtpEACKpAMS6A3Ts2OE2tFeT7SulRoT7gM0BX1NzUsG/Mfme84e8fz4Dqaoz+Pn8L0IAfD5azCYWAAAAimVYSWZNTQAqAAAACAAEARoABQAAAAEAAAA+ARsABQAAAAEAAABGASgAAwAAAAEAAgAAh2kABAAAAAEAAABOAAAAAAAAAJAAAAABAAAAkAAAAAEAA5KGAAcAAAASAAAAeKACAAQAAAABAAAB1KADAAQAAAABAAADyAAAAABBU0NJSQAAAFNjcmVlbnNob3QvXuVmAAAACXBIWXMAABYlAAAWJQFJUiTwAAAB1mlUWHRYTUw6Y29tLmFkb2JlLnhtcAAAAAAAPHg6eG1wbWV0YSB4bWxuczp4PSJhZG9iZTpuczptZXRhLyIgeDp4bXB0az0iWE1QIENvcmUgNi4wLjAiPgogICA8cmRmOlJERiB4bWxuczpyZGY9Imh0dHA6Ly93d3cudzMub3JnLzE5OTkvMDIvMjItcmRmLXN5bnRheC1ucyMiPgogICAgICA8cmRmOkRlc2NyaXB0aW9uIHJkZjphYm91dD0iIgogICAgICAgICAgICB4bWxuczpleGlmPSJodHRwOi8vbnMuYWRvYmUuY29tL2V4aWYvMS4wLyI+CiAgICAgICAgIDxleGlmOlBpeGVsWURpbWVuc2lvbj45Njg8L2V4aWY6UGl4ZWxZRGltZW5zaW9uPgogICAgICAgICA8ZXhpZjpQaXhlbFhEaW1lbnNpb24+NDY4PC9leGlmOlBpeGVsWERpbWVuc2lvbj4KICAgICAgICAgPGV4aWY6VXNlckNvbW1lbnQ+U2NyZWVuc2hvdDwvZXhpZjpVc2VyQ29tbWVudD4KICAgICAgPC9yZGY6RGVzY3JpcHRpb24+CiAgIDwvcmRmOlJERj4KPC94OnhtcG1ldGE+CtiZg8gAAAAcaURPVAAAAAIAAAAAAAAB5AAAACgAAAHkAAAB5AAAbOngsM3JAABAAElEQVR4Aey9CbgdRZn/X0nICmQlrAkkLAEVCYuiArL8AUdUCCqooAg4IG4IKKjjsGVwxgWYgNs8Cso2oyL8BnAZFURW2SIkQQQChJCFQEL2kH25//5UeA91+/Y5dc69Z+lzzreep2/36do/1be+/VZVd/fqSJyTEwEREAEREAER6BGBXhLUHvFTZBEQAREQARHwBCSouhBEQAREQAREoAoEJKhVgKgkREAEREAERECCqmtABERABERABKpAQIJaBYhKQgREQAREQAQkqLoGREAEREAERKAKBCSoVYCoJERABERABERAgqprQAREQAREQASqQECCWgWISkIEREAEREAEJKi6BkRABERABESgCgQkqFWAqCREQAREQAREQIKqa0AEREAEREAEqkBAgloFiEpCBERABERABCSougZEQAREQAREoAoEJKhVgKgkREAEREAERECCqmtABERABERABKpAQIJaBYhKQgREQAREQAQkqLoGREAEREAERKAKBCSoVYCoJERABERABESg5oK6YsUK19HRUTbprbbayvXu3bvs8BaQPNauXevWr1/v+vfv7/r162deddmTP3mvWbPG9enTx5dhiy22iOa9YcMGH4eAlLm75a6k/hs3bvSsNm3a5AYMGODKKWe0IjkOQD1Xr17tqHcpBwd4dOf6K5VuuX5cP6tWrfJt07dvX7fllls69r169So3CYUTARFoIIGaCiod2NSpUyuq3lve8hY3aNCgiuIQmM7o1Vdfda+99prbfvvt3Y477lhxGj2JgDCS97x583wnuO222/pylEoTPsR5+eWXvaiNHDmy2+Wm/qSzaNEiN3jwYJ8OHXKWe/311305Ef+ddtrJjRgxIitYy5yjnjNnzvRiVapS8Npll13cwIEDSwWruh8iynWzbNmyLmlzg8m1vPXWW3fy4ybBbhC4EZDodsKjHyLQEAI1FVT+6Z977rlOFcOSogPBYQ1gzYVu7Nix3roLz5VznCdBpbzDhg1zO++8c0nrb+XKlb4jXb58eVUFlfwR9B122CEz/3YW1KxrDl44BHW77bbr9ijB5lQq+4uIvvLKK45rAWejK+vWrXNs/L9gpY4aNcoNHz68kDg3TsQjPO2M8MqJgAg0lkBNBTWraojslClTvNfb3vY2L6pZ4So9lzdBxcqho0NYizk6xVmzZvlOEyujWhYq+XGjgvW5zTbbdLFe2llQ99xzz9yID2I5d+5ct2DBAj+qwMgKwmjWJsPUjDogulwb+NuUgAS12H+VzotA4wg0haAyZMeGaHK3TqeTnvdLCypixh0+nRJzYgwjp+NUE3s45Eu6dIoMpTKEmOWY72WIeuHChd47FFSG8ig3HS5WU9acns0XI5xYXeRvQ76WH3EZLmQIOHTlCirMCWvzeTF+lJdys8G73kOnYR3D43DItzuCGl5/MGD4Nc2CG0XahD1WI+3Cb1hwLcDDxNDKhh9tBmMsUG5+0s6Ek/xoS9qUdBcvXuw3znOdkb5Zt2Ea/F+QD/8L9n9AOBNtwtJuhCNdm8cP237o0KFhkjoWAREoQiDXgkpHMGfOHN/h8E9vjs4AwWRY04aMQ0HFKqTzMLEiHr/pGLjLL6ejR9SwHFhURUdH3CxhszKZoDIMR/koL8KPlUgnmHZLly51s2fP9vNghGczC5XObMaMGf4mYrfddnNDhgzp1AGS1rPPPuuHCYkDC5wJKvWn/Awlpy0bwsUElTrMnz+/MEdHHBzDoXTqaQ7UnTjwRlDMIcRh+ex8vffdFVSuPyzI9MK6rOuPIVsYIEq0O3vimUP4uF7Da9bagf3o0aM9KwtfbE+azLcSJ+241mgjyoeAcv0iyLRP6Lg++D9AhHFcK5Sd+Xyuc/6XyId0uHa5CZETARGIE8itoNIJIBp0TDhEEEuMf3TrIMaMGeOHVOngTVDpRHB0BtxtE4c06FRx3M0jCmlrwXsGfxhmo+NivhdBI451QEGwwiFlokOiY6KsCD0dsolkIWByYGJN+mZZUK8w7PPPP+/rauVFnMxRphdffNHXa4899vAWE/mboGLtkD9l4TyCax0taVhHDpP0oiTqgNDjYGTiYHN83FyEVjfpI75Y2zjKSf0pI34ICXnTgTfKdUdQKfv06dML1w3XEfWCHdcaLrz+TFC5icFxTRKeGytYsIcnbWGWKKJHm2Ftwhk/rF+u3WKOa5mbMTbSJR9ED+4IJaMRXF9cW7Ql+VqbUG5YcI4ykB9lMkGlHc2RLmUiba59OREQgTiB3AoqwkingMXDHTLCYx3NCy+84K0v7qZt4U8oqISzDsOEiDt10iOcWVqWXhYmOi6sY4SV8GyWVlZ4OmATVDo2OlM6SytjGJdOGT/ywB+3ZMmSToKKtUd56fzGjRvn07N8rbMkzV133dXfNFCvUFARZ8LBETGgU7S8igkqooCIkCeiaR2/lQ8Rx+21116+o6VtKPdLL73k2YTiTCdNHbDw6LRpJ25MGuFCQYVX1o0R1wI87ZqgLeFHPeCPsJhf1vVngsr1QljEyuobWpW0Czc8CBaO65KbEcpI+ogYi48QRrgVczYUnLUoyfKjTNzIcO3aSI7d/BCPa8IEmJsv/AiHFR3GKVYGnRcBEehMILeCSjERKTo0OhbrzDhPR4148M+P2NIRhoJKJ0GHRudkjs6fjouOw6y+Uh0W8cgbcaHzsw7Q0kvvQ0FFiOhMEWTKTadGnjjSozNkMRLlpIPFqkkLKumxQhorFxEgPSuDDffSIRIfKzAtqHSIdNJwwpqhk4YJ4lpMUBE/OlXKOiax/tOOYWjSoj6Ip+VJ2RFrVmiHDgsMa5f8yB9RbYQLBbVY/rQTwhleM+Vcf8ThOjJBpS1hDx9zXEdw5drjZgs/BM0cbcy1CdtwyJybMtqXOLRx6EoJKuFIh/LzP2Jiynlre/KkHFyrlI+ycfPFzQY3THIiIAKVE8i1oFp1ECGsOTY6RzoT9nQUPLdKhxYKKnfYdBYmQJYOQ2tYHVl39Ramu/u0oCI6dKJ0UggUFh+dNuWm80KE6MwIR2eaFlTKgeVnYoVVw40DHSLnEStuJrCGcCZusCEsnTqOOpM+HSiCSn4MFcKBssDJxN6EmjBmXflE3vhD2tzM4MfcLmVAZKk7YmkWsMUxC5abB8oZm4uDC8zo4NMOoePGAgaVOuppz6FyzYQ3Z5YW54tZr1x/1JV02GAKT+IgPlxPJqiwhR/XYOjMWqceMEcs0464pI2wcq2bYxiYm6dQ7GOCanHZc23Y/w4WNBYsdeI6QbBNULHKEe+sm6kwPR2LgAhkE8i1oHK3TwdrHUC6Cty1ZwkqHRqdVtqRHp02AoC4hM/1pcNW+jstqAgMnSNiwl0/5aFDRCCx2rgJoAz4FRNUOj/CkjYdN50wViSdMwKFSJuVXUxQ6TgRT4QdXpSDOFmCyuNMoYVUjAECwiNPiMszzzzj00Ng0yJB3ggNw8hYxtQBESrmrJy1FFREPRSmYmXhPNedXX9ZXOCZFlSYcP2Fw+WkZaMqtFsxQSWcOQQbgeN6of3DEQbCxASV+ORJfK6NtONmM0tQySecI0/H028REIHiBHIrqIgRQ6Z0JlgUdMiID3scIsT5SgQVgaLTpqNHzLgbr5bLElSzBLEqsQSwGhE2RN06LuIVE1Q6ccSIdLAasAAZBuY3nR5pmBVeTFCpH9YVQ78wJQ0sHqwgOn86d7NQTVDp9E2os/jgR2dM/KefftqHzbLu4EzdKTPtRltZebPSrdU5ymkWarmCmnX9ccNgNw0ILa5WgmosEFW71mFuowClBJWbGK5zbiBxtJf973BDw/8B15AE1ShrLwLVIZBbQUVI6BiwJhCPcM6JjoIOEpclqIgXQpG2huiEEBY6FwQV4aiWyxJUBBErgRsDhkkRcASVsIgrw4KIXTFBpWxmkSKCpIEYY8EhDNa5E66UoOJPJ0pcmFJvykY5QkGFOQKIOJZzs8EwIguVyJvHPtJxyANhwsqmHZlvbITrjqByEwALWHEzk77+GHbnhqEngoqoYUkyjM01mZ4nhRXtxTXLHsZm+ZYSVK4nNtK1G0cb5iY/E1sJaiOuRuXZygRyK6h///vfvdiw0IW78tCyoYPhzr2YhUonSEcSzgMiHggKgkanxJxUd+bjil0MWYJKWMQfUcSfDpMOjXLROdJJxwSVjpSbB8JRL+IjXOnyxwSVslhHa0Oq1D8UVLgSBvHmcRzrhImLQxwREcpPXciTzpnOnQVWDPuGcSgzgougwZwOvBGuO4L61FNP+XlHxBTe4fVHnbmOqGtPBBUrl410aAdGHNLOhNPCpC1U2pBrgTYzZ4vLYM7/QTjawBAw/wfcDElQjZj2IlAdArkVVHsOk46CTs3Ez+YgTaCyLFTQ0PHQSTHUiIDQAdowHXNcbKUccexOHkuSzi5t8YbxiwkqomMdJ+HpmLGgTVxigkocs9YRM9zuu+/uBSwUr3IElTLS2dJJ49KCilgzJ0o+tlLV8sDCZQESfnTSdOIc23nYwAmu1NHqxY0PHTo3RuXOXfrCVfFPdwTVHo2hzJTdrj+GyrG44d3TOVQsYG5i2JMPXLneYQ5brnVucGgXrj/Y2qiEjTggjMTjmrK24nojHuXjf8BEGIuYa5q4tJEEtYoXmZISgYRAbgWVTt8sOzoKhJFO2qwrWo8OIy2oZrnSIRGPjp6hR+Lxm44HMSgljqRNp0PnQyeERUYchuWKuWKCSng6RhYnUQasTNLCosOZ8BDGyuY9gj/WQZIHHLAE2YeuHEElPJ039WLBTVpQ8UcwsCrhR6dLPggSDHHEYUGS8aNOtBXD2jgYm/XKb8LTcWdZX/jXw3VHUMu9/npioVJ3u9HjOsDBFe5wNeZcd1wz4YgL4RFjRg1wcEc8uREK2xg/s1C5RmhXnATVY9AfEagqgboLKv/QTzzxhK9E7OX4YadmtaZzYSgLUcCZoCI2DGUxZ4kw0TEhRHRMODoVFt8Q1zoY71HkDx0WIoGwYhlgfSEUxVwpQcXCoGyIZvgIDWmRD+WkYywmqITBYkcYsEayylKuoJInnTgWDI5O2BYl+RPJH8pJGIabrQPGj6FPVi+nOcCY8nMzQ11xdNjcPMC7kWJKWWyul5ujchclEY/rD9GCrTksROoEP9iUK6h2LWOJIo5maZIGNzekhxCGvLmGEVFEMutmjvpwXXGNEs9GCLiJIS38bGES5ee6x1qFB/60Pdcc7Uf+tDltpVW+1trai0BlBOouqJUVb3NoOgA6NeYc6SzKdXQUiBEdE/G4i6/EWedWabxK8ignLEJq7/alA0eo6uGoPwJJ/WGPSMacMS83fCy9PPiH1x83E7W6HowdliniV25exCOOWbchM/5v2Gg70iynDcP4OhYBESifQFMIavnVac2QzNlhASKkWA/lWNitSUK1EgEREIH8EpCg5rRtsKwZgmNYz4ZeWXnLkGGtLKScolCxREAERKApCEhQc9pMzAUzT2zzdzbfxbCenAiIgAiIQP4ISFDz1ya+RMxdsliFeTQepahk7jinVVKxREAERKClCUhQW7p5VTkREAEREIF6EZCg1ou08hEBERABEWhpAhLUlm5eVU4EREAERKBeBGoqqDwfxyYnAiIgAiIgAvUgwMLNRi3elKDWo4WVhwiIgAiIQF0ISFDrglmZiIAIiIAItDoBCWqrt7DqJwIiIAIiUBcCEtS6YFYmIiACIiACrU5AgtrqLaz6iYAIiIAI1IWABLUumJWJCIiACIhAqxOQoLZ6C6t+IiACIiACdSEgQa0LZmUiAiIgAiLQ6gQkqK3ewqqfCIiACIhAXQhIUOuCWZmIgAiIgAi0OgEJaqu3sOonAiIgAiJQFwIS1LpgViYiIAIiIAKtTkCC2uotrPqJgAiIgAjUhYAEtS6YlYkIiIAIiECrE5CgtnoLq34iIAIiIAJ1ISBBrQtmZSICIiACItDqBCSoDWjhWbNmObZ99tnHDR06tAElUJYiIAIi0FwE1q9f79atW+def/31qhR8+PDhrm/fvlVJyxKRoBqJOuzvv/9+d/7557tp06YVcjvllFPcRRdd5HbZZZfCuXIOSOc3v/mND3rccce5K664olO0pUuX+rzIE/fcc8918tcPERABESiXwE033eT7myFDhvi+phxDgL6HPuq+++5zy5Yt80YE/Rzb+PHjHf3WoYceWlYRpk+f7p588knXq1evqongypUr3Z577ukOOOCAsspQTiAJajmUqhCGi+voo4/2KXEhcUHdeOONBUt18uTJhVwQQ8ITJktoubDe+c53euuWsIjytddeW4hP3DPOOMOnbSfXrl1rh9qLgAiIQEUEDjzwwIIhQF9Dn1PMIb6XXXZZp/6nWFj6NwyKUukhfHfccYc78sgj3XbbbVdWusXys/PkS7p3332323vvvd2uu+5qXj3aS1B7hK/8yIgpQsfFc+GFFxYi2nkszLPPPtuft3MI7y233FIIawfjxo3zd3yE58INBZWhZPy5gyRNhBUnQTV62ouACMQI0I+EN/P0KZzDFRNU/Olv6OdCh2HA9BbOLNVwlI7z9GH0V1mWL9bpggUL3Hvf+15vlKTTJ36ljrrdddddbs2aNYW0K00jK7wENYtKDc7179/fpzp//vxOFw13c1yEDH3QwLgzzzzTW68IZnooFwH91re+Vbj4iJsWVOJfc801Pi3+EXASVI9Bf0RABCIEGP1iFAzReeyxx3x/VY6ghmEQRvqvL33pS536O8sa8aXvs1E6zpNf1tTU3//+d29NMn9qo3yWTk/2GDcnn3yye/HFF91RRx3Vk6QKcSWoBRS1PWCoguFZLpjwzu+HP/yh++pXv+ovOsTWHBe03dXZOS5CLlq78EyMQ0G1sOwtPMcSVCjIiYAIlCIQ9hmE4yafm/1QLItZqNzoc8P/6U9/2l1++eW+T6Mfw6KcOnWq748Q2sMOO8wde+yxvh8jP1sPUizdegjqe97zHkc+7373u0vhifpJUKOIqhPAhnHDoQ0uJs6zx8VEzyxXE2UJanXaRqmIQLsSYNGQWaP0TT0RVBginghwKJTF2JKfLcjMMiAsngnq888/X5jCMr+e7EMLFUFlnpYFSixU6q6ToHaXXIXxQvHkLo3VcpyjUbmrw5US1CzxzDoXFiv85yiVdhhHxyIgAu1BgBEzRs7M2XAr1qi5SixUi0O6LGKi/zFHn8eGH5s5G22z31n7egoqFmpPFihJULNasEbnuMB+8IMf+NVyXFy2bJwLmIl75itwXHDc6YWrfAnDhD6LlGzImLtLhktIh/mK9HOtEtQaNaSSFYEmJECfQt9i/UrYP1CdagkqadnwL8O7LMIMH4+hHBgR7IsN85KGuXoJ6gMPPOBXEvfk2VQJqrVajfd2t2ZiaNllWZk2PGyrfNMXvsVN7+1u0s6H8WShGhXtRaD9CHDzfeKJJ/qK2wLIsH/Ao5qCSnoIJnkh4r/97W+9xcpNP/0artQwrw/wxh8T1FouSqKc1XjGVYIatlwNj7mYuajDlbtc0DaHeuutt/qJeopgc6UWlguSxUtpx9Jz0uQinTBhgl/tGwp2+A8jQU3T028RaB8CZjFSYxtmDfsHzldbUEmTvis9/Gv541+OM0Hda6+9/PwmaVbDYR0ffPDBWuVbDsyNGzc6trw4Ll4uLC4G7oa4qLhr47cJZ1jWcu7esqzbMI3wH0aCGpLRsQi0F4FGCSqUw7z5Xc4wL+HM8fQDw7HHHHOMW7hwoZ8yY/qrJ47+l374kUcecf369XP7779/T5IrxJWFWkBR+wMELnzwmXlUxDR80UMlpcA6ZU4W65TnvdLO8uO8PeOaDqPfIiACrU+A4VdGycIbeI7NegytRs4x+sU5+g32rNWgr6HPYq0H5ypxJqqViqnl8fjjj7u5c+e6ar5/d8mSJY73A/MGpi233NKy6tFegtojfIosAiIgAs1BAAHFskuLITfe5Z7j6QREtTuunFG3UuliqfLGpGo5RHT06NFVezcw5ZKgVqt1lI4IiIAIiEBbE5CgtnXzq/IiIAIiIALVIiBBrRZJpSMCIiACItDWBCSobd38qrwIiIAIiEC1CEhQq0VS6YiACIiACLQ1AQlqWze/Ki8CIiACIlAtAhLUapFUOiIgAiIgAm1NQILa1s2vyouACIiACFSLgAS1WiSVjgiIgAiIQFsTkKC2dfOr8iIgAiIgAtUiIEGtFkmlIwIiIAIi0NYEJKht3fyqvAiIgAiIQLUISFCrRVLpiIAIiIAItDUBCWpbN78qLwIiIAIiUC0CEtRqkVQ6IiACIiACbU1AgtrWza/Ki4AIiIAIVIuABLVaJJWOCIiACIhAWxOQoLZ186vyIiACIiAC1SIgQa0WSaUjAiIgAiLQ1gQkqG3d/Kq8CIiACIhAtQhIUKtFUumIgAiIgAi0NQEJals3vyovAiIgAiJQLQIS1GqRVDoiIAIiIAJtTUCC2tbNr8qLgAiIgAhUi4AEtVoklY4IiIAIiEBbE5CgtnXzq/IiIAIiIALVIiBBrRZJpSMCIiACItDWBCSobd38qrwIiIAIiEC1CEhQq0VS6YiACIiACLQ1AQlqWze/Ki8CIiACIlAtAhLUMkguXrTO3XLzXDdoUG93wsdGuYGDtigjloKIgAiIgAi0EwEJaqS1EdNJVz7nFi1c50MeceRId+LHR0diyVsEuk9g1qxZ7v777/cJHHvssW7o0KHdTuymm27ycQ899FC3yy67VJyOxScuaVTqli5d6n7729/2qAzpPKvF5ze/+Y1btmyZ59KduqXLpd8iIEEtcQ2kxZSgnz5tF/fug0aUiCWvdiJQi04ZETvjjDM8xueee64iIbS4CCBx+/fv79O59tpr3SmnnNKlaRAnXDGxtfjEJY1KHemPGzfORytWBkvTymK/s/aUk5uNo48+2nvfdddd3RJ6IlMu8uxu3bLKp3PtTUCCWqT9s8T0g8fu4Njy7H7/23lu9OhBbp99u2/V5Ll+eSubdcrjx493jz32WMniIQKlROPKK690WKQmiiQWCuqTTz7ppk2bVjQPrCzEBjGOCSrlIJxZwoRHWC666KJO6WcJKuW78cYbO4XL+nHFFVd467pcQTWWWWnZubVr15YUVMvLwqf3t9xyi6OtcJafBDVNSb+7S0CCmkGuJ2J6y81z3JNTl3VJdfiIfu49iWVba+v2C599IsljeGJJj+lSBp2oPoHtttvOMaxpAlYqB+vAi4UxC66YoH7rW99yl112WbHoBQsyJqiIaTFxRwTPPvvsQh5Zghorh0XGeoSLiZzVz/zTe8o0e/bs9GnPF8a4mKBaebsk8saJ0KK19pCgFqOl85USkKCmiPVETEnqxutfco88tDgRz+GdUp7+3OtucTIPu8e4rdx5528eAusUoEo/JKhVAllGMgiTiQXB58+fX3K+0zrwww47zF1zzTVdchgyZIiPX0xQGV5GULFUESosUsLijjvuOC+EZnmawJvAhGJ25plneguTMJxnjpZ0SZ/j6dOnF+ph8UPRSVvK559/vhc96kU4czYvaYzCMliYcvahgMcElfqnnVntnJegpunodzUJSFADmj0VU5IyQf3xT/cPUt58OOmK59zzibB+8+K93KhRg7r4V+OEBLUaFMtLw4TJQmPZYeEVc6Gg3nnnncWCFR3yJYKJC+JFGiZ4JhQmxsUEFUsPqxoXChzn99xzTy+MoZVq6YeC6iMHf6xeWWHCm44wvyB69NDqjNhz0xLOoZImwk19i7kwvHEibKlyF0tL50WgFAEJ6ht0qiGmJFVKUB95aGHiP9ud99U93B57bl1ol+emr3DTpi51ixet9+fG7zskc2h49aqN7i93L3Bz56z24cbtuWUyHzTMDd+mXyGtLEGlbg8neY8Y0T8z3UJkHZRNAIuOjh63zz77eKuR41KiYR04c3jM5aWdiYKJIv7hHCq/TVy6K6ihuDDna/OJpH3ggQf6OdpQGMsRVBv2zppH7o6gMvRLOa2OJ554oreeLf2wDpQbZ0KZZaEy70waYTiOrT3C+vpA+iMC3SQgQU3AVUtMaYNSgnpTMhz8cDIcfNl/7O1GvCGCLCL6/W9fTZ5t7ZNYrQN9M2LFcvzNi9/if/Pn5Tmrksd3nncdyfGIZD524MA+3trl+Kwv7lqweNOCanXrSCKe99VxhXwLCeugIgJYcojaD37wAx8PMZ08eXJBjDh54YUXdlncw3nrwDnOciaeoaDasCniQrqlBBUhMlfMQg3TZvg0dGZxm5DhFxPUUDDNggzTDP1L3WyEcdKCauViWJsbkVKCGmNswkt+FlaCGtLXcU8ItL2gmuDYc6bA7MlqXhNURNPc3EQM585dnQjnK53SXr1qg/uPy55NVuQO6fRs6y03z3b33L0wmWtNLNlxmy3Zi775lEuL4qLE8vyPy57x4mvzsqGgWt3S8axc2pdPgE6cOUYECVHFIVp00OwRDoTALCTOIQBsJorWgSM8bGnHEC7xQtGzMNbp501Q02UNBYuyV0NQjYFxZw7Xbh7S+cUYM3edbg9ja/loLwLdJdDWgmqCUy0xpRFMULMahJdCHHnkdp2GaLPCIZQX/ctTifhun2w7umlTlrif/NfMzGdgn5y6xM1JhoAJhzNB/VDymxdSYMmem1imgxILWK77BEzILAXmS7EYQ2Gkw7/gggs6PVISzqtaZx9agJZeuA9FCqsOkbXNymFpmAVpws5LFL761a/68FnPoTL8ydAuzixiy9ssQ7MEOW/pFxMdqxMcqD9iRVnMlSuotrCJeNy8EI80d955Z//yBV7AQPoM+zLHGxPUYuW1crG3spcTNoynYxEoRqCtBTUtfuP3HerO+sKuxViVdd7SZJ40dIjk7373imMeFMszXJTEOeZRV6/emGwb3MKFa72FaoJqw8LlLGZCUFlJvHjxOrcqSRdLWWIatkT3junMmYdDyOiAEbhiDjFgSBhLCovIwloHbmJYLH4oqGnRKyWoiJnFJc8sQaUetigpXHwUCl94vpSghvPICL+9jCIc8g7TLTXka/O3xZggrtSJOiL4EtRipHS+kQTaWlDnzk3mJa943oucNUJP34Rkgpq1ypch3gu/+Y9OQ7Q8t3rP3a/57JkPxfHMKvOoJqiW5pVX7RN9jzCCimNOFqE+4eOj3P935Lb+nP40lkAxQUXksMCwHrHAsNBMnMoVVESQuAhY7DlUs0QRKKxJHtfBQkSMcWGexQTVhJvwZuGRhs0tm6iWK6jUHQahsxsR25tfOIdabMjXykT+OBhzbJzhZe1hYS197UWguwTaWlCBVm1RNfHLElTys0dn8H/koUXJEPGsRDh3cEckomeWZHrI1yzUcDETaWU5BJUFTecmz7r+5Mczav6YTlYZdC6bgHXg2b6bz/KmIgQkS1BjVpzN2cYEFWEhLUQm7cgfMTSXJaihcJoosyc90jURw5rEKqXeuFIWquWHVc9cNe5LX/pSpyF1C1OOoFrYYnsev7GySlCLUdL5Sgm0vaACrJqiGhNUW1z0rW/vnXzBZvPio7RQvim0m+dQn39uhbeksxZL3XP3/OQxmjXulOQdwzibQ+VNSQgz86i93ljhGz5e4wPrT1kEzIIsK3BGIHthQzFBZTjT5gs//elP+xSyBNVWu4ZZjBkzxluYrDZmKBkXE1TCIFwnnHBCQfzIHyEN35JEuCxBtcdYQjElLA4xZViaVxNi6eIqEdTQ8g0tZZ/QG3/Ig+FmHOXFMjeXxRhGOOZjKTO/EWsJqseiP1UkIEF9A2aWqHZnuNQENVzlSxaLFq31q3w3D+VuficwYnjLzS97C9XeEcxc6q2/nuufNbUhX+Jj2bJS+MTk83H2+kLCXpU8SsNbmU5JBBQXCiq/rV4jhvfzc7f69BxUKnOhRVRZzM2hzeozy83SoHPPcsVExSxKxK+Ys7ikjSCZIBazDhFW0kWQs9K1+KEVR3hEEwHOikPZSJc0qXO1BbVY3Ss9b+Ib1q3SNBReBEICEtSAhll0vCLQXJZVaH5ZexPULD/mNd/9nuGFR2SYU+XZUl7UwHAvK3JXJQuTEM3NQ8GbLVTSCstmQ8MsOho1eqA76/O7FZ4vTQsqcU249ek5aFTumN/72Mc+VnnEN2JgRWERletMFAlfzEorlpbFLVdQi6Vj57ME1fzK2fdEUHnmtJhgW95Y/6GFaufL2UtQy6GkMJUQkKCmaIXCZV6ViOrzidVIGmk3cGDv5O1IgwvzpKE/j8VgfSKU73rPNq5X8vqGaVOXebEclXw5JnQWlnPjkmdUwzcucY7h4hHb9PcrffltjnirV29yvIVJVqpRyefeRJHStbOgltM6sRXTpdKQoJaiI7/uEJCgZlDrqahmJKlTIlA2gZ4IKhYhG5YdQ65mYRYb8o0VyuJ3d1i0UguVBUm2UjhWNvyxTlmx2x0nQe0ONcUpRUCCWoSORLUIGJ0WAREQARHIJCBBzcSy+WSWqPb0OdUS2clLBERABESgiQlIUCONlxZVLeyJAJO3CIiACLQpAQlqGQ2PqN543UtJyI7kfbpjCytqy4iqICIgAiIgAm1CQILaJg2taoqACIiACNSWgAS1tnyVugiIgAiIQJsQkKC2SUOrmiIgAiIgArUlIEGtLV+lLgIiIAIi0CYEJKht0tCqpgiIgAiIQG0JSFBry1epi4AIiIAItAkBCWqbNLSqKQIiIAIiUFsCEtTa8lXqIiACIiACbUJAgtomDa1qioAIiIAI1JaABLW2fJW6CIiACIhAmxCQoLZJQ6uaIiACIiACtSUgQa0tX6UuAiIgAiLQJgQkqG3S0KqmCIiACIhAbQm0rKCuWLHCLV++vLb0lLoIiIAIiIAIvEFg8ODBbuutt24Ij14diWtIzspUBERABERABFqIgAS1hRpTVREBERABEWgcAQlq49grZxEQAREQgRYiIEFtocZUVURABERABBpHQILaOPbKWQREQAREoIUISFBbqDFVFREQAREQgcYRkKA2jr1yFgEREAERaCECEtQWakxVRQREQAREoHEEJKiNY6+cRUAEREAEWoiABLWFGlNVEQEREAERaBwBCWrj2CtnERABERCBFiIgQW2hxlRVREAEREAEGkdAgto49spZBERABESghQhIUFuoMVUVERABERCBxhGQoDaOvXIWAREQARFoIQIS1BZqTFVFBERABESgcQQkqI1jr5xFQAREQARaiIAEtYUaU1URAREQARFoHAEJauPYK2cREAEREIEWItA2grp06VLHNnToUL9Vsw1feukln9yYMWOqmawvL2XGVTvtqhZUiYmACIiACLi2EdTTTz/dXX/99X479dRTq9r0Y8eOdYjqzJkzqyp89957rzviiCN8mqRdDUc5SZcbi+OPP74aSSoNERABERCBhEBTCSqCeN9995XdcJMmTSpYozFBNSszlniWpVhKULEwP/zhD8eS9eW87bbbOoWrhaD2NM2JEye6Sy+9tFM5K/lx+OGHu3vuuaeSKAorAiIgAk1BoKkE1USxXLKhxWhxEeUsC9VEMZY2YoAohM7ihvmZP0KNlVnKEQahTluhPRW/rDwtTSzUJUuWZAUpee722293d9xxR2YY/GxYvZj1Sz0vueSSzPg6KQIiIALNTKCpBNVAm5WEpRR2zr169fJBOjo6LGhhX66gIgSITTF3zjnnuH333beTdylB7RQw4wdiSnyEph6CahwoStbNQUYRyz5lHIiAWJfiWHaiCigCIiACzUIgEZ+mc4mQopgd7EPHObYsd9ppp3m/xELN8u5IBM37J6KW6V/qZE/ikh9lJo20SwSvqF86bDm/La9E6ArpJsJXTtRomOuuu86naW1w7rnnRuMogAiIgAi0EoFs9cl5DZtNUBHGYpsJUa0FFTE14U/mljuSYW8vgIm13dFTUaVuJtJTp04tHF911VU5v5JUPBEQARGoHgEJ6hssTWxqYaGa1VZqX0tBRdhM8JIhcl9jRBQxNesYUazUkQaWqNWLmwPclClTCvkxMtAdpj4h/REBERCBJiIgQX2jsWotqAgaglNsS1b4drlsEDkTvC6ekROIHUJqokk6WKahSwtistiqgyFxzhdziCN1QChNpGGXFmTCGVPyTuamfdqIrZwIiIAItCKBphFUOnk6aTaziujU6cjZECSzlBgSxo9O3DpwfuMfm0O1NLL25JOsZPVCgVjYZmEpW5bDn7CVOvLrTtxQRImPUBYrG2VCIEPxI06x4VoTUcJwjMVbSoBJO12eUmWplJHCi4AIiEBeCDTNKt9kbs7tt99+ST9enks6+8KznUmH7mx1a+yxGcISN8vxXCurcs8777xO3pzDJULhEmHyx+EfVh9zHv9SjkdOSIuwlMEecSknbphuIob+0RZWLPOIULH6hHE4Jj8eiYF1IoS+HOkw8Fu2bJkbP358l8eH0mHD39SLtClL1mNLYVgdi4AIiEAzEmgaQUVsrr766k6M6ZyHDBniz3HMZmLEcejKFdRiohimlT62x0WKxUVQKQ8Cl3YIDRv1Y8PxPOeECRO6LajpPPRbBERABESg9gSaRlB7igKrC8EqZoHGRLFU/rG49nxsVhrhjQA3A2xYcOyxGKv96sGsMpRzjjdUJUPp5QQtK0wyBC9LtSxSCiQCItAsBJpWULE4u+MQq2ROsUvUmCh2iRCciMXFAjVnAmq/S+0rFVRuGMp5zWGpPEM/bj4Y5sZhNaeHusOwHJuVXU4dk3lwx0sy5ERABESgVQg0raCWsvpKNU5sDrXYsG2pNGOCWioufqHgYpmaQ6AQsmLDxRbO9qRDWarluPFIFkaVnZzdAFQar+wMFFAEREAEckygaQW1UqblzqEiIKGokQ/ChlixnzZtmvcPratKBRXhYYEOYkm6aYdlSBmwprPmXdPhK/ldS9GrZdqV1FFhRUAERKARBCSob1A3USynERC58MswFrcc65ZhU1bh4hBOE0/LF4FlQ5xw+CPyWKnVcNUQPeZ1KWP65qMaaVejjkpDBERABBpBoGkF1Tr1cqHZ/F6xIV/m9HgcJHQ2F8ie1cTs0wJI+HIFlbyxlLE+eSwlay7X8kewEF+s2GoOoVZD9IrVtxppW/21FwEREIFmI9C0gmqdOtZiJdZbsUVJPWk4K0vMQuUmANHBsislplYWbgKGDRvm65e8PMFO92hfDdErVl/Ky2pqu/HoUUEVWQREQASajEDTC2pMxOrRHsUEJp03K3CxOBnyDedg0+Hst73MAouWelbD1VJQq1E+pSECIiACzUpAglqFlitXUE3MsOAYYrbnTdNFwNK74YYbvPAy9Ms3X6v1DKiVoSfDyFZfbg7sxRrpOhT7zc0Bm5wIiIAItByBvLwDsdJyJJ2yf89t0iAV75Mh10qzKxneypJYkSXD4cm7bS08ZU/E1b9rNxE4/87btF/6hfbRDCIBqDv5kl93XVjGSvkn88jdzVbxREAERCDXBJrWQs1aRJR07mU5hltZXFQtZwuk0qteS6WPdcfbhxjWxWGJYrmyJYLlDjvsMP/IDL+r6ciPoWfqH65UriQPyo4V3R2HZUz95ERABESg1Qg0raC2WkOoPiIgAiIgAs1NQILa3O2n0ouACIiACOSEgAQ1Jw2hYoiACIiACDQ3AQlqc7efSi8CIiACIpATAhLUnDSEiiECIiACItDcBCSozd1+Kr0IiIAIiEBOCEhQc9IQKoYIiIAIiEBzE5CgNnf7qfQiIAIiIAI5ISBBzUlDqBgiIAIiIALNTUCC2tztp9KLgAiIgAjkhIAENScNoWKIgAiIgAg0N4FcC2ryFmS3atUqt379erdx48bmJq3Si4AIiIAIlCTQq1cv179/fzdgwADXp0+fkmHz6JlLQUU8efn62rVrPdx+/fq5LbbYIo/8VCYREAEREIEqEdi0aZPv99esWeP7fj4O0kzCmjtBXblypVu+fLnbcsst3dZbb+24Y5ETAREQARFoHwIYVYxOrlixwusAWtAMLleCCjwgDhs2zGGVyomACIiACLQvAYR14cKFbuDAgW7w4MG5B5EbQcUyff31190222zTVCZ+7ltYBRQBERCBJiZgojpo0CBvrea5KrkQVIAtWLDAjRgxQpZpnq8WlU0EREAEGkCgWTQiF4LKAiQcE9ByIiACIiACIpAmwJQgC1UZxcyra7igsqrr1Vdfddttt52GevN6lahcIiACItBgAmjF/Pnz3bbbbptbrWi4oLI8mjuPkSNHNri5lL0IiIAIiECeCdgCJZ4CyaNruKAuW7bMPxrTDCu48tiAKpMIiIAItAsBFq/yop+8Tg82XFCZP+XB3WZ5zqhdLlzVUwREQATyRoDHKlevXu0XsOatbJQnF4LKM6csiZYTAREQAREQgWIE1q1b56cIeSIkj06CmsdWUZlEQAREQAS6EJCgdkHS+QRDvrJQOzPRLxEQAREQga4EJKhdmXQ60wqCevPjG9yQgc69/616gX+nxtUPERABEagiAQlqBGYzCeqyNR3uj//Y6A4a29uNHt7b12zib9e53z20+dNyJx3Zx33lKL2DONLkVfHm036VOn1ooVJiCi8C+SIgQY20R7MI6pzFm9xnrl3nli7Z3JFffWY/d9CufdzR31tTODd0WC9319cGRGos7+4SCEWUYwQy3NtxmL6JqO2zwoThdSwCIpBfAhLUSNs0i6A+9OJGd8416wq1MWs0S1CxZD9/4zr32tIOd8x+vd1XjpbVWgDXjQNE0Fx4zDnenpJ2JrSc59jE1H6H4UO/8LyORUAE8kdAghppk1YUVOZUr7h1faHm153d3+294+Yh4sJJHZQkYJZkKKAc2287RlB5cbad57eJaO/evf2H6U00w70dWyHSv+289iIgAvkhIEGNtEUrCup//nmd++Xdm+dVqb4ND0dQyDsgYIJpp0ww2SOavCQbt8UWW/iNl4MgoOYQ2TAcgmnf2OWY8KQVCml4bOloLwIikB8CEtRIW+RVUNMLkCoZ8pWgRhq9hLeJHGJozo5NIBHRAQMGdBJDC1tsjwDz3ui+ffv6DfEMtzCehDWkoWMRyA8BCWqkLfIqqDY3aguNJKiRhqySN4JqG0lyjOMfiXd4brXVVj360gSiSjpYq1ipOCxbE1Hbew/9EQERyBUBCWqkOfIoqKzo/cjlm4cUKf7/XtDfzUkWGJW7KEkWaqTRM7xNOPEyQWWPVYoIInTVet8zw8F8lIHXXSKqpG3DxSaots8oqk6JgAg0iIAENQJeghoB1CbeJqJU14SUY74uUYs3aSHUXHt8BsosVIkqxOVEIL8EJKiRtpGgRgC1gTcCijNRRexCy7RWn/Yjj8WLF3tRtUVNJqq2bwP8qqIINA0BCWqkqSSoEUBt4G2CisBxzJAsG/88tf7u4YYNG9zy5cv98C8iakPANuRr+zZoBlVRBHJPQIIaaSIJagRQG3gjpDj2tvHdQyxTVvTW2jGfipgytMzerFPEFYGXqNa6BZS+CJRHQIIa4SRBjQBqce9QTG3Il0VIuFoN9aaRYg3Pnz/fDRs2zIupDf8SDjGVoKaJ6XeeCaxatcGtXrXRjdimf2Yx58xe6ebMXuX9Ru88yI3eecvMcKTz3LPL3ajEf5siaRFx0cK1buCgPskoT+1vfiWomU315kkJ6pss2vEIQUVIwz3XBB8Q5pnRermFCxd6C7V///4FK9XEVIJar1ZQPj0lcPed89wdt7/sViWC+p0r9uskhAjfz699wU1/dkWnbBDeC77x1k5hpzyxyP3o+88nYjvIi+9JJ+/sjnzfjp3i8cPyu/jf9ukUv0vAKp2QoEZASlAjgFrY2yxSE1MsRZ4RxUIdOXJkXWtOGV555RU3fPhwP4/KsC9CasO/EtW6Nocyq5AA1uSPvj/diyUCiXimBfUb509xC5Pzxx0/yh31vu19DlOfWOJ+9YuXEgtzC3fJv729YGUSljBHvW8H99CDr/kwpBdaoeQx8eIn30hvhwpL3L3gEtQINwlqBFALe6ctUwT19ddfd1iJ9RruDfG+/PLLfhEU87YIKUO/OLNUw7A6FoE8EUAAEdXTz9jNzU2GdLFSQ0Fl6PZ733naHXzINkmY3TsVHSvzl7+Y7b705XFu3/2HezH+epIeAstwMOl++Qt/K/y2yJd/5x/eKk2nZ/612EtQI1QlqBFALextgop1aBtzmTvuuKMffq131bFQedmDDfuaoJq1Wu/yKD8RKJcA4oawMdf529vndBFU5k0nXvx395kzdnUHHbJtp2RNbNOCGgryGac94oeF99xrsI9LHg8+uLDLUHGnhGvwQ4IagdrOgsrrDO96evNL9D9z0BaFj5ZHkLWEN2KKMyHl8RUs1FdffdXtvnvnO+h6VXjRokW+DLyRCRENNw351qsVlE9PCWQJKlbmvyWCyuIh5kvDoVuGimcni5RsHtUsUn4joCbGJrAM9WLBfiaxhg86pL5TMxLUyNXRrIJ66P693blH9nUn/WCdW5t8/xRn7/2NvXrwH/M2uXP/+82PlRP3ghP6uo8dULtVcvyT3JzMlTTU9UpyT1AlU5NvvMQhEdSO5NNrm3h/L59hW5/MoS5yXz7vyIYUEwt15sxZfrgZ67RXr/C5VIpEBeREoLoEBg/eOlkzMKJqiWYJKokjhJcnw770Vjsni40GJeI6JZlDZf4U6zRc7YvIMt86IZlvveP2ud7y/eKX9/RlZHh5z7227jJ07D1r/EeCGgHcDILK90wfmbHR/eT/NkRq4xxC++TMDrd0yWaRJUL4+TbeE/yZazuL6QcP7uMu/VBtP0Jud5XRCtQjgBdW+7ZpssI3EdVEVd3GTevcwIHL3E+uPbEepeiSx8svz3OPPPK3ZGHSsMJ3VG3+1PZdIumECPSQwMiR27jddhvTw1TejF5KUG2VL2KKYzWwiWP4aIzdgCOqrPQ97vjR3qpND/Uy/3rXnfO95Xt0sogpPZz8ZqmqcyRBjXBsBkGNVCHqHQrqV29Z6+5/4s1Pk2HV3vrl/m7IgNpaP/yD3H3nK9Gy1iOA3WpsnkPlu6Wbv126YcP6ZFHSK+7Ms46qRzG65PHaa6+56dNfSO7Gt0ke2dm8MGnz/OnmFb9Y1nIiUG0CzNsPHz60aslmCaqtyGUF8CdOHuOHcsmQ8z9MrFGeS7Uh3mIFsZtyG+pl8dOlyTDyFxPrludef37tjGgaxdIu97wENUKqnQQ1/RUb0PAlm9HD3/wwdgRXy3gzd4qgsjF3ysbjMjNmzHDvfOc7G1LPl156yb/ukEVRDPnahqia01yqkdA+rwSyBPW65PnTvyaLiGweNCw7N9sM42KJXvCNt4VenY7TQ72/+sXMN4R4c5x6rPqVoHZqkq4/2kFQTzqyj/vKUf1c2jq1812ptP4ZE1OElQVJ7PkI+PTp090+++zjV9vWm8IzzzzjV/jyDCyPzpig2nCvxLTeLaL8ukMgS1ARO6zQ7/84+2YVsWTk6LvJs6ZZLj3USxhEGmePzaQF1ntW+Y8ENQK0HQQVBAzthvOqtoApgqdlvRFQHHuzUFevXu2wEhG0nXfeue51f/jhh/0jO7zcwQR185Dv5hc8SFDr3iTKsBsEsgQVsftzMteZNaxrQ7nMpWZZqObP0O5+yXOq5tKCykImnC1esnDV3EtQIzTbRVDTGGq9qjedX95+b54/7fp1GVbarlixwh144IF1LTIv43/00UfdnnvuWVjli4WKoLLHSVDr2iTKrJsEsgQVUeStRrhPnLyLX9HLozNTk1cMsqiIxUfFhoN53Gbf/Yf5udewSOFrB1nkRDjewlTLR2kkqGELZBy3o6C2u3WKmOJMVM1CZeiXhUGzZ892hxxySF3f5Ttt2jT/MXOegWWRiA33steQb8Y/rk7llkCWoFJYRNVW+YaFxzJlFa+9tCH0w7Kd8sTSTq8lDP1tKJlzsTnYMF53jyWoEXLtKKg8WnPlif0jZFrfm+FeNoSVd/girHyblGFfXo6/11571QXCypUr3eTJk/1Q8/bbb588ujOwYJnakK+Jal0KpExEoAcEWGTE4zDhYzBhcggrFimOVb/FwuFPOKzP8EUQnA8dL37Ahc+xhv7VPJagRmi2o6CGj9FE8LSsNyJqG0Jqc6ksTOKdugz9HnzwwW7LLbM/LVVNME8//bS3jMeMGeM/4RbOn4YWajXzVFoiIAKVE5CgRpi1m6C2+3CvXQ4mpuxNTNkz7MsrABn2xSo89NBDLUpN9linf/nLX9yoUaP8giSGe0NBxUJlkxMBEWg8AQlqpA3aTVA13PvmBWFiyj60UlkgxDt92XbaaSf3trcVfzbuzdQqP0JMH3jgAT9nyrOnvNChX79+XkARVZwEtXKuiiECtSIgQY2QzaOgLkvezXvUxDWRknfPu11f5JBFK7RSQ0Hln4brgi/PsEhp7Nixbu+9985KotvnTEz5iPm2227r50+32mqrwtwpQ71mmWr+tNuYFVEEqkpAghrBmUdBpchHf29Np+dGI9Uoy1vW6ZuYEFOEimFenAmqDftipXJtIKjsd9llF/f2t7/9zQR6cLRkyRLHM6dYoVilLIAaMmSIX1WMiNoK31BIOZYTARFoLAEJaoR/XgU1/cWYSDXK8pZ12hVTMSsVgcWK5PpgTpU97ogjjujRQqWnnnrKryIeMGCAF1I+1YaYMndqw7u2R0TNSu1acp0RARGoNwEJaoR4XgU16727kaqU9G7n1wyWAoOg4rBM2fjNHkHlUZrXX3/dLVu2zL/sgT2P1YwePdoPA2+33Xalki74kc6LL77onn/+eZ/24MGDHUI6dOhQxzAvK4lNRG2oV9ZpAZ8ORCA3BCSokabIq6BS7Im/W+d+99fNHwCPVKOkt1b2FsdjgmqWaiisrPg1UWUIGIuVtyix8Y/FAqIddtjBIazMhSKO5hYvXuzDz5s3zwsyQsnzpYgngtq/f3+/5xx+DP+aqJKGCaqGeo2o9iLQeAIS1Egb5FlQKfqE769x816xD45FKpPhjZj+/Ix+bflFmQwcJU+FFqoJK3v+iRBTNo555y8CyzEbomtxwwwQWTaGd9kY1kVIEVGOTUwRVBz79DCvBDUkqmMRaCwB/t+5oWbdQx5dr8Qy6L5aVKFGeRdUVvx++qdruyWqEtPKLpDQSuWYYV/bI5gIKZ94Y+MfC38TVESVsCaAZnEipGaBIqb8xkpFaM0iZW9CyrE5S8t+ay8CItBYAhLUCP+8C6oVv9JFSuN27e2+89G+skwNYGRvYohw4szi5DzHtiGc/FOFomrCS1hLx4QRMTUrFUHlmHOhNWpiyt5E1PaRYstbBESgjgQkqBHYzSKoVIOFSlfdvd49ObMj85Ga/gN6uXe9tZf76AFbuIN23TyMGKm+vAMCJoic4tj2Jq6hcHKMuNo8K78RQQtrL2gwAcVixT/LKuW8beTJsZwIiED+CEhQI23STIIaVgVxnbO0wy1PhoQHJ0I6emiyDX9zuDAMq+PyCYRCSiwTWRNKziGeuPQ5wobCaEO5nDOL1Y4tXHrvE9YfERCBXBKQoEaapVkFNVItefeQgAkryXCMeIbH5s8+PCYMIpnem5B6j+SPCaztLY75ay8CIpA/AhLUSJsgqMxn8VygnAiEBEwoOWeCyrGJaOhv5xBGjhFK9vw2sQyPTUhJz/w5lhMBEcgvAVb3szhRq3yLtBGPQjAXxkP2ciJQjICJZ7i3Y+LYMeLIsYmk7Qljx+k9fnIiIAL5J8AjM0z55FUvGv7YDCY8D+HzYWc5EShFwETT9mHYUETtPMKJZRtaq/hxPiu8xdNeBEQgnwR4Dak9Q57HEjZcUIHCx6Qx4VmZKScCpQiEQmjH7NPO/DhvAmrH6bD6LQIikH8CWKZ8gYo3ozFNmEeXC0HFjF+7dq3/8kceIalM+SZg4hnutLCvwgAALKlJREFUrcQ2vGu/tRcBEWhOAqy3weV1uJey5UJQKQh3HpjyWpwEDTkREAEREAEjwFobPpTB5xbzap1S1twIKub8ggUL/AvOJap2GWkvAiIgAu1NwL6NjJjmfVowN4LKJcNqXxYoyVJt738g1V4EREAEIIBlyicb7ZvFeaeSK0EFFpbqwoULPTcsVd6/mmcTP+8NrPKJgAiIQDMRYC0EVikbq/SHDx/u38HdDHXInaAaNPtEF4uV7H2s4cP4Fk57ERABERCB1iDAKCUbhlSeH48pRju3gmoFxmIFMPvwbTnmr70IiIAIiEDzE8BgYmOetFlHJXMvqM1/magGIiACIiAC7UBAgtoOraw6ioAIiIAI1JyABLXmiJWBCIiACIhAOxCQoLZDK6uOIiACIiACNScgQa05YmUgAiIgAiLQDgQkqO3QyqqjCIiACIhAzQlIUGuOWBmIgAiIgAi0AwEJaju0suooAiIgAiJQcwIS1JojVgYiIAIiIALtQECC2g6trDqKgAiIgAjUnIAEteaIlYEIiIAIiEA7EJCgtkMrq44iIAIiIAI1J1BTQV23bp3jazFyIiACIiACIlAPAnypplEfIpeg1qOFlYcIiIAIiEBdCLSsoNaFnjIRAREQAREQgRwQqKmFmoP6qQgiIAIiIAIiUBcCEtS6YFYmIiACIiACrU5AgtrqLaz6iYAIiIAI1IWABLUumJWJCIiACIhAqxOQoLZ6C6t+IiACIiACdSEgQa0LZmUiAiIgAiLQ6gQkqK3ewqqfCIiACIhAXQhIUOuCWZmIgAiIgAi0OgEJaqu3sOonAiIgAiJQFwIS1LpgViYiIAIiIAKtTkCC2uotrPqJgAiIgAjUhYAEtS6YlYkIiIAIiECrE5CgtnoLq34iIAIiIAJ1ISBBrQtmZSICIiACItDqBCSord7Cqp8IiIAIiEBdCEhQ64JZmYiACIiACLQ6AQlqq7ew6icCIiACIlAXAhLUumBWJiIgAiIgAq1OoGUFdenSpY5tzJgxvg05vvrqq93QoUPdOeeck/t2nTp1qrvjjjt8+U899dS6ldfyHT9+vDv++OOrlm+t0r399tvdtGnT3IQJE9y+++5btfIqIREQARGomEBHi7rTTjutI4HRcc899/gazpw50/9OBLYpanzdddf58h5++OE1LS884GTO8oVfNV2t0rV2vv7666tZXKUlAiIgAhUTaBoL9aWXXnL33ntv9IYBCxTL6vTTT3dJJ+sSQXWJKDnijx071lt8ibhG0wkDWFzOJYRDr+gxcW+44YZoOAJccsklhXCUnTpQdupQKwcTymj1snwToXKJCEazxULEksZCLGXRxtKdOHFiNC8LkNwEOLParZ1J385ZOO1FQAREoK4EKpbgBkUwCyeBg6IV3bC4cGa5VMNCNeuWfCt15F+qvKFfmLbVNxHU8HT0eMmSJR3EKbUlIlhIB15hvSzfci3USy+91MdnX8rF0g05xI5DJtbOiaCWyl5+IiACIlBzApUrRM2LlJ0BokannFhBvgOnI+U3W2KV+nMc33bbbT4B62irIahTpkzx6dPRI1iVOBNURIA6lNrCdKkL+YXiEfoXOyZ9RDJrM07GhDTyIqiUiS2ZBy20pZ0z0YYF52gPc9bOElQjor0IiECjCDSNoBog61zDDjQtCoS1jpYOGIfQIFCErdSZuBE/tO7KSYf8uyOMlmelglqqTKRFWYwJYdPsLF/4leOsPXpqoVpeVkbay1ypMlk7h9eDxdNeBERABOpJQIJaBm0Tne4IY54E1ay/0Mq2uhmGUuJlYcK9BDWkoWMREIF2JtDygsowJ6JhwsG+EmeCgSVk1tNVV11VdhJ5EdRiFrpxsQpVKqhmITbaQg3b+dxzz7XqaC8CIiACdSPQ8oJqYmrCUYmgmpgSB0Fis3nIcocYTVBJA7EqtiXPaXZqdMJ1xyLulEjww9JLD+UaFwtaLJz5p/d2k8HcdilXbrqWHqzNlYprgh4KavKcsUXVXgREQATqRqDlBdXmC+mgEahyBJUhUawcwtNRh2JnnTt+MauMVjRBJXypLZ2W5UP+iIZtodBUcpWYUJEOedlmNwiWluVLuJiDk9WJdMKh5HTcctO1cob1LBWXclKGcm9w0uXSbxEQARGoFgEJaooknbdZbexDMbWgrCQ2ISJMqc7cBJX5S46LbaGAkI+JiAmW7YlfqaO8Fr/Y3tK0fMsRVAtrvEot2LKwsXQlqNYS2ouACDQbgaYR1OSlDh10yvbYDPu0lcU5hIuO3SwXE6CYhcowoYkkokPHnha5sHHxs7IQHlFJW5mEJ39LL4wfOzYBohw9cViNJniTJk3ydaLstpmf5WH5xoSP8BbX4sC+mLMwWelSFjix2cIp5qmJw2acyY/4MDEu1s6lbmqKlUnnRUAERKCaBJpGUK3jLGZhmaiZJWjh6aRxdNoWxp9I/UEMEVQ6b4uTCpL5k7DW4SdvOuoSBv9GCqoNXZsApQtoomjnETDKC79SDsELw5E+v4st2CqVrqVF/NhGG5mwUj5rZwlqqdaSnwiIQD0INI2ghlYMIsXGA/6cZ0s762gJhyMMnTWdcTFXag6wWBw7Xywu+ZNvMUGz+Om9CVCl8cJ0uEmwOmcxImx3BNVYkraly94sfGMelsXqkyXUxMU/vTFUTVrWzlmMrZ0lqCFtHYuACDSCQNMIaqVwrKO1zp1O28Sl0rR6Ep78KxFUEw3EpZJ46TKaZYrIZc0DW/hKBRWOFidtkTOkTJnJ095YZflYfbIE1cJ0Z2/tLEHtDj3FEQERqCaBphVUhgnp2IsNMVpHmxdBpaw252t7ysiGFWoixfAxzgSoUgsVwSOO3TyUElPysXw5xlm+lCvtYGlWaLH5UkSWvNkQ9fQNQla6YT7kQZli4SwO4chLgmpEtBcBEWgUgaYVVBvOZJ/lbBETAoNjbyLjT9Tpj1moJjJZe0QKEUFMrT4mbJUKqi3qYW91L1XVcgU1fJ8xZTKhzErbRJW0zVl9YkJpvMqtN7wISzw5ERABEWgkgab5fFsiRJ0cn/tKOlO/JR14J79iP/hMGS7p6P3e/th5+93TfSXpp8Na3onF1a3Pt1EX4sKmHFfJ59ssTduXSt+YWv2sPomglvwsHJ/oO+KII1wikjX9bF2psstPBERABLpFoJFq3pO8k07dW5zse+qSTt+nlQCsyr6n5SG+WXTlWmrdzdPqbvEt35glaeHL3ZebbqUWarn5K5wIiIAI1JpAW1moxe44rr76ard06dJi3hWfL9diLpWwWXS1ttQqsVBLlTfmZ/WRhRojJX8REIFmJdD0gprMFTq2StyECRNcMl9ZSZS6hzUBaldBTeaVK26jU0891cFLTgREQAQaQqDWJnCt0rch3wRaxcO01RgmrlW9LF0bIk0Ewk7VZM/jLeRlzvJt9JBvd9o1uQmxamgvAiIgAnUn0LQWakPuPuqYafK4i7vjjjsci3qwvOrlLN/x48dXbCGWKmOt0i2Vp/xEQAREoJ4EJKj1pK28REAEREAEWpaABLVlm1YVEwEREAERqCcBCWo9aSsvERABERCBliUgQW3ZplXFREAEREAE6klAglpP2spLBERABESgZQlIUFu2aVUxERABERCBehKQoNaTtvISAREQARFoWQIS1JZtWlVMBERABESgngQkqPWkrbxEQAREQARaloAEtWWbVhUTAREQARGoJwEJaj1pKy8REAEREIGWJSBBbdmmVcVEQAREQATqSUCCWk/ayksEREAERKBlCUhQW7ZpVTEREAEREIF6EpCg1pO28hIBERABEWhZAhLUlm1aVUwEREAERKCeBCSo9aStvERABERABFqWgAS1ZZtWFRMBERABEagnAQlqPWkrLxEQAREQgZYlkGtBXbdunVu7dq1bv36927BhQ8s2giomAiIgAiLgXJ8+fVzfvn3dgAEDXL9+/ZoOSS4FFSFdsWKFYz9w4EDXv39/D7rp6KrAIiACIiACZRPYtGmTW7NmjTekiLT11lu7QYMGlR2/0QFzJ6gI6euvv+622morv/Xq1avRjJS/CIiACIhAnQmsXr3aLV++3BtVgwcPrnPu3csuV4KKmK5atcpts802ski7156KJQIiIAItQ2Djxo1u4cKFfvh32LBhua9XbgRVYpr7a0UFFAEREIG6E2AYGFFlXjXvlmouBJW7kPnz57vttttOlmndL1dlKAIiIAL5JoBGLFiwwI0YMSLXi5VyIahLly71rTl06NB8t6pKJwIiIAIi0BACjGLy1AdTgnl1DRdUWafduzRWrlzpXnvtNR95hx128Cuhu5eSYomACIhA/gkw9MtIZp6t1IYLKkukEQcgyZUmgCV/9dVXuz/96U/u4Ycf7hT4He94hzviiCPcF77wBTdmzJhOfvohAiIgAq1AgD6Q51S33HLLXFan4YK6bNkyx6MxeZ9sbnTrIaSXXnqp44KC1T777ON23313X6yXXnrJPfjgg/7lFzy3+/Wvf91dcskljS6y8hcBERCBqhLA+GLYd/jw4VVNt1qJNVxQ837HUS3Q3U2Ht0R99rOfdddff71jjvnf//3f3amnnpp5h0aYiRMnOgT2U5/6lLvhhhtc7969u5u14omACIhArgjkfUQzF4LKK6aa6W0Y9bzCzjvvPHfVVVe5Aw44wP3+97/3K6FL5T979mx38sknu7/+9a/uzDPPdD/96U9LBZefCIiACDQNAXuLXl6nCCWoOb6UbrzxRm+Njh8/3t1///1lD4szJHLooYe6xx57zJHGKaeckuNaqmgiIAIiUB4BCWqEE0O+slCzIY0dO9bNmTPHvfDCCxUvNGLYd7/99vNsX331VT9PnZ2LzoqACIhAcxCQoEbaSYKaDeiuu+5y73vf+9xpp53mrrvuuuxAwVkeoWGFL9bocccd532+9rWvucsvv9z9+c9/dkceeWQQWociIAIi0HwEJKiRNpOgZgM6++yz3Q9/+EN33333+eHb7FCbz86YMcMdddRRfjESq3tZDYxj5e973/ted8YZZ7hrrrnGn9MfERABEWhWAhLUSMvVWlAZ+mSLOVbQ7rvvvs4WAd1zzz3u8MMPLxmN5z6JM2nSpJLhuuNJ2vfee6/r6OgoRIcVLnyj1P/8z/+4s846yz/LG4qpReKRpPe///3uD3/4g53SXgREQASakkDeBZUOu6FuyZIlHcmzRTUrQ2KtoUjRLRFPXwb2hJ8yZUqhTMmQa0ey0rbw2w6SFyh0JEOy9rOq+z322KNj1KhRndI899xzO5Jvw3bMnDnTn7/gggt8WROB7bj55ps7hbUf+CWLmuyn9iIgAiLQtASSBZcdyYvyc1v+ll/lm7ZQp06d6q1Q5iZ5ntOcWaj8xhIMrUCsRdJJhMyC+z2LhrBiy5nj7BSxjB9YvixG4tuw5mxe9ZhjjvGLjP7v//7P7bbbbn6ONBF3C9Zpv8UWWzhe74jj4wMsVPrEJz7hrVZ+y4mACIhAsxCQhRq5l6i1hZrOPhnK9VYdlmu5DqsVazTtSlmo1MssyXS8cn4ni4t8OZPnSjsFf/vb3+7PJ/8AHSeddFLJu7VZs2b5sFip1GGvvfYqxKXsyRxtp7T1QwREQATyTCDvFqprNLy8CaoNEcOFoV6EK70ZsyxBTSxgL14WhzCViLel/aMf/cjne9lll9kpv7cbgm9+85udzmf9sPL/7Gc/K3gj8slrDDtGjx7t009WBnckFmzBXwciIAIikFcCEtRIy+RZUBEfRAlRxMrjmM1cWlAJTzjOE+62227zc6yIK/OflTi4JO/l9WlxEYUuGQYOfxY9phzJoqQOypV2nDvooIO8qNZqHjidp36LgAjkn8CCBQs72MpxK1eu6pgzZ145QasSRoIawZhnQbWilzvka+HSAoaYIqrUtRJ38cUX+3iVijF5mKWdPH5TNEsuThPVrEVXRSPKQwREoCUJLFq0pOPhhyf7LSaqiOnkyVN82Hnz5teFhwQ1grlVBJV6FLNEbZg2eXl9hEZnb9LEyiTdSoaNGSYmDnGTr/l0SjSZ1O+48MILk3+Ch/35l19+2VvVWNaVCn6nhPVDBESg6Qls2LCh48knn46KaiimTzzxZMeaNZ1H0WoFQoIaIdsqgmqiaUO+iFm4VSqKhu3FF18siCpDs2nr18KxX7RoUcfnP/95L6YmqGF4xDR5i5L3v+iiiwpRzZqVlVpAogMRaFsCMVFtlJjSIHkX1JZ/bCYRlk6OlyXwGEwiIpnfDOXzZ/glbVeIV85jMzyOwyMpxx9/vH/ZQyFycHDYYYe5ZFg4OFPeIY/s8KjMs88+6wYMGOAmTJjgSOstb3mL/wZqIpr+6zJ33HGHf+SHR254c9IVV1zhElF3idi7nXbayZ144omOMB//+MfdL37xi8Kn3XhMaNiwYf71hLymUE4ERKC9CfCo3dNPP+dfGAOJ3XYb60aOHOFWrVqdnJ/u+53kmXj31rfu6fr371c3WHpsJnKf1yoWKvVIrqqKFx9F8HTyZqETVi/5ZG2JaHZ897vf9XdxRPzWt77lwxHHLNNETDNX9RKGTU4EREAEIJC2VFl8ZHOm9RzmDVsj7xaqHpsJWys5TqxTL0LhaRYbMZSbdghQuELWwoXDrMRhOJhw4duX0mlV8pt0klcO+rKOGzfOl/fRRx/NTOL8888viO8HPvCBLnOqFin53qp/C5P91l4EREAE0qLKgqVGiSmtIUGNXJPNYKHaKl1EESvRXFpQETosR84zH0lYBNrmVS1eNfef/OQnfZ4sLko75kyTIeiCoFKutNhbnHe84x0dW2+9tf3UXgREQAQ8gVBUGymmFEaCGrko6y2oiJ4JXlbREEL8Q4cIYX3aMKv5ce6cc86xn35P+mFYxBQhpp61cCb2WMGhC8WUYd5w5W+WqFLOZO41TELHIiACIuAJIKrTp79Qt9W8xbBLUIuReeN8vQU1UpyqeVOvLOGqWgZvJISQIvTpNyeZZRrOmTK/ahZ0WLbJkyf788m7jatdPKUnAiIgAlUjkHdBbbtVvomgtJRbtWqVX8FLpRKR9C/1T6xkt//++3dZzUuY733ve+7rX/+6Syxrl1jjnHKnn366S56RdX/5y1/8Cmh/Un9EQAREIGcE8r7KV4KaswumO8WxR32S4d/Ct1kfeeQRd+CBBxYejQnT5cPje++9txdfvljzwQ9+0CXD3F2+phPG0bEIiIAINJqABDXSArX+wHgk+5bw3rRpk0u+n+qSl0D4Z2j50Hg5judbDz30UDd37lwfF1GVEwEREIG8EpCgRlpGghoBVKY34mgvoEheLeiSr8i4HXbYoWjsX//61+6ss87yL4L4r//6L/e5z32uaFh5iIAIiEAeCEhQI60gQY0AqsA7FFWsTd6u9NGPftTtvPPOrm/fvm7BggUueYevS76C4+677z4/5Dtp0iSXrEKuIBcFFQEREIHGEJCgRrhLUCOAKvRm+Pf73/++S7556hDYLJd80s2LaPI1G6dh3ixCOicCIpBHAhLUSKtIUCOAuumdrFP3VijvLp41a5ZPJXnW1K/+PfbYY7112s2kFU0EREAEGkJAghrBLkGNAJK3CIiACIiAJyBBjVwIEtQIIHmLgAiIgAh4AhLUyIUgQY0AkrcIiIAIiIAnIEGNXAgS1AggeYuACIiACHgCEtTIhSBBjQCStwiIgAiIgCcgQY1cCBLUCCB5i4AIiIAIeAIS1MiFIEGNAJK3CIiACIiAJyBBjVwIEtQIIHmLgAiIgAh4AhLUyIUgQY0AkrcIiIAIiIAnIEGNXAgS1AggeYuACIiACHgCEtTIhVAtQS323tpI9vIWAREQARFoEgLr1693GzdudHvttVcuS6wPjOeyWVQoERABERCBNAFZqGkiqd/VslBTyeqnCIiACIhAixGQoEYaVIIaASRvERABERABT0CCGrkQJKgRQPIWAREQARHwBCSokQtBghoBJG8REAEREAFPQIIauRAkqBFA8hYBERABEfAEJKiRC0GCGgEkbxEQAREQAU9Aghq5ECSoEUDyFgEREAER8AQkqJELQYIaASRvERABERABT0CCGrkQJKgRQPIWAREQARHwBCSokQtBghoBVIb3pk2b3P333+/+3//7f36/ePFi9+qrr7qhQ4e6UaNGud12282dcMIJ7phjjnFDhgwpI0UFEQEREIH8EZCgRtpEghoBFPG++uqr3Xe+8x0voJGgbscdd3RnnHGG+8Y3vuEGDhwYCy5/ERABEcgVAQlqpDkkqBFARbz5GMDpp5/u7r33Xh/ikEMOcR/60Ifcu971Lm+R7rDDDm7JkiVuzpw57qGHHvLWq4UdM2aM+9WvfuXDFklep0VABEQgdwQkqJEmkaBGAGV4P/PMM+6f/umfvFgijj//+c/dEUcckRGy86kZM2a4k046yU2ePNl7XH/99e7UU0/tHEi/REAERCCnBCSokYaRoEYApbyxTBFP9kcffbT79a9/7edKU8FK/rz00kvdxIkTfZg777zTp1MygjxFQAREIAcEJKiRRsijoCJWd9xxh7feWNhTyk2dOtV777vvvqWCVc1v3Lhx7vnnn3fHH3+8u+2227qdronqsGHD3BNPPOGwdOVEQAREIM8EJKiR1qmHoN53330OAYk5xBOR+vCHP+xuv/12d9VVV7lzzjmnZLSxY8d6MbrnnntKhquG5+WXX+6+9rWv+fwee+wxN3LkyB4l+5GPfMTXl+HjP/7xjz1KS5FFQAREoNYEJKgRwvUQVMSR1bChY4HOmMQqYzPH8XXXXefF9IYbbnCTJk0q+J933nn+/MyZMy2439dLUDds2OD22GMPP9SL6GOhph2Py1x22WWOsrMgacSIEe7YY491V155pRs+fHg6uIM95Wf/4IMPuoMPPrhLGJ0QAREQgbwQyLuguo4Gu6Tj71i5cmVdS5GIYkdygXQkVmvZ+Z522mk+TjpCIsIdhx9+ePp01X8nQu/zP+igg4qm/fGPf9yHoW69e/cuHJcqHwwIn1jiRdOVhwiIgAjkgcDatWs7Fi5cmIeiZJahF2cbefdRDws1XT/mSLHMGAa+5JJL0t7eCsSCxQqkfBxj9bHHgsXhxxBxMQuVsNOmTfPxsXwPO+ywgrXbJcMyTvBiBl7cUGplLhbp4MGDHcPP5Hnrrbe6E0880ac+a9Yst/POO3fJ6W9/+5t75zvf6bbffnv3yiuvdPHXCREQARHICwFZqJk6/ubJPFqoZg1iySbi5C245ILqtMcPlwhXFwvVrL5EcL0/cQk3ZcoUH6c7f/baay+ff/LITNHolCkRxYL/iy++WChzcmNQOJ8+SMTUh7M6pf31WwREoH0IrF+/oaLKVhq+osRTgfNuoWrIN9Vg/AwF1bzLHfK1uAyhcrOAQ6gQVDY7Z+mWs9+4cWNBGMsJTxjyTFYe+3ix4dzkpRA+3AMPPFBu8gonAiLQggQQx2nT/tHxwgszy6rdnDnzOp544smONWvWlhW+p4EkqBGCebdQrfjlCioihnCmnVm6yZBt2iv6e+7cuV7wkvfyRsMSwAQcy/gDH/hAx/Lly0vG+9SnPuXTp4xyIiAC7UtgwYKFHQ8/PNlvMVFFTC3svHnz6wJNghrB3EqCSl0QsWR+tQNxCrdkZa73O/fccyNEunojkDZs3NW36xnyIHzyWExXz4wzyWMzPjzllRMBEWhvAnPmvFwQyheKWKqhmBK+Xk6CGiHdSoJqwoeYFduwdCt1lm6W5ZuVFqt6yb9cgbSh4UcffTQrOZ0TARFoMwKlRLVRYkoTSFAjF2IrCapZqN2xQkthqlRQk+dnO1jERLyYszL36tWr7o8vxcomfxEQgcYRyBLVRoopJPIuqHpsJuOxGR5N4UsuiSC5xCpMjD3nf3M+aVP/2/6kH5tJ/7ZwPdnbYz6UhTJV01ldE6vWP25TzbSVlgiIQHMTmDt3nmPDDRo0yK1atcofjxq1Y/Kt5R39cT3/6LGZyA1Ws1mo6UdfGIYNX5xgj8ywD52d786iJCzN5KLNXOwU5mHHp5xySsfuu+9e1mM6ycfHfdrdKZflp70IiEDrEggtVRYh1XPONE017xYqFldDXbMIqj0OY8Jmw6lpQQVm8km0ggAitjyPSrzkJRLdYl2JoL766qs+L/JLi3o685/85CeFcm7atCntrd8iIAIi4AmYqDZSTClI3gW1LYd8efsR7/bl7UUMdaYdX5DhazO8GJ+3IZnjncC8aB/HG5bwIx326e+KMpRqb0rCf8KECZl5Wdql9pUO+V5xxRXu8ccfd9/+9rcdw8RZjjTf/e53u/nz5zvKmi5/VhydEwERaF8Cy5evSN7EtnVDAeR9yLctBbWhV0Q3Mq9UUGNZkJ59U/ULX/iC+9GPfhSLIn8REAERaDgBCWqkCRrxLt9IkXLnXU1BxfJOHt3x7xjmG67JnHDu6qsCiYAIiEAWAQlqFpXgnAQ1gFHksBqCysv6J06c6F/wTzYnn3yyt0zDIe0i2eu0CIiACOSCgAQ10gwS1AigxNsEFfFLnnGNR0hCJIuM/PwoX5C5//77vUVKRNJAWL/85S+XlY4CiYAIiEBeCEhQIy0hQY0ASrz5cDifZuuJS76j6pL3+rovfvGLnRZa9SRNxRUBERCBehKQoEZoS1AjgN7wZoUxrCp1I0eOdAcccID/3mmlcRVeBERABPJEQIIaaQ0JagSQvEVABERABDwBCWrkQpCgRgDJWwREQAREwBOQoEYuBAlqBJC8RUAEREAEPAEJauRCkKBGAMlbBERABETAE5CgRi4ECWoEkLxFQAREQAQ8AQlq5EKQoEYAyVsEREAERMATkKBGLgQJagSQvEVABERABDwBCWrkQpCgRgDJWwREQAREwBOQoEYuBAlqBJC8RUAEREAEPAEJauRCkKBGAMlbBERABETAE5CgRi4ECWoEkLxFQAREQAQ8AQlq5EKolqCuWLEikpO8RUAEREAEmpkAgrpq1So3evToXFajV0fiGlkyCWoj6StvERABEWgeAgjq6tWr3ahRo3JZ6JYR1FzSVaFEQAREQASqRkBDvhGU1bJQI9nIWwREQAREoMkJSFAjDShBjQCStwiIgAiIgCcgQY1cCBLUCCB5i4AIiIAIeAIS1MiFIEGNAJK3CIiACIiAJyBBjVwIEtQIIHmLgAiIgAh4AhLUyIUgQY0AKtMbjtdcc417/PHH3cqVK90hhxziPv7xj7sxY8aUmYKCiYAIiEC+CUhQI+0jQY0AKsP73nvvdaeffro79dRT3Qc/+EG3YcMG98wzz7jLLrvMfeYzn3EXXXRRGakoiAiIgAjkm4AENdI+EtQIoIj3Sy+95N73vve5O++8s4s1ytujDj30UPe1r33NnXTSSZGU5C0CIiAC+SYgQY20jwQ1Aiji/clPftJ95CMfcR/96Efdo48+6r7xjW+4wYMHu+uvv94NGzbMzZs3zx177LF+KDiSlLxFQAREINcEJKiR5pGgRgBFvMeOHetmzpzpQ916663uwQcfdAsWLHBHHHGEO/PMM/15jn/84x+7t7zlLZHU5C0CIiAC+SUgQY20jQQ1AqiEN9bnJz7xCXf//ff7UAgqItqrVy93zjnnuEsuucSfZx7105/+tDv88MNLpCYvERABEcg3AQlqpH0kqBFAiTffL5g2bZpbvHix22mnndyee+7pI3FxcRxaqP/4xz/chAkT3Nlnn+0eeOABH+4DH/iAu/jii9273/1u/3v+/Pl+0RI/WA28xRZb+PP6IwIiIAJ5JiBBjbSOBLU0oO9///tu0qRJXgwHDhzoxZOFSL/85S/9OYZzJ06c6BcfMdz7pS99yfXt29ddeumlfsUvYQmD6D711FNeaHms5m1ve5tbuHChe/bZZx3zsP/6r//q45UujXxFQAREoHEEJKgR9vUQ1GVrOtw/5m2KlGSz90G79nH/edc698u/bHRXn9nP8buUO/mna90Ow5y78sT+pYJ12+8vf/mL23///d3QoUMLaZhIfu9733PMoSKIf/rTn9zcuXP9cO/BBx/sw65fv9597GMfcx/60If8cO/JJ5/svvvd73YZ+kV8X3jhBfff//3fhTx0IAIiIAJ5IyBBjbRIPQT15sc3uCtuXR8piXNDh/Vyd31tgJv4u3Xud3/d6C44oa/72AGbh0P/+PQG93Qiyl85ql+ndI7+3hq3bRLvf86srqAimogp85/mbr/9dnf88cf7nyaqU6ZM8WJ63nnnube+9a3u9ddfdyeccILbcsst/YseOP7mN7/pdt11V58eL3pYvny5u+2229w222zjrVgSPOuss9yBBx7o/vmf/9my014EREAEckVAghppjnoI6pzFm9ycpW9+R315YrFedNN6d+j+vd1H3xBMijl4QC+39469fYmfSsTTjjnx1VvWuvuf2OQmf3ug97c/tRJUXtTA4zA88oJDTD/84Q+7JUuWFKxVHpFBKD/72c/6Yd2f/exnDqHFEmUREpYpz6Hed9997sorr3S/+c1v/Md59957b3fcccc52CPY733ve92rr77q83vooYesatqLgAiIQK4ISFAjzVEPQU0XAYH9yOVr3UlH9ulicabD2u/uCirDzUMSoa7UveMd7/BCiKWJ48UMiN7RRx/tLU7O3Xzzze6RRx7xc6zMk1533XVeUG+44QZ/TBgcz6TOmjXLr/plJfAf/vAHh/imXfgITtpPv0VABESg0QQkqJEWyKOg/ikZ3r3idxvcz8/o5y3bS5Lh4tWrnVubiCPDwjj8Rg/v7bIsVAT760mc2a90FOIcs19v95WjOw8Xl0Izfvx4//aj7bbbzoskYscjMSw8evrpp31UxJF3937729/2Fmq5gvr73//eCy7scTY/K0H1OPRHBEQgpwQkqJGGyaOg2pzr/17Q3w0e1Mv98R8b3R2Pb3TPz9zkzk/mVXHvf1sfb3mmBRUx/cy167wAf+Tg3m6nYb3dYy9u9MPFHzqoj7vk2PJE9V/+5V/c7rvv7uc0sTAZtuXxl8svv9zPjSK4DAszJMzQcCkLderUqY451nvuucc/gsNjNZs2bfKLmC644AK/qGnGjBk+L94LLCcCIiACeSSQd0Glg22oS+YEO5LHOOpahtmLNna84xurOq68a21mvr/623rvTzhzX/n1Gn/Oftv+qO+u7jj5p2vsZ4eFC+Pieelv1/r4f52xoRC21MHs2bM7kkVGHcmzpx3JIy8dcMJxvHr1ar9PBLcjeRG+P5+8tMGfS0Sz47TTTvPnwj/4J0O9hVN//etfO5IXQxR+J4udOhLhLvzWgQiIgAiEBObMmdexfn15/VcYr5rHa9eu7Uge96tmklVNS4KagbMngnrwpas7zrzhTYG15E3Er3lgnZ2K7pPPsXUklqgXyjAwornvvvt2/O1vfyucDgX1qKOO8uKI+JrjeJ999ukgzdAtWrSoI5mf7UheoB+e1rEIiIAIFAi88MJLHQ8/PLlj2rSnGyqqeRfUXhBrpGmf9yFf5klx5SxKssVOzLOOHNp1IRJDxqwsruSZVeY7zz33XDdq1ChfDhYmbb/99o4XPrz97W/35/gTDvnyGTdW7/7v//6vXwXcv39/953vfMeH5SUQzMOS3rJly9yaNWvc5z//ef/Ch0JiOhABERCBNwjMmDHLvfbaawUegwZtmTyiNy55w1rpZ/QLEap4kPchXwlq6rlS2j6cQ+2OoO4xtrd7x65dBZW035o8lvP+t25+tpXf5TpeeL9q1Sq/gMgWEYVxQ0FlBe9NN93kRZbnS5977jm/Eph4iC3fR50zZ47r06ePGz16dJiMjkVABESgQCAU0+HDhyWvP13i/RolqhLUQtNkH7SShUoND5m4xr3rrb0qskKzyRQ/CzPe2ZsM4bqtt97aBzRBxY/nTXl3r53j2dSrr77av8xhv/3283te8CAnAiIgAsUIhGI6atSOyajWjomlusjNmLH561aNEFUJarHWeuN8swnqny8Z0Om50vQqX15FyOMyvzx782M1Vn2Gg6+6e71/kUTsdYYWJ2ufLEhy73nPe/wrB3lhPm9TQhxNPEOh5HnTY445xr8k/+c//7l/VCYrXFY+OicCItC+BLLE1Gg0UlQlqNYKRfbNIqj/+efk/b53b/RzoAcm7/ct9tgMb1j63DXrXPIee3fmkVu4Ucl86tMvb3I3P7zRE7DnV4vgiJ7GMuV5VN5oxPzqhRde6C1OHqHhOdRQUMPE+MIMz7RKUEMqOhYBEUgTKCWmFrZRoipBtRYosm8WQeWNR1+4aZ177sXNL9nnGdVSL3b40v+sc8lTKYVaj9u1t/vOR/v6OIWT3Tjghffvete7/DOofKItWb3rTjzxRJes1vXPmRYTVMuKVxgmK4ILL3Ow89qLgAiIwJIlS9306S94EDbMW4xKKKqjRu2UDAnvUCxo1c5LUCMoGyGokSJFvct9nSDhlq/q8C+H6M7rB4sVhM+uYWn+6Ec/8u/qZY6U37woP2vBUrF0dF4EREAE0gTmzp3nTyGoMYeoLl++wu2225hY0Kr4S1AjGJtRUCNVqos3IsrL8vlqTMwqDQvECl++mcrwr5wIiIAINBMBCWqktSSoEUAlvJlHPeWUU/x8arkCedhhhzneATxy5MgSKctLBERABPJHQIIaaZNaCyqLhK77a/xbqJFiVtX74uR9vtUaAv7BD37gWME7efLk5EHr0s+3PvbYY+7LX/6y/0JNVSukxERABESgDgQkqBHItRZUHle55YkNkVLU1/ufD+lbNUGl5Jdeeqn/PBurfIs5hoj52DjWaSVDxMXS03kREAERqDcBCWqEeK0FNZJ9y3jHXtjwr//6r/6tSJ/73Odaps6qiAiIQHsRkKBG2luCGgFUpnfs+VI+B8cn3z7xiU+UmaKCiYAIiEC+CEhQI+0hQY0AKtObFb+TJk0qOpyLoB5yyCHugx/8YJkpKpgIiIAI5IuABDXSHhLUCKAyvZcvX+4GDx5cNDQXYr9+5X3cvGgi8hABERCBBhKQoEbgS1AjgOQtAiIgAiLgCUhQIxeCBDUCSN4iIAIiIAKegAQ1ciFIUCOA5C0CIiACIuAJSFAjF4IENQJI3iIgAiIgAp6ABDVyIUhQI4DkLQIiIAIi4AlIUCMXggQ1AkjeIiACIiACnoAENXIhSFAjgOQtAiIgAiLgCUhQIxeCBDUCSN4iIAIiIAKegAQ1ciFIUCOA5C0CIiACIuAJSFAjF4IENQJI3iIgAiIgAp6ABDVyIUhQI4DkLQIiIAIi4AnkXVD/fwAAAP//aYKi+gAAQABJREFU7Z0JnBTVubffWVgGRNlc0EFEIygmgjF+ETSJAhpvhGhMhOg1EY1AwBhFogmgQVyIV8EtRoIbEHPNBY2awE2MAsaogFdlUUEhKsqwqezKDAMz09/5n+G01dVV9XbDTHfNzP/8fkNX11nq1NOlT7/nnKouSJgkeUzbtm2T5s2bS6tWrfLYCx6aBEiABEgg7gR2794tn332mXTo0CGWXS2gUGP5ubBTJEACJEACPgIUqg+I/y0jVD8RvicBEiABEggiQKEGUfHso1A9MLhJAiRAAiQQSoBCDUVTm0GhKoCYTQIkQAIkYAlQqMqFQKEqgJhNAiRAAiRgCVCoyoVAoSqAmE0CJEACJGAJUKjKhUChKoCYTQIkkFMClZWVsmPH51JdXS1VVVVSXFxsbusrsbf2FRcX7VNfduz4TN5//yPp0aObtGjRPOs2PvqozPSlWo455qiM6uJ4lZW75eCDO5hziT72okWv23YPPrhjWtvZHjetgTreQaEqQOMk1PLyclm2bJn07NnT/sczefJk6d+/v32vnEZK9pQpU+x9UoMGDUrZr71ZuHChLFmyREaOHKkVTcnfvHmzoO9IuD8rk3t6ly5dKrNmzZKJEyemtIU3aAvngP537tw5LZ87SKAxEoCA3n//QyOgHdK6davkf0cQ686d5Vawhx12qJSWdko5/ZUr3zf/zVSk7MObAw88IClASG3FipVy0kknhgoV7UC2Rx2V/t8c+gXR9+jRPXmc2n27k++xUVRUJN27HyNr1663IkV5/7FxnmjLJfSrtPRw0982bldyO+i4yUJ52KBQFehxEirENHbsWBk9erR069ZNhg8fLkOGDJHevXunnQWEVFFREZgHEUNsqIuEdletWmW3g/5BWRxvzpw5smDBgkDJ+etBevPmzZP58+dbAaIN9Af7sT1w4MC0vqEfLgUJtaSk9lu4n4Orw1cSaMwEVqxYlZRWUBS5YcMn8tFHa4wku9rIz7FAPSS/aBHNui+3fqm5ut5XtIPjBkWhQWJbsuRtK22vCCHU9u3bRgp148ZPZMOGj72HTtlGH5y4g46bUjjHbyhUBXiuhYrIq6ysLK1XiNT8IokS6owZM2TTpk1Wvv7G/EKFvCC/tWvXCqQF4SFBsqWlpXLaaadJ3759sxLqLbfcYgUKaaMN9x8uhIooG9EnIm0ndRwP5xOVUBZfHvwcouowjwQaC4HXX18qhx12iI3Wws4JEmvX7qCUKDJKhK4dJ9SjjjrSRpGQoF/a/nbw3zKGeZHWrt1g/k0kRYd96Etp6WFG7ulDtVERKuq6hEgVESuSV8zoL1LQcW1Gnv6hUBXwuRYqZIpIziVIbfbs2TJ16tQ0kdSVUN2xxo0bZ4U1YMCA5LEgcifYTCNU9BnSvuGGG0KHZCFxfHnwtu/6gVfHAcd2x4dI3d/06dOTkbq3HrdJoLES+PDDMtm6dZsV6sFm7tGbIDbIZePGjXLiiT2SX2BRxi9Cbz237YSKoeSiomJzjE4pAsOw8muvLbGyPeWUk2w1tOuGZpGPeVwXOaIAhFpcXGjbc8dp3bpEunTpbPq63v61aNHSZlVW7koZbsb5rFqFoepyey7uOBguRv8wDIwUdFybkad/KFQFfK6F6u8OJAb5QE7+yCxfQnVRZTczDByUIMNbb701UqhOun6hIkqGjF2kjHL9+vWz86WIasECCSzc0HdQH7iPBBojAYjo0083W5E5GeE8ISREcKWlqXONyMtGqGFzqG4YFgI74ojDpVOnQ9B0MgUNvWpDvlu2bLOR9M6dFXao2ntsfDn49NNN8pWv9DBSLrLHwRcK7HNCx86g4yY7lYcNClWBnm+heodnsxEq6qE8hOVP3ja9eZlEqIiWXcQY1LZrzw35jhgxIi1KhSQRYWJBEfK9CXPEffr0EUTJSDgHyBlzrhh2dvu8c8l2J/8hgSZEABEcojckCKd58xZJ8fgxQKgo3779QTYL2xAj/iCzo44qtZFn2KIkDLm+9dYKG1mi7tq16+SEE7qnRMFBYtufIV8sgMJ5eedrXRQN8bohX3y58A81+88/l+8pVIV2PoXqBIpIEBLDUDAiNBeZhUWo+A9t1KhR9syChl33R6iZLkpC3yFfrAzG/CnmUdGvLVu22H4h6oQg3dwqdrrz9fcZQ8OIWCFVlMEfh3wtRv7TBAggksNQb7YJQ6uQ0saNH1txeutjfhS32+C1TZs29r/NIKHi2B988KGZl22blJsbri0tPcLO6eIYYUJt0aKZPQ5E7ESOOV7UgRSDVvminzgGFiadeOIJyblcF7WiDo6HhKFgnIN3qNlm5OkfClUBn0+hQhqI5iASJAgJw56aUCExF0kiCvTfHuMXKgSFdNddd8mxxx5rI0QnLdQtKCiw+7GYKFOh2gbNP+gzhnHxitSxY0fzTbl9ikhthvkHZVyU7PqMfqC/YFBWVsYhXweLr02GAMTjIrJsThq30EBcmaZaObVIFkf0+tZby400D01Z5IQCiAzRJxdBBgkVIodEkVq0qG0Xc6iIppEXJVTUwRAvymFou7q6ykbR3bt/yfy/owTZNgUd1+Xl45VCVajnS6gQIuZPvXOMkIt3qDMoQnUCwrApIlvIyB/x+YWKFcEQpUtuSBdRIQSIV0SUmQgV0vMuqnJtRr2ifXc/KeT7wAMP2OLYj4jWvxrYzyGqbeaRQGMkAPlhyBbCgjSjhnxx/pAXItBTT/1aIA6X753HREHXfmAlz85sxVYbrVZZ0dYOPZenLIJyTaMcvmgjCnVSdnl4xYMdMCTdrdsx3t1526ZQFfT5ECpuYUEkiqjMzSWim36R+IWKCw+yhNAgUQynuttwENU6UfqFqiBIZmeyyhdto59I6Af65I7rGkK+d1/QXCoicyTvLTfe+jgOFkfhSwMTCTQVArUreRH51coI510r1iojpAPTVuc6Lk6YYUOjePDDhx+uSVlp6+riFfOwuH8Ut+0EpSihLjJPOsok+WWOOhAqFkSh//h/Cc4bqfbpUK3s/bYHH5y64tkWyNM/FKoCPpdCxQUDaUGofpmim1FCRR4iO0R0kKkTlpMs9l944YV2ODdMqNqTkDIRqhcn2sOwdVSU7S3v3UakiqgZc8ZOzG4uFgJGxOzO0VuP2yTQWAl8+OFaM5e61Q6z4r8F73AuojSsgMXcI6TpvWcTPJxQg6I85DspB0kN+VhgdPDB7e0qYrz3JzwKEbKDdP3J3fLi3+/eo+77768OlPmSJW/ZYrWrlw9wVWxUivldDAl36XJk2qrjZMEcb8RdqJLIczIXcGLnzp056QWOM2nSpMTKlSsDj2ce1JAYNmxYMh/bRjq2LOqMGTMmYYZcA+vOnDkzgfpIOMa0adPstvcfM8xs2/Du826jflj73nJuG31DH91xsd9/Dq6s9xXHQD300Tzq0NZxx8Z7nCf+cvW5ePvGbRLIF4E331yReO+91ZGHX7jwtcQnn3yaVmb79h0J5IUll79rV2VgkcWL3zL/7a8LzNvfnWHHRl/Q5y1btoYeAjzefHN5aH6uM8yXh5T/3+X6+NrxClAgx18yUg6Xywg15cABb6Ii1IDiobvCItRsI9DQA+zN2NcIFcPdiEzDbstB1I1VzBjyDXrsotYv5pNAQyTgVr7iaUZYdZsaoVaaVbGf2qej4d5NzDl6k4tQ93XIFxEqFhThuFHJ36+osi7P9S0oOnYRKhY/eaNyDAVv2rTZRuQdO3ZIWzTl2s71a9wjVArVc0XkSqgQVVTCUGsmw637KlRXD/PHWFzlPRYYYEgcZbxD21H9ZR4JNBYCWF2LYU48DN+b3C/OQLbeVbCuDFbsrlr1nnsb+grh+mWMwrgvFMPCWsLiIK/otfLIjxIqhrLxRQJl/EPHGNaGwDt1OjSTw+SkDIWqYI5ThIrIDCttsRAHkvEvSlJOJZkdFqHiQfZz585NlgvbwC/cuIcshJXBfifGfZlDRV3MobrFSThfyNTNow4ePNguWIo6PvNIoDET8AombG60oZw/ziWTc3DnnEnZfJw7hapQj5NQ/V2FYHBrCSSTTTJzlLaON/LLpn6mZfEFAAuK/MfJtt8o75K/LbefryRAAiSQbwIUqvIJxFmoSteZTQIkQAIkkEMCFKoCm0JVADGbBEiABEjAEqBQlQuBQlUAMZsESIAESMASoFCVC4FCVQAxmwRIgARIwBKgUJULgUJVADGbBEiABEjAEqBQlQuBQlUAMZsESIAESMASoFCVC4FCVQAxmwRIgARIwBKgUJULgUJVADGbBEiABEjAEqBQlQuBQlUAMZsESIAESMASoFCVC4FCVQAxmwRIgARIwBKgUJULgUJVADGbBEiABEjAEqBQlQuBQlUAMZsESIAESMASoFCVC4FCVQAxmwRIgARIwBKgUJULgUJVADGbBEiABEjAEqBQlQuBQlUAMZsESIAESMASoFCVC4FCVQAxmwRIgARIwBKgUJULgUJVADGbBEigyRN4+KU9sm57QsYPaF7vLJavr5HtuxLS5+giedtsT5yzR/7rB82kc/vCej+2dgAKVSHUWIS6efNmKS8vl86dO8vatWtl7ty5MmjQIGnVqpVCIDp7/vz5smnTJtuWtySO16FDB++ulG30paKiIrJMSgW+IQESyDmBZ1dUyY4KkUEnF6cc+665u+XsHsXy5cNrJTb6iUrZuE3kv4e2SCl31h27ZNvWRMq+oDf3Dm1uBRmU59+HY7+xOmGPteCDarn6od3y1HUtKFQ/qID3BQmTAvbnbFc+hDplyhQpKytTz7F///7St29ftRwKzJkzR1auXCmjR4+WVatWyeTJk2XixImRQoP0Fi1aZEVcWloqvXr1SjvWjBkzrFDRrkuQ6dixY+2xunXr5nanvC5cuFCmT58uU6dOTdnPNyRAAvEhECbKU8ZUyHUmKnSiDStXtqUm8mTKtiWsEP1CvfjByrR6B7QUefDHLYRCTUOT8Y4mKVTIFNFbVILIevfuLQMGDEgWgyT9CVHikCFDshYqpIj20A/IFBLu2bOnjBw5MuUQFGoKDr4hgUZFIEyUmQpVgwHhXnBnpfiFOvONqpSq85ZXy07jWETAFGoKmqzeNEmhZkJo3LhxVqaQqkuI+rxp6dKlNrpE9JhthIroERK94YYb7LAwBHvrrbdaqXbv3j15mAULFtjtoAg1WShigxFqBBxmkUCeCdS1UNHe983wMeY/kTAHetlvK2XaVS2Sw8dBpzz8sUrBWCUj1CA6me+jUA2r2bNn27lP75Dr8OHDbeTpFaofK4aOkUaMGJGVUDHUO2rUqLT2IWX0xTuM6+ZKg4SKaBbRbVBatmyZzJw5k0O+QXC4jwRiQgACfNPMV/7HV1MX/PxpXnVGQ77+0/BHtv8wc7Q3PLZH5o5vKQe1LPAXT77HXOzgPkVyxenNGKEmqezDBuZQ85m2bt2a2LlzZz67kJg0aVLCiCzZhzVr1iSGDRuWMHOiyX1BG2PGjEnMmzfPZqE+2kFCPdQ3i4nse/8/Lt9/3kH7TSSbbNe1g3a1/pnI1pZxdfhKAiQQPwLXztqV6P9fFQm8ev++9qvyxMzX9yQ7jLyLH9yVfB+24a+3raIm8da66rDidv8r71clUG/N5tpyk5+vTJx2U0Xioqm7Et+9tyIlL7KhHGRWVlaG/n81B4dXD8EI1XwJwVwmhlm986UYjvVGiv7vKv6FR4gujVztkC3mRTEcHLYoCXmIbv3DsW6xkbde1BwqVhSXlJT4u2bfoy38+Y8RWJg7SYAE8kJgX4d8Z5k50GfeqE7r879X18jhnQqkdUg0+viw1FXCaOC8+3bJASUFyRXEmEN98Z0aubhPsby7oUbmvFLNVb5ppIN3NCmhQoIYUvUn3OYCMYXdhoJFR/48CBFDt24oFkLFfGefPn3sqlzMt3rF6D2mk7FfdlgshXlUb70goeK4GNLNJEUNWWdSn2VIgATqj8C+ChX3ir5tZJdtGuy/Pef53fKn+anC5KKkbKl+Ub5JCRURG2SWbcLqW+/9pJAyBOoVH96bIduMbptxkShk7I2C3a0uXgmiv5C5E3e2fWd5EiCB+BLYV6EGnRFW9OI2GZdOMPewRs2b4mERU/9WJRf1K5Jr+3/xwAgK1RHM/rVJCTUID+SGiA/DtC5K9crTXwdRKKLGgQMHpgwRZyNUtIlhZgzZ4uEPLt1yyy1W3N5VvkuWLLH7nFBRD33OJkHaiLKZSIAE4kVgfxcl4YlGjxgxPrWgNlrFDNAh7QrkE/OwBzzw4diuhWlPOUKde57fI3MWVMuwc4tlqFmI5E0UqpdGdttNVqiIMhERQk5uOBdShVwhoH79+qU8aAH7IU3Mk/plCuTZCtUN++LBERAo+oJ9uI3G9Qft+od8Mf+KfvoTzqdjx4723ll/Hr4oeFcw+/P5ngRIID8EcD/o/5mnEQUl7+0vYZHsfz5UaeU5wTwEwt0q49pCxPrE4ip56pUa+dNVzZNPOsLTj8Y/uUeC6qAuheoIZv/aJIU6a9Ysu2gIURtuO/FGpBAs5AZBeYdkITvcO4o63mFahzxboaIe5AhBO6kPHjw47TYYv1Dd8fyviFwhYvSPiQRIoHERCBOq/zaZoLPOpIy3HoXqpZHddpMUKoZWTzrppJQhWz82lEHk6B2S9Zfxvt8XoXrrh21TqGFkuJ8Emg6BMKHiEYKfmnnToGjTDe0+vzg1QtWoUagaofD8JilUyA9zoUHRJoZ2ETWiDPK9C4TCMWY/5BvVljePQvXS4DYJNE0CYUKFNG+evds+HAIzQe4uOjcr1OXwAhl7bjPBAqVME4aE15r5VzxHmA/Hz5RabbkmKVScupMq5iPbt29vh30x9Iq/oDlUDSuGb3H7De5ldfOj3lXAWv2wfAo1jAz3k0DTIYBHCCK5X58JOnPvKt/ObQvkwFYFkat8g9rw74OwcYuOf37WXy5X7/nzbQrpfPzajLdLkCCiUiTMpTq5estku4320G7QXGu2bUHOaE9bVIR7WNF/74KmbI/F8iRAAiQQZwIUqvLp5FuoSveYTQIkQAIkEBMCFKryQVCoCiBmkwAJkAAJWAIUqnIhUKgKIGaTAAmQAAlYAhSqciFQqAogZpMACZAACVgCFKpyIVCoCiBmkwAJkAAJWAIUqnIhUKgKIGaTAAmQAAlYAhSqciFQqAogZpMACZAACVgCFKpyIVCoCiBmkwAJkAAJWAIUqnIhUKgKIGaTAAmQAAlYAhSqciFQqAogZpMACZAACVgCFKpyIVCoCiBmkwAJkAAJWAIUqnIhUKgKIGaTAAmQAAlYAhSqciFQqAogZpMACZAACVgCFKpyIVCoCiBmkwAJkAAJWAIUqnIhUKgKIGaTAAmQAAlYAhSqciFQqAogZpMACZAACVgCFKpyIVCoCiBmkwAJkMA+Elj4QbU8+UaVTL6wRVoLb6+vsfu+fHhhWl5cd1CoyicTJ6GWl5fL2rVrpVu3brbXc+bMkd69e0uHDh2Us2A2CZAACcSPwEwj00lP7pHXflOS1rmLH6yUTu0kULZphWOyg0JVPohcC7WsrEwqKirSegWJLly4UKZPny5Tp061+cOHD5fRo0cnBYudkydPls2bN6fV9+8YMWKEdO7c2b+b70mABEigTghAiP9eXRtl+ht86roW0rl9oVCofjL1+74gYVL9HiK69VwLFUJEFFpSkvqNbeLEiRkJddWqVZEnBFk/8MADaSKOrMRMEiABEsiSwPZdCdlRnvq/73+sqJap/1uVjEgp1Cyh7mfxJilUDOEOGTIkDV0mEWpaJd8ORK9jx46lUH1c+JYESKD+Cdw1d7e8uKJG/vLzlvZgmlBR6LyTiyI71qdroY12IwvlKJNDvgrofESomlAxb4oEwfqHfJXTEUSwiIIR8XLuVaPFfBIggbok4J8XjRLqhDm7ZdWG1Ag3qC9X9iuWPkdHSzeoXn3so1AVqnEU6sCBA22vZ8+enbVQly5dKlOmTEnOwyqnz2wSIAESqBMCZVtq5II7K+Xeoc2TAnRCvahfrRDP7lEsDWlVrx8Mheon4nsfR6EGLUqaMWOGLFiwwNd7/a1rSy/JEiRAAiSw7wQQnX66LSHPX1873IuWnFC/+dXaW2O+f3Kx7DBzr88vr876QEG33mTdyH5WoFAVgPkQKuY5saoXr7hVBguJWrVqJf369Qtd5evKKaeTls1h3zQk3EECJFDHBO56frf8aX61uNW9rnknVO9tMwvMvamLzF+26dr+zbOtUuflKVQFaa6FijlO/20vuL2lffv2smzZslChutPAvGomqWfPnlbSmZRlGRIgARLYVwJOpsPOLZahpzdLaSZIqCkFPG8wZIx0YKsCOahlgScnPpsUqvJZ5FqoYd2BZCFbtyAJ5cLuQw1rw+1HO9kuZnJ1+UoCJEACmRDAbTPXzdotS96pkSCZog1NqJDx66sTafeztm1XICd2LZBr+jWLzQpfnA+FCgoRKS5CnT9/vsycOTNlMRGiUQwNZzNsCzHztpmID5xZJEAC+00Ajw386UO7zf30IhN+0Cy5CMnfcJRQJ8zeLS8bGQ/uXSQXnlKcEpViWHj6y1WyemNCnvx5i5Q8/zFy+Z5CVWjHRai41SWTyBJPUopKmI/FSl9GqFGUmEcCJLC/BCDLc04oipRdlFBPn7BLLjitUMLmRoNWDe9vn/e3PoWqEIyDUHF7DKLRXr16JWUYFpViGBjDwt27d488s2wj28jGmEkCJEAC+0AgSqhuVfCjVzRPG9bFcPI9z++ROQvSFzrtQzfqrAqFqqDMp1ARkUKmGKYdOXKklJaWCh6Ij32QJu5H9YsVQsVTlrxzrcopMpsESIAE8kIgSqiIQO+Zt0f+tbhGWphFSEd2ql2IhFtvtm1NSLejCyVOD3UAQApVuYzyIVSIFA9fQMKtMn379k1ZkYtoFfecohyiVjzo3iUIFbfY+J8F7PLdK+oNGjTIveUrCZAACeScAKS5wDxAf7C5/zQsIRpdbuZkcX/qdvO7IZ3NgqTObc2febh+3BKFqnwi+RAquoQH5ONWGcgxLLnba7xRKiSbSUIdb71M6rAMCZAACZBAOAEKNZyNzcmXUJVuMZsESIAESCBmBChU5QOhUBVAzCYBEiABErAEKFTlQqBQFUDMJgESIAESsAQoVOVCoFAVQMwmARIgARKwBChU5UKgUBVAzCYBEiABErAEKFTlQqBQFUDMJgESIAESsAQoVOVCoFAVQMwmARIgARKwBChU5UKgUBVAzCYBEiABErAEKFTlQqBQFUDMJgESIAESsAQoVOVCoFAVQMwmARIgARKwBChU5UKgUBVAzCYBEiABErAEKFTlQqBQFUDMJgESIAESsAQoVOVCoFAVQMwmARIgARKwBChU5UKgUBVAzCYBEiABErAEKFTlQqBQFUDMJgESIAESsAQoVOVCoFAVQMwmARIgARKwBChU5UKgUBVAzCYBEiABErAEKFTlQqBQFUDMJgESIAFDoGxLjSxYXSPnnFAkB7UsqDcm23clZEd5Qjq3L0wec/DJxfV2vGwaplAVWnEW6qpVq6RDhw72TzmNlOyysjL7vnPnzin7c/lm8+bNgr9u3brt02Fx7qWlpdKqVaus6u9rvawOwsIk0EAI1KUEF3xQLVc/tFueuq6FlV19IZj5RpU8PK9Knr++pbhjvvabkvo6XFbtUqgKrjgJFQKaPHmyjBgxQiDD4cOHy5AhQ6R3797KWaRmow2IGHVdKi8vl1mzZrm3ka/eev6CTpT+/e69+wIwZ84cWbBggUycONFlpbyiHcivZ8+eadJE3tixY2X06NFZCXlf66V0jG9IoBERgJwmPblHleDFD1bKv030GZTuHdpc+hxdlJSbJlQn8bCo8h8rTJ/mVAUdSk4/vlCOO7yQQg2ko+8sSJikF6u/ErkW6tKlS6WioiLthCBNvxCihDpjxgzZtGmTlY6/sTChzp8/31805T0iW/Rv6tSpKfu9b9DG3Llzk7vQZ0jUpf79+0vfvn1FEypkin5CuN76aMfPAftQNiq5LwH7IuKodplHAg2ZwMMv75Gp/1sl065qIV82ogpLEOoBLUVuHNAsrciBrQrsEK+LFjWhOomHRZUQ7vKNNXLjY3vkFz9oJp3bFch4I/3TexTK5X2K7bAyI9S0jyGzHRBqPtPWrVsTO3fuzFkXZs6cmZg0aVLy7+abb04MGzbMHt8I0m6vXLnSvsd+E+UF9m369Om2jaBMtD9t2rSgrMh9OJbrS2TBvZn+/nrrzJ49OzFmzBjvrpRtnCOOhTaQ8BlgG38uz3FAPvrm/h544IEEuLn3eHX10aa3HuoykUBTJXDR1F2Jr/2qPDH5+cpIBCh37axdkWVeeb/KtrVmc3Vkuf95fY8tF1UIbaBfrq3+/1WRmGnqIaE+3iO5Y9o3MfinsrIy+f+sGHQnrQuStifHO3ItVP/pQQbXXHON3e0XVD6E6vri72fQeyc+nIM/Qahoy0nPnz9v3jwrVFcXrzhf71+YGNE2vjT4k5+fP5/vSaApEXjoX7uttPB62k0VibfWhYswbkKFbCFV/GE7LinuQm1yQ77+uN1EmnaIE/OF/qHOqCHfKVOm2PI33HCDv0k7POqfQ00rFLADw7QY8g1qM6C4oO8LFy6085zovzehLSO+5HCufy4VQ7NI6Ke/rp+Dt11sh/VTq+dvh+9JoLESePglM9T7tyq5qF+RXNu/uYx+olLeXJ2Quy9pHjj0iyHfNRsSUuJb+3Nw2wJ5fFgLi8kN+Q4/t1jalBTYoVrMrfqTNuSL8hj2veDOyuTc7ll37JKh/YplkFnNi/q/NXOsVw0olnc31MicV6olbPjYf+z6fs9FSQrhXM+h+rsDsfTp08cuPIIQMFfoFuNECRX1MBd72223pS3q8c+hYjGSW/nrP773/dq1a+1brK7FoqhBgwZ5s1O2UfaWW26xC6gwn4t504EDBybLRM2hQrQQ8ciRI+35Yv7YeyxNjPgygTnYu+++O3k8bLh6aAv9LzH/d8jnSueUzvENCeSAAKR3/9wqu8BomBHf0NO/mBOdMGe3ldM3v1oo1/Qzc5fmthSXIFSkn/VPvT3lQHN7jJt7dUI9/PACM99aIGceVyhXfOOL9l1b+yPUb5tbcp5dXs1FSQ5mlq9NOkKFVBDl+ZMmVCcO3FKCFcH+W1P8QoV8UCebBBn16tUrsAqiWEjUidCdB95Dqog6g4SKlcbYb4Z7bb/RPsSM/uJ4bnWzOz/Hwd8JfJlAGX++q+fKgwvKMJFAUyBw19zd8qd51dLt6EK50kR7YdHj4wuqZP36hFxnFgQhIkSCUDu1M4v/LqyNRoN4OaHu76IkRM+zl1TLehMRtzULkpC2ba1dm4r3V5i+c1FS0Ceg72uyQsX//CESSMVFZ04IThRhESokjLLdu3eXJUuWyI033phC2i9UZEJmQauLUyrufeNfdestg2gXQuzXr1+y38iHGM1ioeT5BAkVEe2WLVvk0ksvTZE1zgVRK84naLWz9/iQN8qCG6JurzD9/Lz1uE0CjZ0AHoiAlMlDF95eX5OMPFEnl0Jdbo79thnKdQmrfBEJH2RWGSNqRoRLoTo62b02SaFCbpAeBIf5SvfwAr8QgoTqokGIBEOz48aNS0aKDn2QUN1tKq5M1GvQrSyuPPqIFCZdnBvOB/00i4rE3c6COqiLSNSdL/YFJbQBcUPa3iFb1Me5uSHyW2+91UbEGG5G8vMLapv7SIAE0glAqP7bZsq2JaTMRI6fmacW9Tiidng4kwc7ZDLk63rwrLknFTL1RtMUqqOT/WuTEyr+p49IDjKFFL1i8gvBL1RIEfOHbqgVuJ1gBwwYkJzDDBJqJh+Nk26UUF07uB8V4otKEKeTnb8czhWRLqSLqNWJGF8SIEz/Ax+Q776EuAVOqA/xDh482B7Hz89/TL4nARIIJgCh+h/sgOHXVmaR0mFmYdL3Ti6y4qtroQZFxoieF5m54CvM/K8bZuaipODPzb+3SQnVzRdCGojcvDIFGL8QvELFvKWTqTfqQz2/WIKECiEtW7YMxUOTue3EznFmIlT0JUqoOBckJz/vQZGH6BIcvFEovmRgGBdDukguekd5nBOS/0sIhpZR3s2/Yn4VZfzzyrYy/yGBRkoAq2afWBz89KGoU77wq8Upi5Oiyjq57e8cqvcYQUL15sdtm6t8lU8k16t8EQWG/c8+SqiQ16JFiyIjPifoIKG6tiExbcgVctLKKFgDFyW5Oogq8QUhSLYog3MdNWqU/dKBaBzvsQgKc83uHF1beIWEMTTszpFC9dLhdlMgAKHeM29P1qd62WnNUuZSoxqgUEUo1KgrxOTlWqhR3fELwRuhRtXz50UJNVeyCVqU5PrpVvoiAg0SpLslJ9u++vm54/GVBEhg/wnUl1CD7n/193Zw76LAW3T85er7PYWqEG5qQkXE17Fjx0gqiKDDoujIip7MKKEi4sSQLxKOc+SRR9rFShjyXbNmjR2axlAw5oWzSRRqNrRYlgSyI+Ci4F8PbB65kjibRUmYL92xd3VyVG86m3lc732zUWXrM49CVejGSaj+riLSxH2d2coNQ6qQpndBECSmPRzfHb8uhBq0yte1714x/I2hX/TNJcgVw9LZnjPqQ6i4pcg92MG1yVcSIIHcEchGqLnrVd0ciUJVOMZZqErXmU0CJEACsSOASBa33HhvhYldJ/exQxSqAo5CVQAxmwRIgARIwBKgUJULgUJVADGbBEiABEjAEqBQlQuBQlUAMZsESIAESMASoFCVC4FCVQAxmwRIgARIwBKgUJULgUJVADGbBEiABEjAEqBQlQuBQlUAMZsESIAESMASoFCVC4FCVQAxmwRIgARIwBKgUJULgUJVADGbBEiABEjAEqBQlQuBQlUAMZsESIAESMASoFCVC4FCVQAxmwRIgARIwBKgUJULgUJVADGbBEiABEjAEqBQlQuBQlUAMZsESIAESMASoFCVC4FCVQAxmwRIgARIwBKgUJULgUJVADGbBEiABEjAEqBQlQuBQlUAMZsESKDJE1j4QbUkDAXtJ9m27/2x8INaFjRKZhSq8rHGVaj4sWz87csPbZeVldmz7ty5s3L2zCYBEmjKBPBj4FFp8MnFNnv0E5WycZvIfw9tkVYcbfzljWpZsyEhlXuFikKHdyqQL5m/a/o1k87tC1PqQdBPKsd2FY7vVChXnN7Mvc3rK4Wq4I+rUOfMmSMLFiyQiRMnKmeQnj158mTp0KGDDBkyJCUTbWaS+vbtK61atcqkKMuQAAk0YAL/+VBlsvcfrUcMKtLl8C+iSyfQMKFOmL1bnl9cI0P6Fsm3TyhKihOR6vL1NTL95SpZvTEhj17RPJmHY7xt8p5bkSrzv5t2tm1NyIDTiqRNS5SqTaXtCmXQXrG7ffl6pVAV8rkW6vTp023kGdatPn36SO/evcUv1PLycpkyZUpYNbt/0KBBgqg0TKjDhw+3ES9kG5XQjleoaA/RciZpxIgRtg+ZlGUZEiCB+BC4+MFK6dROZPKF6VFomFBPGVMhw88tjowgT5+wS4b0K4osU7alRi64s1JamKHis75aKOMHNo8PGE9PKFQPjKDNXAt1/vz5AjkiYWh26dKlMnDgwGTXMMSLvyChoq5LS5YskYqKCoGAXYKIIcsooSJqRbls0qpVq2xxRMzLli0TSNMl5M2ePVtGjx5td5WWlqbI2JXjKwmQQLwJnPfbXVJeIfL89bXh4QIzLLvI/CG9uKJGDigpSBvyPeuOXdL1sAK5c1BzCZo3RRtXP7RbrvtBs9AoE2XGP7lHTutRKGf3KLLlB/QpkstPK06JauNAj0JVPoVcC9XbnYULFwoi1qlTp3p3222/UP0FZsyYIZs2bUqKzJsfJVREsCUlJd7iKdvIR4QalIL6FHUOQW1wHwmQQPwIYAj2st/WRoh3/KiZXXyEudG/Lq4V6idmKPaQdulCRWR5+cO7zZd7kSPNfCkiXJfeM3Oqm7eKXGqi06G+OdBnzXDvqx/UyPNv1Nji3jKuTQz/nnR8ofy/roVy4SnFgcJ2x8rVK4WqkG5qQkV02r1791AqkG2vXr0C8ynUQCzcSQINmgDmO39wX6Wc2LVAjjDSxFymf84zbMgXJ+6iUAz97ti7KOnAFgUyc2G1bTNoCPmhl/fIuxtq5P8dXSTnmLnXsOj2+RXVst6IdeqP0oeh8wGdQlWo51OoEBSGS7HwyD+vGSQv76m4ec2gRUtREeq+DPm64wb1iRGqo8NXEmh4BBAN/uyPu6V8lyQlOuwPlXYh0dB+xclh2kyE+tR1LVKGaMPmZLHCd42RZLbJrTjOtl5dlqdQFZr5FCrEt3btWjuHipW13hQkL5ePOdhx48bZuVjMXfpvrYkSKhYbRQ354hhhC4uC+kShuk+FryTQsAhAbD8385vdji6U27+femvLXXN3yxurE8n9fqEi/0/zaoeDsznr135TIq5tfz0MK2OYF/0JSm7FcVBervZRqArpfAkVq2bHjh1rFwhhYY8/0gySlzsVSAyRLaJaCNK7SAhlwoTqFhe5dsJe/QuLsLoYC6iwCAoy90bT/n1hMg47FveTAAnkjwDmTr98eLDAvL3CfOq6rTVybf/a1bcYJt5Rnn2U6b8f1XsMiBbDzW5RlDcvLtsUqvJJ5EuokCkiSywAuvXWW+28pXcxUJhQIWIIEyuD3YreSy+9NGW1r1+omd7y4kWFKNbdOuNkitdZs2YJho2dVOfNm2cXRw0ePNhW98vY2ya3SYAE4kcAcrzZ3E+qpbAHLKD+E69VyTsba+QzszjpczN8jMVJmI891cyRRj1dCXWfXV5t51MXm0VKWMR01smFcsRBBSn3tWp9y1U+haqQzodQsbIX0SKGayEmbEOCAwYMSN5CEyRURIeQL5KLaFEO0SqE5oaN/ULF+0yjU4cLsne3wrh9rp/eOd+o1cauHl9JgATiSwBSe8QsEopKYbfNYLXurU9U2YdBnGwXNdVGu5+Z6BWC/ZeJOHELTNB9pd663cwK4ePME5GQEAmvNCuEF5tbdcLqRvW1PvMoVIVuLoWKSBEyxbwpZIVoziUM4yL6wz7k+YWKOg888IAt7kTs6vql6heqK+d/zbScq0ehOhJ8JYGmRcA/h+rOHveufsnchxq0khdl3O049w5tnhap4h5WrCwOq+tWDwfVdcfP9SuFqhDPpVDRFQi1f//+KTJ1XXRDs4ha/UJFHoSLYWE33Orq4RXDsRiiRV6mosyknDeydUO+mCd1w8GIjjGP6h2uRh+C+ujtL7dJgAQaDoFQod5nhGqiyzApuoVPQVLUhBpVN1/kKFSFfK6FqnQnme0XajIjg41MRIlmMimHud5sE74wuOHnbOuyPAmQQPwIhAkVEegoc9sN0unmSUfuGbyfmXnUlebZwP9eXSMXmQc7uMVM3jPbn7rednK5TaEqtCnU9IfoK8iYTQIk0MQI+Ff5+k8f86ErjFzX7b2/9EDzmEIsLMrkCUdBdTGfGvbAB/+xc/meQlVox1WomFNduXKlXVGrnEJaNoaGO3bsqEaJmZZLOwB3kAAJkEATJEChKh96XIWqdJvZJEACJEACOSZAoSrAKVQFELNJgARIgAQsAQpVuRAoVAUQs0mABEiABCwBClW5EChUBRCzSYAESIAELAEKVbkQKFQFELNJgARIgAQsAQpVuRAoVAUQs0mABEiABCwBClW5EChUBRCzSYAESIAELAEKVbkQKFQFELNJgARIgAQsAQpVuRAoVAUQs0mABEiABCwBClW5EChUBRCzSYAESIAELAEKVbkQKFQFELNJgARIgAQsAQpVuRAoVAUQs0mABEiABCwBClW5EChUBRCzSYAESIAELAEKVbkQKFQFELNJgARIgAQsAQpVuRAoVAUQs0mABBoFAfzu6I4KkUEnF2d9Pgs/qJaEqdXn6KLQutt3JWRHOUrVps7tC91mo3mlUJWPMs5CxW+i9uzZU1q1aqWcRf1lL1261B6/W7duWR8EdfG7rKWlpVnXZQUSIIG6JTD6iUrZuE3kv4e2SDaMHw6PSoP3yjeorqt31/O75e9LamSb+XHxFi0LpKREkttf71Eg1/RrJn65QtC/nRt9bNd+98MLZPyA5u5tXl8pVAV/nIQKgU6fPl2mTp1qez18+HAZPXq0eGWG/M2bNytnZb6FDhoknTt3VstpBSZPniwdOnTYpx86HzdunPTu3VsGDBiQPMzatWtl7ty5yfdhG/gSgXNgIgESiCYA2f1rcU1goXuHNk9GlUFS/M+HKpP1PlpfG112MQJzyck3qC7KYP+bqxMy4QfN5ITDC+UgI1SX3l5fI9Ne2SOvrkjI700/vmzyXSrbUiMLVqf2+eF5VVbEw88tljYlX7RzkBH0OT2yj6rdserylUJVaOZaqBDUqlWr0noFiWYiVER9FRVm3CYklZeXy6xZs9JE7C2OMlOmTPHuStt2QvYLFX2fPXt2WnnvDnwJQAoSKuqjzX79+kVG3hBq3759vc0KvmBkmtyXkkzLsxwJNFQCTna3f79Z8hTKtiXk6od2iybUZAWzcfGDlXJAS5EHf/xFBOvy3TGcYN3+U8ZUCAR4xelfHNvludfTJ+ySC04rlGv7h0eZEOwFd1baCPesrxbK+IHhZV27+XilUBXq+RBqUPSFKDAToSqnY6PXsWPHqkJdtmxZsqkFCxYIJNu/f//kPkTF6JNfqIiOvV8IIG+U7dWrV7IuolKkKKFOnDjRtp+slMGGi8wfeOABO5TsjWDRD5zDkCFDbEvoOxMJNAUCQbJzgspGqGfdscviev56Y1WTFphh2UXmD+nFFTVygIka/UI9777aOvdf0jxtWBf1Zpkh5Tuf3CO3XNJMzjkhPcrEvOsTr1XJ9PnVVrpnm0j0p+aLQNhQMdrMZ6JQFfr5EGrYEKoTqpMChnf9Q77K6UhZWZnceuutcsMNN2Q85DtjxgzZtGmTPZa/fb9Q/flB0nRlgvJchOodxnblva99+vSxw8XefW47qE9R5+Dq8ZUEGiOBuhAq5ImIFnOgN1xYbIdYsYjp+eW1QsWw7iHt0oUKcf/sj7tl/YaEHNu10Ea4bcwQ7WdmEG2FqYN0ab8iGeqLYF3bGA72l0Gbv/rzHln1QY1t82tHF8hPTH3vcLKtlId/KFQFehyF6mQD+WQrVAwJYzj37rvvjhxS9WKJklGQvLx1IU0snPJGiy4/Sqj40hAVRSIvLD+oT1Hn4PrDVxJojAT2V6gQ2OUP75bTehTKEW0LZMa8avnTVakRZ9AxHEsn41+YeVRvenxBlXzpsAKZfGH6EDKE+qoR5lk9ipJzvN662Ea//mGEvm57gouS/HBC3hckTArJy8nuOArVzf95FyXNnz9flixZojLBsCjmWN3KWjefGVURgsJiIUjYn4Lk5S0zatQoO+Q7YsQI7267HSXUfRnydQcI6hOF6ujwtakRCJIdZHSBmZPUhnwhw/FmSBbpyZ+3sFHghDm7Zc4r1XJR3yL5yTdqI8OgYzjOTqhPXdciZdgXc7Kd2kmaULHCd41ZEZxtciuOs61Xl+UZoSo08yFUzPWddNJJtmfYxh9S9+7dQ1f5Ilp1c4i2cIb/uPnMsOJoE3OuSEHRcJC8XFtu+BZzwrfddltaRBwl1LDo07WNV0g3KAX1iUINIsV9TYFAkOwyESpW4V7220o56fhCuXNQ85QhVdxO89fF1ck5U/8x7pq7W/5kItls02u/KRHUfWPvcLC3/idGsrj1ptvRX6wG9ub752+9ebnaplAV0rkWKiLNNWvWJHsFGbl7NSE3zJsGRaiuQqZSzURYaBMrdjF3i1tsIHZ/RBskL9cX9BUJYsWcp/f2GOwPEiqOgWg4k+SGvl1ZrvJ1JPhKAl8Q8MsOOZkIFeUgVe/tLNgXlPwPhfA/xCGoTtA+//2o3jIQ7d8X14hbFOXNi8s2hap8ErkWalh3vKJxIvEO+bp6mUolKNp0bbhXyBkLmDD/iWMiUh08eHDK7SphQnULqBBFQqhYZXvttdemLITyCxXlsk3euVT3ZWLevHmCuWKv/O+66y47l4vbcZAy/UKRbX9YngTiRgBCxaKhK/p9sYp2R0VCHvzfKnXIF+cCOd48e7d6Wsd3Kgy8PQbyfsJEtO+ahUmf1y76tW3hgQxfN9Fm1D2kbpXvOxtr7DngjsAeXQvkiPYFkfOramfrqQCFqoCNi1CdoFx0im4jAoQgsnlAA6Sj3TaDtlHOydKJCaKCGBFpDhw4EMWSZdzKY+xDhIm66JuLStFX3IoDObthZr9Q3dAy2vAm9AWRegkeseJLuJXHfz/qnDlzBLf6eIeE/cfyNcO3JNBoCYQNoeKEx5zbLBmBBkWyKAOpPfJy7Twq3gelsNtm3G0xGKY987hCKe1QIAealcI7TJtYdPSyud2mlbkL5y8/r70Vx9s26t43p0rwIAnUbdPqi4c5/J+ZZ8WXhNPNcHSc7kmlUL2fYMB2XIQKIUGqWmSJMlEJkS6kGNUOojvMOUJgKOeN5iArDANDlpCjk64TqhM/pOn2uf7guJCyO3amkkM5iNmJ2LUX9kqhhpHhfhIIJxAm1PAaX+SE1T3vt7tCV/KidtDQs2sV972eaKLRoFXAKOPmeL0Lq1zdfL1SqAr5OAgV0RYEB6HgPtKRI0emSM57ChjyxfCsV4LefLcdFdkiIoQYEfkhMvQn5EO2yPMLFcO2iFD9UaNrA3luhXFdCdU7HI7jgBf64RU6bhXC7TuYy3XJO1zs9vGVBJoqgTApZsIjrC5W8iI9Piz91hjsf/ilPTL1b6lDz9iPhIdCHGpu0wl6MhPyo+oiPx+JQlWo51OoEAWiLUR1mLs89dRTrcBw2wuGXIMiNggVIgnKU051n7L9Qs2mkboSKr5kaI9KDOoXmEKyTCRAArXP3fU/HD9TLmFCRQSKe1iRupp7TjH32caM7q4zq3XfM3Oqm7cGP9gB5RGBjjIPhUDKtq6tlId/KFQFej6Eiihu5syZNtJDNAd5uoVI6K4b0sQ2HunnfWhCphEqbsGpC+nGQajgwEQCJLB/BHArzLqtNZHP1A07gn+Vr78c7kVdsa5GdlR+cX/pEe3MgqQTilJux/HXw3t/3QNbFNi52N7mp+Li8HQkb58pVC+NgO18CBWRKW6fgUS9IvV2D2Xc83a9YoRsM0kQtff5upnUCSqDfmL419uHoHJB+zCnivPT+oFyKBPGIqht7iMBEiCBXBOgUBXi+RCq0iVmkwAJkAAJxJAAhap8KBSqAojZJEACJEAClgCFqlwIFKoCiNkkQAIkQAKWAIWqXAgUqgKI2SRAAiRAApYAhapcCBSqAojZJEACJEAClgCFqlwIFKoCiNkkQAIkQAKWAIWqXAgUqgKI2SRAAiRAApYAhapcCBSqAojZJEACJEAClgCFqlwIFKoCiNkkQAIkQAKWAIWqXAgUqgKI2SRAAiRAApYAhapcCBSqAojZJEACJEAClgCFqlwIFKoCiNkkQAIkQAKWAIWqXAgUqgKI2SRAAiRAApYAhapcCBSqAojZJEACJEAClgCFqlwIFKoCiNkkQAIkQAKWAIWqXAgUqgKI2SRAAiRAApYAhapcCBSqAojZJEACJEAClgCFqlwIFKoCiNkkQAIkQAKWAIWqXAgUqgKI2SRAAiRAApYAhapcCBSqAojZJEACJEAClgCFqlwIFKoCiNkkQAIkQAKWAIWqXAgUqgKI2SRAAiRAApYAhapcCBSqAojZJEACJEAClgCFqlwIFKoCiNkkQAIkQAKWAIWqXAgUqgKI2SRAAiRAApYAhapcCBSqAojZJEACJEAClgCFqlwIFKoCiNkkQAIkQAKWAIWqXAgUqgKI2SRAAiRAApYAhapcCBSqAojZJEACJEAClgCFqlwIFKoCiNkkQAIkQAKWAIWqXAgUqgKI2SRAAiRAApYAhapcCBSqAojZJEACJEAClgCFqlwIFKoCiNkkQAIkQAKWAIWqXAgUqgKI2SRAAiRAApYAhapcCBSqAojZJEACJEAClgCFqlwIFKoCiNkkQAIkQAKWAIWqXAgUqgKI2SRAAiRAApYAhapcCBSqAojZJEACJEAClgCFqlwIFKoCiNkkQAIkQAKWAIWqXAgUqgKI2SRAAiRAApYAhapcCBSqAojZJEACJEAClgCFqlwIFKoCiNkkQAIkQAKWAIWqXAgUqgKI2SRAAiRAApYAhapcCBSqAojZJEACJEAClgCFqlwIFKoCiNl5J1C16RPZ/c7b0uobfWXPRx/IzsenyQFDr5Lijodk1bdtv7lRWp49QFqe/PWs6n32x0ek2fFfzrpe0EG2P3ifaesr5lzODMoO3Lfr9UVSfNTR9nxRv4Xpf7bnENgwd5JAlgQoVAUYhaoAYnbeCZS/NF8qpj0gHR59UirfeUs+v3OCHHTHA4FChXyKDj5UmnXpmtbvzZf/QEouG2nFjEyIuvrTj9PKuR1oB9LeMnq4ND/tDDnggotcVuTrrtdflfL/eVTaT5qaVi7bttAA6rQ8f7Dtt3c7rXHuIIF6JkChKoApVAUQs3NCANGjPxV1PkraXPITyUaoUcLyC/WzPz4qe5a+Koktm6WgfQd7+ERFuUhFhX3f6qLLbSQY1aa/z3jv7a8/P6gt9CsoFR17vLQdcwuFGgSH+/JCgEJVsFOoCiBm54QAJORNu19+wb6FULyC0iLUIGG5dv1CxX5EqduvHykHXHeTtDDDujjWrmdmSfvJv3fVso5Qdz77V9k16w/S7v4ZUtiqdbIdbAT1r2pvlLz73eU2EkdfijoebOsVmygZdRihpmDkmzwRoFAV8BSqAojZeSGAiLW+I1ScWKZCbXbS16Xk2+dKYesD0iTpB4S+V//7HWk56MfS+pzvpmRDjiIFUmiE6c7PFQj7skChOkJ8zTcBClX5BChUBRCz80Jg85U/kpIfXm4X72QToSIKbd73P+xQsb/j+xOhJrZuts25YVh/2+6962vxqd+U6pUr5MAxN6fM9UKOhWYou7lZWITo1bu4yCtUtIeFWEgV/zPNsLiMc6iWBv/JJwEKVaFPoSqAmJ1zAk5KRV86XgpMJJfYvMlEfCvURUlOSAXtOqYM2boT2B+hZrIoyR7//jukRb9zzQKmH8rWG6+VRHl5ilQh1LC23FAxFk4VlrSWXc/PsV2vXvshheo+RL7mlQCFquCnUBVAzM45ARvFmdW1xd172GNXrflQqt98QxUqbilJbP7UDre6OVFv56OECok1P+4EqXzj/6Ty+f+VVhcPkRojQ0SQ24wYwySI9mt27pTP/vsRqVr0LxMdf8dEx5fbw3r3u/5ECXXbPbebvi+X5r3PSImwUYdzqN5Pktv5IkChKuQpVAUQs3NKAPd87lnyWkpU5yLWqNtm3Fxo6yuvM1J81Q63tr1lcsp8p1+oGFbGit6UVFIiBSWtzF9rOzTb2kSaO8ycaJRQUX/ns7Ol2Nyqg4VN/lRphm7d/jChuv5D7BjibXfn75N9p1D9RPk+XwQoVIU8haoAYnbOCHz+9P9I5ewnBVL0zi1qQoWMIL2iI4+Sg64eYyPGrdf/VIp7niIHDft5sv9+obrVtSgQtdgoTILJhrPYwD2qRQcfknafrIuusaoZi5oKWrWy54KmKdQsALNovRKgUBW8FKoCiNn1TqCmfKfsMMO1mCctGWwWIn0z9SlCUULFvOXOh+83fSxIiWr3fLRadtzxaylo2Tq53y9Ud2K4H7WgVUnogxsyFaoV++3p99O647jXFv0HmNW/A91bcV8k3MMqbLQ6frT9QoD7cDHkzCHfJC5u5JEAharAp1AVQMyudwIYEi1//FE54Iqr0iI3HDxKqDsee1SqV70tba7+VcpqWtSDmD5/6LfJx9Pok8cAACXPSURBVBSGCdVGhB0OTolmUd+lsKjS5btXzJnuWbPavQ183fnwb1OGjyvffVs+v+MmKRlyZcoXCXwh2Gki9rbXjGGEGkiSO/NBgEJVqFOoCiBm551AlFCz6dy+CjWbY2hlg6JdyDPoUYmuLQ75OhJ8zTcBClX5BChUBRCz804gJ0I1c5atL65dnRt2wnhq0f6mIKFqbVKoGiHm54oAhaqQplAVQMzOOwFEcJVvLLJznO5eUzffmE3noiJUPNlIS+7WF61cVP6+CBX3pzY3v1CDKNYr16jjMI8E6oMAhapQpVAVQMyOFQE3T+luQ8mmc5irhZT8z9fNpo39LYs+YJVvtj89544bh3NwfeFr0yNAoSqfOYWqAGI2CZAACZCAJUChKhcChaoAYjYJkAAJkIAlQKEqFwKFqgBiNgmQAAmQgCVAoSoXAoWqAGI2CZAACZCAJUChKhcChaoAYjYJkAAJkIAlQKEqFwKFqgBiNgmQAAmQgCVAoSoXAoWqAGI2CZAACZCAJUChKhcChaoAYjYJkAAJkIAlQKEqFwKFqgBiNgmQAAmQgCVAoSoXAoWqAGI2CZAACZCAJUChKhcChaoAYjYJkAAJkIAlQKEqFwKFqgBiNgmQAAmQgCVAoSoXAoWqAGI2CZAACZCAJUChKhcChaoAYjYJkAAJkIAlQKEqFwKFqgBiNgmQAAmQgCVAoSoXAoWqAGI2CZAACZCAJUChKhcChaoAYjYJkAAJkIAlQKEqFwKFqgBiNgmQAAmQgCVAoSoXAoWqAGI2CZAACZCAJUChKhcChaoAYjYJkAAJkIAlQKEqFwKFqgBiNgmQAAmQgCVAoSoXAoWqAGI2CZAACZCAJUChKhcChaoAYjYJkAAJkIAlQKEqFwKFqgBiNgmQAAmQgCVAoSoXAoWqAGI2CZAACZCAJUChKhcChaoAYjYJkAAJkIAlQKEqFwKFqgBiNgmQAAmQgCVAoSoXQl0Jdf369cqRmE0CJEACJNCQCezZs0cg1WOPPTaWp1GQMCmfPasroebzHHhsEiABEiCB+ifACFVhTKEqgJhNAiRAAiRgCVCoyoVAoSqAmE0CJEACJGAJUKjKhUChKoCYTQIkQAIkYAlQqMqFQKEqgJhNAiRAAiRgCVCoyoVAoSqAmE0CJEACJGAJUKjKhUChKoCYTQIkQAIkYAlQqMqFQKEqgJhNAiRAAiRgCVCoyoVAoSqAmE0CJEACJGAJUKjKhUChKoCYTQIkQAIkYAlQqMqFQKEqgJhNAiRAAiRgCVCoyoVAoSqAmE0CJEACJGAJUKjKhUChKoCYTQIkQAIkYAlQqMqFQKEqgDzZf/vb3+T222+XDz74QLp06SIdO3aU7t27S+vWre3rYYcdJkcccURsf4nBcyrcJAESIIGsCVCoCjIKVQG0N/vDDz+Ubt26SZ8+feTMM8+Ujz76SFavXi0ff/yxvPvuu+L/0SAIt2vXrnLooYfKIYccIqWlpbZ+hw4d7Cv2M5EACZBAQyJAoSqfFoWqANqb/Ytf/EIeeeQR2bx5sxQWFqZVWrNmjY1cKysrZdWqVbJ27VorWpSHcPHqTcXFxXL88ccLBNuuXTu54oor5Dvf+Y63CLdJgARIIFYEKFTl46BQFUB7sy+66CIryZdeeimzCgGlEM2+8847Vq6QLKQL+SL6xTDyvffeKz//+c8DanIXCZAACeSfAIWqfAYUqgJobzaGedu2bStPP/10ZhWyLIX2IVYMIzORAAmQQBwJUKjKpxJXoaJfEFg+E/rwzDPP2C5gyPdrX/ua/PCHP9zvLuG8zjvvPCkoKEi2NWHCBLnjjjtk586dyX3cIAESIIE4EaBQlU8jF0LFMZYuXar0pDb7jDPOkFGjRsk999wjL7zwguB9VEJkd9RRR8m0adOiimWdh2jRRY1ZV86gAvqM88Mr0mWXXSb//Oc/GaFaGvyHBEggjgTiLlSsDs1r2rp1a8JERfXaByO7hLk41D8jF9uPm266yZadPn16sl9mqDWB/f6EOka6/t37/X7IkCEJtG3mPPe7LX8Db7zxRsJEqQkcwyWcw7e+9S33lq8kQAIkEDsCZtFlYtOmTbHrl+tQATby+U0kVxEqjuOSi/6uueYaufrqq91u++oiNpRx28hABGcEK35cuDUF5RDt1WXq1auXve2lvuZMR44cKX//+9+TEWmPHj3kuOOOk6eeeqouT4NtkQAJkECdEWCE6tQd8pqLCNV/aLPwxkagQRGnv6x7j2jOXBXubfLVyDQ0QsW54Vj7koyoUyLITNrAsa666qrEOeeck/BG10F1R48ebSNgl2dunUmMGTPGveUrCZAACcSOQNwj1HRD5BhhHIXqhoghKBN5WpFCpt4/J8ogoSIPQ6iuPIZXTTScFdlshYpj4jj4c8c2t9qEHtMrVAy5o6/3339/aHlmkAAJkEC+CVCoyicQd6GifxCskxS28Yf9SH6hQmzYhz+zsMkK2UW33jlLBUsiW6Feeuml9pjr1q2zTd95551WksuXLw88lFeomFOFUJ977rnAstxJAiTQdAh88smmBP4ySTt3lifKytZnUrROylCoCsa4C9V130nRvXevfqG6ci6CdeXcQidEvJmkbIVqVgSnDD0vWbLESvIf//hH4OG8Qn322Wdt2cWLFweW5U4SIIGmQWDz5q2JhQtfs3+aVCHT115bYsuuX/9xTgBRqArmxiZUDLmef/75aWeN80QUiKg1k5StUCHsgw46yEbPGzduTGC4F8fzi90d2ytU84QkW7a8vNxl85UESKAJEqiqqkq8+eYKVapemS5e/GZi167KnNCiUBXMjUmokBckBqm6YV/vK/IyHfaNEiqYIQKtqalJ0sW+nj172uPjOPibPHlyMt+/cckll9g+Yv/1119vy/vL8D0JkEDTI6BJNV8yxScRd6E2idtmjFxSEm6JMcISE9XJ+PHjU/LwBrfH4DYZI0gxQrT5mdw249o1Eap9EpGt6PsH7Zn5WN/e9LdHH320mPtCUx4YgVt/TGQpjz76qK2AX5EZN25cyvN3zZCy/SUa9MGIPa1hPLxh7NixsnDhQntuOMcf//jH8tprr9nn/KZV4A4SIIEmR6C6ulpWrFiVfHLaMcd0lYMP7iDl5RVm/0ox0pUWLVpIjx7dzWvznPHhbTPKF7zGFKHiVBGdZhqFRqHxR6ivvvqqjSjRvvkSkDBiTHz/+9+3kSWGe7Vkfu4tMXToUFsebfft2zcZoWLBFf6YSIAESMAR8EeqWHzk5kxzOczr+oPXuEeovG3G+2nt3cYqXvOVK2Git2SuW2yELwDeZCLOFBlBTJCety7K4z3awFBtJskr1EmTJiXMT7YlTjzxxMT777+fUh1zoehr2G05Jqq1T3hCn5yMd+3alfDOoZqHOiR+9KMfpbTLNyRAAiTglyoWLOVLpvg0KFTlmmwoESqiQIgLC44gXCdWv1AhTogL+7EACWVR1+3zizYMD4TqIkcc1zzRKXlMfx3Xt3PPPTelDFb4mqFj2+8RI0YkzG+mJqt6hVpUVBT4WMVkYW6QAAk0WQJeqeZTpvgAKFTlMsyXUJ3wgrqH5/Yi3ys/9BMRJsTojV4hPf+qXtTDfpTDH+rgvbe9oON690Gorq55HKA3K3D7vvvuS5hfj7H9/vWvf508/je/+U07POyv5IS6fv16exyIn4kESIAEgghAqitXvpez1bxBfcC+uAu1SS5KMqLKWfI/EzjTA2NRkrl+Un4RRquLHwu//PLLxTzcQQ488EC7+Gjw4MGB1fBzcH/+85/lwQcflLPPPluwWAmLoJhIgARIIK4E4r4oiUKN6ZUTtMq3LrsKoT7yyCO2SRNBJx+SX5fHYFskQAIkUJcEKFSFZi5+bUbpQiyzcyFUc5+qmLlVMfehihnijiUHdooESIAEHAEK1ZEIeaVQg8F069ZNevfuLTNmzAgusJ97zapeMY8aFPOs3/1sidVJgARIIDcEKFSFM4UaDOiXv/ylnd80K4WlS5cuwYX2ca+5p1Vuu+02Mfexpjw4Yh+bYzUSIAESyAkBClXBTKEGA9qyZYuYFbr1FkGaBzvYRUmYP2UiARIggYZAgEJVPiUKNRpQWVmZbN++PbpQFrnmARFy6KGHSocOHbKoxaIkQAIkkH8CFKryGVCoCiBmkwAJkAAJWAIUqnIhUKgKIGaTAAmQAAlYAhSqciFQqAogZpMACZAACVgCFKpyIVCoCiBmkwAJkAAJWAIUqnIhUKgKIGaTAAmQAAlYAhSqciFQqAogZpMACZAACVgCFKpyIVCoCiBmkwAJkAAJWAIUqnIhUKgKIGaTAAmQAAlYAhSqciFQqAogZpMACZAACVgCFKpyIVCoCiBmkwAJkAAJWAIUqnIhUKgKIGaTAAmQAAlYAhSqciHUlVA//PBD5UjMJgESIAESaMgE9uzZI9XV1XLcccfF8jQKEibls2d1JdR8ngOPTQIkQAIkUP8EGKEqjClUBRCzSYAESIAELAEKVbkQKFQFELNJgARIgAQsAQpVuRAoVAUQs0mABEiABCwBClW5EChUBRCzSYAESIAELAEKVbkQKFQFELNJgARIgAQsAQpVuRAoVAUQs0mABEiABCwBClW5EChUBVBA9j//+U9ZunSprFq1SgoLC+WII46Q3r17yxlnnBFQmrtIgARIoHEQoFCVz5FCVQDtzQan3/3udzJp0iTBdlA66qij5PLLL5df/OIXUlJSElSE+0iABEigwRKgUJWPjkJVAJnst99+WwYOHCh4GlTbtm3l0ksvldNOO01OPPFE2blzp3z88ccya9YsQeSKMhDrCy+8YF/11lmCBEiABBoGAQpV+Zwo1GhAECSGczdu3ChXX3213HTTTVaqQbUg19tvv11uvfVWad++vbz++uvStWvXoKLcRwIkQAINjgCFqnxkFGo4IMj0zDPPtFHn1KlTZdiwYeGFPTmPPvqo/OQnP7ER6pIlS0IF7KnCTRIgARKIPQEKVfmIKNRwQFdeeaU88MADctttt8nYsWPDCwbkTJ482c6ljho1Su66666AEtxFAiRAAg2LAIWqfF4UajCgjz76yEaYR5n50NWrVwcX8u0FS8yxunTKKafIsmXL5JNPPknZ7/L5SgIkQAINiUDchSr4tZl8pq1btybM3F8+uxDLY0+bNg2/ApSYPn16Rv1D+ZYtWyauueaaZPn77rvPtmFWBif3cYMESIAEGiqBysrKxKZNm2Lbff58W8DXM8xdzpgxwy4C8kZ8AUXt/aDY36tXr6Dsfd53/vnny1/+8hd5//335eijj45sZ/To0XZYF319+umnk/ejmi8rdnESVgUbMUe2wUwSIAESiDuBuEeoTUKoL774ol0dq10sTkjf+9735JlnnpF77rnHSjWqHlbRYlgWt6nUZTr11FPlrbfesrfFuHZfeeUVmTt3rowfP97uWrdunVx88cXyr3/9S4499lh57rnnbF9cebyaqFVOOukkWbhwoXc3t0mABEigwRGgUJWPLBdzqJDjvffem9IT3LMJEeLPJWyboVMrU0Sod999dzIfi3vQjn8+s76E+qUvfUnM8IaUlZW57tlFRlhsNHPmTOnZs6ecc845dgXwkCFDbF+DoumDDjrIPuRhzJgx0qVLFzn++OOle/fuyTa5QQIkQAINhUDchdok51CNFO3cormnM+OxeCMtW8dfwUg4YR7559+93+/N7TKJgoKClPnlNWvW2D7gmEaedvvGG2+MPJb5D8WW876ecMIJGc/NRjbOTBIgARLIIQHOoSpffXIRofq7gDlSRJZ4SIIbPvWWQT4iWMxjon/YRsSKV0SwSMhDRBgWoaIsVtiivhGgfOtb37Kv3uNEbSMixpAzhpK9z+jF/aW4zxTH/uMf/yjnnntuaDMLFiywT1RCXxHF4rxefvllefLJJ20d9ItPVArFxwwSIIGYEWCEqnx7yccqXy1CdStsUc4IJy3CM9dYAnlIRkppESoiX5RBFIl8bOPVPGTB1snkH3fcyy67LKW4uQUmgWjZHT8l0/fGRdV///vfU3JQ1zzz1/arY8eOCfOg/ZR8viEBEmi6BHbuLE8ZGYsisWtXZWLz5q1RReo0L+4RKod8Az5ur1BdtpOTe+9e/UJ1dc1jAhP4soAEgaEc/tw+Vz/q1azuTTRr1izx73//O6pYYB6O6UQeWMDsNBGwLVNaWprYsGFDWDHuJwESaCIEINPXXluS+L//W6xKFTJdvPjNxMKFryU++SQ3t7JQqMqFGPcI1XU/U6Ga22esOF099+oizkzvK0W9+fPnW+F95StfMRfsJ64p9XXLli22DxDqY489llZ+z549yX1m4ZU9xne+853kPm6QAAk0TQJeSUZJ1VsOAoaIc5EoVIVyYxIqzgUSM3OWdqgYEnV/5v5Qm+d98IKCxmZfe+21tp6Zq7WRrlYHkalZAWzrBC2WwvDu4YcfnjCPI0w2hXLo9xtvvJHcxw0SIIGmScAryyCpevNzKVN8GhSqck02JqG6YVbIKewPkW626de//rVt78gjj0z85je/SWC1rz+BI+Zu3epf94p9LkGmbv9f//pXt9tKH/391a9+ldzHDRIggaZLwCtNr1S9+3MtU3waFKpyTTYmoboINdsoVEFksx9++OHkMC7khyj029/+duK73/1uwtxXmhQ4hHn//ffbaBZztigLqTqZ4lYcs2I55ZAYAka9bt26peznGxIggaZLwCtPSBWLj9ycaT5kik+CQlWux8YkVJyqf5GScvpZZZeXlyew6AlDtC7SdJEw7ltF9AqeLiFidlJFecj0D3/4g8tOeT3mmGMShx12WMo+viEBEmjaBLxSxeIj/OVLpvgkKFTlemxoQvXf+uIXqLtlxjvUCgRuv3nakkIk8+yKiorE2WefbaNQc79rYEU3dwvxmkcqBpbBztNPPz1RXFwcms8MEiCBpknAK9V8yhT0KVTlGmwoQsXiIhcNQqKI/pD8QsU+8zB6W9bluWjSPEQC2XWa3Opj1x9v495hXvTFDf96y7jt4447LtGpUyf3lq8kQAIkkCQAqb755vKcreZNHti3EXehNomH4xuRpCQ8vQjP9sXTi8zwaUoe3hgR2V96MfeSpvyOKJ5+hAftoz6esGREadvBK37RxZvw3F9XFvnnnXde4LG8dfZlG+dh5mztE5yMXJNN4ClNOLft27eLGeYVE4GKGRa2T0sy0XLKE6I+//xzadOmjS3z0ksvJdvgBgmQAAnEiQCflOT7huF/m48I1d+Hhvx++fLlNvI08kyeBqJVFxV750yx30WqeKiDS+5hFLfffrvbxVcSIAESiB0BRqjK1xtEe82bN5dWrVopJZkdRgCRJ6Jn/IzbN77xDfn000/FzK0Kfif1kksuSamG5/ni5+kQfSOiraqqsj/9hv1GuGKEm1Keb0iABEggLgTiHqE2ySHfuFwcddUPyBRSNbe9WKkeeuihGTd9/fXXy5133ml/Gg6vTCRAAiQQVwIUqvLJMEJVAGWYjXnRCRMm2N9JxfxtJpGmk6m5ZUbeffddMat8Mzwai5EACZBA7glQqApzClUBlEX2uHHjZOLEiVamEKx/oZRrChEt5ItXyHTu3LkZCdjV5ysJkAAJ5IMAhapQp1AVQFlmm4VFgj+s7sXQ75e//GU58cQTxfxqjZhflJFFixaJ+fUa2yp+W3XSpEkpK5mzPByLkwAJkEDOCFCoCmoKVQG0D9lYYPT73/9eZs6caW+T8TaBW3j69esnP/vZz+rlNh7vsbhNAiRAAnVJgEJVaFKoCqD9zAbfVatWiXnsoBxyyCHSpUuX/WyR1UmABEggPwQoVIU7haoAYjYJkAAJkIAlQKEqFwKFqgBiNgmQAAmQgCVAoSoXAoWqAGI2CZAACZCAJUChKhcChaoAYjYJkAAJkIAlQKEqFwKFqgBiNgmQAAmQgCVAoSoXAoWqAGI2CZAACZCAJUChKhcChaoAYjYJkAAJkIAlQKEqFwKFqgBiNgmQAAmQgCVAoSoXAoWqAGI2CZAACZCAJUChKhdCXQn1s88+U47EbBIgARIggYZMAEItLy+Xzp07x/I0Gs3voVKosby+2CkSIAESqDMCEGpFRYWUlpbWWZt12VCjEWpdQmFbJEACJEAC8SPAIV/lM6mrIV/lMMwmARIgARJo4AQoVOUDpFAVQMwmARIgARKwBChU5UKgUBVAzCYBEiABErAEKFTlQqBQFUDMJgESIAESsAQoVOVCoFAVQMwmARIgARKwBChU5UKgUBVAzCYBEiABErAEKFTlQqBQFUDMJgESIAESsAQoVOVCoFAVQMwmARIgARKwBChU5UKgUBVAWWTjkVyrVq2SN998U2pqaqR58+Zy+OGHy1e+8hXp0KFDFi2xKAmQAAnEjwCFqnwmFKoCKIPsf/7zn3LzzTfLq6++ap9zGVTlW9/6llx22WUyePBgadmyZVAR7iMBEiCBWBOgUJWPh0JVAEVkQ6Rjx46VhQsX2lIQ5Yknnig9evRI1vrwww9l6dKlAs5IRx11lNx0001y6aWXJstwgwRIgAQaAgEKVfmUKFQFUEj2hAkTrBiRDUmOHDlShg4dKm3btg2s8fTTT8vkyZPllVdesfnDhg2T3//+91JQUBBYnjtJgARIIG4EKFTlE6FQFUAB2V6ZXnvttVasbdq0CSiZvmv69OkyatQoG7F+/etflwULFkhhYWF6Qe4hARIggZgRoFCVD4RCVQD5su+55x4rROyeNWuWXHjhhb4S+lsMA5955pmCV0S2v/vd7/RKLEECJEACeSZAoSofQC6EimPgL5OE4VNEgM8884xMmzZNevXqFVkNC30wzHr33XdHlquLTAiwW7dusmfPHpkyZYr89Kc/3edm33vvPTnllFMslz//+c9ywQUX7HNbrEgCJEACuSAQd6FKIs9p69atiZ07d9ZrL4wYE+bDVv+MTG0/zj//fFvWDI8m+2UWACXQjj+hzhlnnOHfXS/vzUIi268hQ4aEtg+e6Odtt92WMPOmiXXr1oWWfeihh2x7nTt3TpgvHKHlmEECJEACcSBQWVmZ2LRpUxy6EtiHJvED44jssCLWJUSrmEc04pTzzjvP7baRJvYhH3W80SkiUcw/GorJ8tjo2rWrGKnKCy+8kLK/rt+gPzjWAQccIG+99ZY9pv8Yzz33nL0txhuNd+rUyS4++u53v+svbt9/4xvfkJdfftlG40bUgWW4kwRIgATiQIARaqDHv9iZiwj1i6PVbq1evdpGZub2EX9W6HtEheaCSss3Ms1JhPrLX/7SHj8qOj3mmGNsmbPOOisxfvz4BPqGPpsh6URFRUVa37HjwQcftGVyFWUHdoI7SYAESCADAnGPUNMNkcFJ1WWROAoVw7sQDMS7ZMkSuw0pQU7Y7/LAIUioOKdrrrkmKTQT6Sa8w8f7wg/HxPFNJBxaHce8+uqrk/noB+rgD+cSlFDG3DqTaN26dQLbTCRAAiQQVwIUqvLJ4H/i9T2H6u8C5ALJhEWomIN0EkJZlIMUXR28d/LxCxXlsQ8ChuBQ1s3Jhh3P37+g907o27dvD8oO3GdWBNs+oz9RCfk4t3feeSeqGPNIgASaAIGysvUJ/GWSUG7ZshWJPXuqMim+32UoVAVh3IXqup/pkK8r548IIVdICxFvtunzzz+3dVu1apVxVSdTHBOLk6KSE35U9BtVn3kkQAKNg8D27TsSCxe+Zv80qSLflX3vvdU5AUChKpgbm1AR7UFQ/uSiYogu22QWJFmhdunSJaOqjz32mC1/4IEHJh5//HG1zg9/+ENbnkJVUbEACTR6AmVl65KiDJOqV6bLli1nhLr3qmgSq3xNlJaS3IpZMwQrZvFOSh7eYDUvVvUaCYoRpM3PZJUvVte2a9fOrg72rhC2Dext10SwdkWt25fJq+sv+oI+ael73/uevY/2kUcekcsvv1wrbh/ygFXQRqhi5mrV8ixAAiTQuAmsXbte8IdUWnqE+euUPOG1azeYvHX2vRk1M88O7y7FxUXJ/PrciPsqXwq1DoXqxAeZBgkVFxqEle2D6V272Qo1U0G2b99ezEiBmDlUOe644+rzvwe2TQIk0EAIBEk1nzIFNgpVuXgQ1eF3O/FNJ1fJCaquI1T0Hw+b35coNOrcXX8zFSqi2BdffNH2I6pd5C1btszKv7S0VMrKyrTizCcBEmhCBLxSNVNIsmPHDnv2uY5MHfK4C5W3zQTMiHhX+bpsI0k7z+jeu1cjOXsbjXtvIlC7wtetAnb7MYeKVb77Mk+JuuaCsquHXXtRr+bBD+pCJFd/+PDhtm2cHxMJkAAJ+Al451SxCCmXc6b+vnBRkp+I731DWZTkVuk6KTph+oUKYTr5YRsyxCpblMOtL3ifbUId16ZWFyuCjzzySFteWwCFdt3tOCtWrNCaZj4JkEATJeCkmk+ZAj2FqlyADUWokA+kCLHhD++R/ELFPidQVxaviFzND30jO+uEY6ENHEtLuE/VCVV7mISLuhmdalSZTwIksGHDxpyt5g2jHXehNslFSUZOgnlJE50F/iA35nXxZwSGoikJ9ZBcnv+9zdz7jxFosh1X3puf6TaO4Z4ZbOSqVkN59D9sYRQacL+peuihh8qiRYuS56M2zgIkQAIkkCcCcZ9DbbJCzdP1sE+HzVao2kFwq9DNN99si/Gn2zRazCcBEogLAQpV+STyscpX6VLssutKqFjRa+aCBfecIt1///1y5ZVX2m3+QwIkQAJxJ0ChKp8QhaoAMtn7KlQz3yAbNmywAp0xY0ZSpLhFxjxNyd4Tqx+dJUiABEggHgQoVOVzoFAVQCbbCVUvGV0Cc8bm12hslIptJhIgARJoSAQoVOXTolAVQCa7vLxcTjjhBCtWvfQXJYqKiqRz585yyimnyGmnnWaf0ESRfsGHWyRAAg2LAIWqfF4UqgKI2SRAAiRAApYAhapcCBSqAojZJEACJEAClgCFqlwIFKoCiNkkQAIkQAKWAIWqXAgUqgKI2SRAAiRAApYAhapcCBSqAojZJEACJEAClgCFqlwIEGqzZs2kdevWSklmkwAJkAAJNGUCFKry6UOohYWFgt/aYyIBEiABEiCBMAK4hbCiokI6dOgQViSv+/P+LN+dO3daQB07dswrCB6cBEiABEgg3gTiHoDlXajV1dXy6aefCn71pKCgIN6fJntHAiRAAiSQNwIff/yxtGvXTpo3b563PkQdOO9CRec2bdokLVq0kDZt2kT1lXkkQAIkQAJNlACGez/77DMbfMUVQSyEionmLVu2MEqN61XCfpEACZBAngkgOsVam5KSkjz3JPzwsRAquoex8aqqKuFcaviHxRwSIAESaIoEtm/fLgi8Dj744FiffmyEWlNTY4d+cQsNHuDO+dRYXzfsHAmQAAnkhACGeTHci2ALP/gR5xQboQKSk2oikWgQ8OL8wbJvJEACJNCQCWDBqnfkMu4yBetYCdV9+PhGgj8sVMJ4OV4bAkzXf76SAAmQAAlkTwDBVGVlpY1Id+3aJQcccIBdrNpQRixjKVR8DPh2gjFzhPoAzEQCJEACJND4CWDar2XLllamDUWk7lOJrVBdB90rBMtEAiRAAiTQeAngqXkNTaLeT6PBCNXbaW6TAAmQAAmQQNwIUKhx+0TYHxIgARIggQZJgEJtkB8bO00CJEACJBA3AhRq3D4R9ocESIAESKBBEqBQG+THxk6TAAmQAAnEjQCFGrdPhP0hARIgARJokAQo1Ab5sbHTJEACJEACcSNAocbtE2F/SIAESIAEGiQBCrVBfmzsNAmQAAmQQNwIUKhx+0TYHxIgARIggQZJgEJtkB8bO00CJEACJBA3AhRq3D4R9ocESIAESKBBEqBQG+THxk6TAAmQAAnEjQCFGrdPhP0hARIgARJokAQo1Ab5sbHTJEACJEACcSNAocbtE2kC/ZkwYYJMnz69CZwpT7G+CLRt21bOOOMMGT9+vGCbiQTiQIBCjcOn0IT6MGrUKLnnnnua0BnzVOuTwPnnny9PP/10fR6CbZNAxgQo1IxRsWBdECgoKKiLZtgGCSQJJBKJ5DY3SCCfBCjUfNJvgsdu166dbNu2rQmeOU+5PghguHfr1q310TTbJIGsCVCoWSNjhf0hgOFeDPsykUBdEMAc6k033VQXTbENEthvAhTqfiNkA9kSwIKkF198MdtqLE8CKQSwKOnSSy9N2cc3JJBPAhRqPunz2CRAAiRAAo2GAIXaaD5KnggJkAAJkEA+CVCo+aTPY5MACZAACTQaAhRqo/koeSIkQAIkQAL5JECh5pM+j00CJEACJNBoCFCojeaj5ImQAAmQAAnkkwCFmk/6PDYJkAAJkECjIUChNpqPkidCAiRAAiSQTwIUaj7p89gkQAIkQAKNhgCF2mg+Sp4ICZAACZBAPglQqPmkz2OTAAmQAAk0GgIUaqP5KHkiJEACJEAC+SRAoeaTPo9NAiRAAiTQaAhQqI3mo+SJkAAJkAAJ5JMAhZpP+jw2CZAACZBAoyFAoTaaj5InQgIkQAIkkE8CFGo+6fPYJEACJEACjYYAhdpoPkqeCAmQAAmQQD4JUKj5pM9jkwAJkAAJNBoCFGqj+Sh5IiRAAiRAAvkkQKHmkz6PTQIkQAIk0GgIUKiN5qPkiZAACZAACeSTAIWaT/o8NgmQAAmQQKMhQKE2mo+SJ0ICJEACJJBPAhRqPunz2CRAAiRAAo2GAIXaaD5KnggJkAAJkEA+CVCo+aTPY5MACZAACTQaAhRqo/koeSIkQAIkQAL5JECh5pM+j00CJEACJNBoCFCojeaj5ImQAAmQAAnkkwCFmk/6PDYJkAAJkECjIUChNpqPkidCAiRAAiSQTwIUaj7p89gkQAIkQAKNhgCF2mg+Sp4ICZAACZBAPglQqPmkz2OTAAmQAAk0GgL/HxuiV71TmDQmAAAAAElFTkSuQmCC;" vertex="1" parent="WIyWlLk6GJQsqaUBKTNV-1">
          <mxGeometry x="-140" y="40" width="188.56" height="390" as="geometry" />
        </mxCell>
        <mxCell id="dSwJCHyqDTHwkJdP5-SC-4" value="" style="shape=image;verticalLabelPosition=bottom;labelBackgroundColor=default;verticalAlign=top;aspect=fixed;imageAspect=0;image=data:image/png,iVBORw0KGgoAAAANSUhEUgAAAVAAAAP+CAYAAABdYUduAAAMPGlDQ1BJQ0MgUHJvZmlsZQAASImVVwdYU8kWnluSkEBoAQSkhN4EESkBpITQAkjvNkISIJQYA0HEji4quHYRARu6KqLYaXbEzqLY+6KIgrIuFuzKmxTQdV/53sk39/7558x/zpw7twwAaic5IlE2qg5AjjBPHB3kR09MSqaTegACfySAA0cON1fEjIwMA9CGzn+3dzehL7Rr9lKtf/b/V9Pg8XO5ACCREKfycrk5EB8CAK/iisR5ABClvNn0PJEUwwa0xDBBiBdLcbocV0lxqhzvk/nERrMgbgVASYXDEacDoHoF8vR8bjrUUO2H2FHIEwgBUKND7J2TM5UHcQrE1tBHBLFUn5H6g0763zRThzU5nPRhLJ+LzJT8BbmibM6M/7Mc/9tysiVDMSxhU8kQB0dL5wzrdjtraqgUq0DcJ0wNj4BYE+IPAp7MH2KUkiEJjpP7owbcXBasGdCB2JHH8Q+F2ADiQGF2eJiCT00TBLIhhisELRDksWMh1oV4MT83IEbhs1k8NVoRC61PE7OYCv48RyyLK431UJIVx1Tov87gsxX6mGphRmwCxBSIzfMF8eEQq0LskJsVE6rwGVeYwQof8hFLoqX5m0MczRcG+cn1sfw0cWC0wr8kJ3dovtjmDAE7XIEP5GXEBsvrg7VyObL84VywK3whM25Ih5+bGDY0Fx7fP0A+d6yHL4yLUeh8EOX5RcvH4hRRdqTCHzflZwdJeVOInXPzYxRj8fg8uCDl+niaKC8yVp4nXpjJCYmU54OvAGGABfwBHUhgSwVTQSYQtPc19MF/8p5AwAFikA74wF7BDI1IkPUI4TEGFII/IeKD3OFxfrJePsiH/NdhVn60B2my3nzZiCzwFOIcEAqy4X+JbJRwOFo8eAIZwT+ic2DjwnyzYZP2/3t+iP3OMCETpmAkQxHpakOexACiPzGYGEi0wfVxb9wTD4NHX9iccAbuPjSP7/6Ep4QOwmPCDUIn4c4UQZH4pyzHg06oH6ioReqPtcAtoaYL7od7QXWojOvg+sAed4ZxmLgPjOwCWZYib2lV6D9p/20GP1wNhR/ZkYySR5B9ydY/j1S1VXUZVpHW+sf6yHNNHa43a7jn5/isH6rPg+fQnz2xxdhB7Bx2CruAHcUaAB07gTVibdgxKR5eXU9kq2soWrQsnyyoI/hHvKErK61krmOtY6/jF3lfHr9A+owGrKmiGWJBekYenQnfCHw6W8h1GEV3cnRyBkD6fpE/vt5Eyd4biE7bd27BHwB4nRgcHDzynQs5AcB+N3j7N33nrBnw1aEMwPkmrkScL+dw6YEAnxJq8E7TA0bADFjD+TgBV+AJfEEACAERIBYkgckw+wy4zsVgOpgF5oNiUApWgLWgAmwCW8FOsAccAA3gKDgFzoJL4Aq4Ae7B1dMNXoB+8A58RhCEhFARGqKHGCMWiB3ihDAQbyQACUOikSQkBUlHhIgEmYUsQEqRVUgFsgWpQfYjTcgp5ALSgdxBHiG9yGvkE4qhKqgWaohaoqNRBspEQ9FYdBKajk5DC9GF6DK0HK1Gd6P16Cn0EnoD7URfoAMYwJQxHcwEs8cYGAuLwJKxNEyMzcFKsDKsGqvDmuF1voZ1Yn3YR5yI03A6bg9XcDAeh3PxafgcfClege/E6/FW/Br+CO/HvxGoBAOCHcGDwCYkEtIJ0wnFhDLCdsJhwhl4L3UT3hGJRB2iFdEN3otJxEziTOJS4gbiXuJJYgexizhAIpH0SHYkL1IEiUPKIxWT1pN2k06QrpK6SR+UlJWMlZyUApWSlYRKRUplSruUjitdVXqm9JmsTrYge5AjyDzyDPJy8jZyM/kyuZv8maJBsaJ4UWIpmZT5lHJKHeUM5T7ljbKysqmyu3KUskB5nnK58j7l88qPlD+qaKrYqrBUJqpIVJap7FA5qXJH5Q2VSrWk+lKTqXnUZdQa6mnqQ+oHVZqqgypblac6V7VStV71qupLNbKahRpTbbJaoVqZ2kG1y2p96mR1S3WWOkd9jnqlepP6LfUBDZrGGI0IjRyNpRq7NC5o9GiSNC01AzR5mgs1t2qe1uyiYTQzGovGpS2gbaOdoXVrEbWstNhamVqlWnu02rX6tTW1nbXjtQu0K7WPaXfqYDqWOmydbJ3lOgd0bup8GmE4gjmCP2LJiLoRV0e81x2p66vL1y3R3at7Q/eTHl0vQC9Lb6Veg94DfVzfVj9Kf7r+Rv0z+n0jtUZ6juSOLBl5YORdA9TA1iDaYKbBVoM2gwFDI8MgQ5HhesPThn1GOka+RplGa4yOG/Ua04y9jQXGa4xPGD+na9OZ9Gx6Ob2V3m9iYBJsIjHZYtJu8tnUyjTOtMh0r+kDM4oZwyzNbI1Zi1m/ubH5ePNZ5rXmdy3IFgyLDIt1Fucs3ltaWSZYLrJssOyx0rViWxVa1Vrdt6Za+1hPs662vm5DtGHYZNlssLlii9q62GbYVtpetkPtXO0EdhvsOkYRRrmPEo6qHnXLXsWeaZ9vX2v/yEHHIcyhyKHB4eVo89HJo1eOPjf6m6OLY7bjNsd7YzTHhIwpGtM85rWTrRPXqdLp+ljq2MCxc8c2jn3lbOfMd97ofNuF5jLeZZFLi8tXVzdXsWuda6+buVuKW5XbLYYWI5KxlHHeneDu5z7X/aj7Rw9XjzyPAx5/edp7Znnu8uwZZzWOP27buC4vUy+O1xavTm+6d4r3Zu9OHxMfjk+1z2NfM1+e73bfZ0wbZiZzN/Oln6Of2O+w33uWB2s266Q/5h/kX+LfHqAZEBdQEfAw0DQwPbA2sD/IJWhm0MlgQnBo8MrgW2xDNpddw+4PcQuZHdIaqhIaE1oR+jjMNkwc1jweHR8yfvX4++EW4cLwhggQwY5YHfEg0ipyWuSRKGJUZFRl1NPoMdGzos/F0GKmxOyKeRfrF7s89l6cdZwkriVeLX5ifE38+wT/hFUJnYmjE2cnXkrSTxIkNSaTkuOTtycPTAiYsHZC90SXicUTb06ymlQw6cJk/cnZk49NUZvCmXIwhZCSkLIr5QsnglPNGUhlp1al9nNZ3HXcFzxf3hpeL9+Lv4r/LM0rbVVaT7pX+ur03gyfjLKMPgFLUCF4lRmcuSnzfVZE1o6sweyE7L05SjkpOU1CTWGWsHWq0dSCqR0iO1GxqHOax7S10/rFoeLtuUjupNzGPC34Id8msZb8InmU751fmf9hevz0gwUaBcKCthm2M5bMeFYYWPjbTHwmd2bLLJNZ82c9ms2cvWUOMid1Tstcs7kL53bPC5q3cz5lftb834sci1YVvV2QsKB5oeHCeQu7fgn6pbZYtVhcfGuR56JNi/HFgsXtS8YuWb/kWwmv5GKpY2lZ6Zel3KUXfx3za/mvg8vSlrUvd12+cQVxhXDFzZU+K3eu0lhVuKpr9fjV9Wvoa0rWvF07Ze2FMueyTeso6yTrOsvDyhvXm69fsf5LRUbFjUq/yr1VBlVLqt5v4G24utF3Y90mw02lmz5tFmy+vSVoS321ZXXZVuLW/K1Pt8VvO/cb47ea7frbS7d/3SHc0bkzemdrjVtNzS6DXctr0VpJbe/uibuv7PHf01hnX7dlr87e0n1gn2Tf8/0p+28eCD3QcpBxsO6QxaGqw7TDJfVI/Yz6/oaMhs7GpMaOppCmlmbP5sNHHI7sOGpytPKY9rHlxynHFx4fPFF4YuCk6GTfqfRTXS1TWu6dTjx9vTWqtf1M6JnzZwPPnj7HPHfivNf5oxc8LjRdZFxsuOR6qb7Npe3w7y6/H253ba+/7Ha58Yr7leaOcR3Hr/pcPXXN/9rZ6+zrl26E3+i4GXfz9q2Jtzpv82733Mm+8+pu/t3P9+bdJ9wveaD+oOyhwcPqP2z+2Nvp2nnskf+jtscxj+91cbtePMl98qV74VPq07Jnxs9qepx6jvYG9l55PuF59wvRi899xX9q/Fn10vrlob98/2rrT+zvfiV+Nfh66Ru9NzveOr9tGYgcePgu593n9yUf9D7s/Mj4eO5Twqdnn6d/IX0p/2rztflb6Lf7gzmDgyKOmCP7FMBgQ9PSAHi9AwBqEgA0uD+jTJDv/2SGyPesMgT+E5bvEWXmCkAd/H6P6oNfN7cA2LcNbr+gvtpEACKpAMS6A3Ts2OE2tFeT7SulRoT7gM0BX1NzUsG/Mfme84e8fz4Dqaoz+Pn8L0IAfD5azCYWAAAAimVYSWZNTQAqAAAACAAEARoABQAAAAEAAAA+ARsABQAAAAEAAABGASgAAwAAAAEAAgAAh2kABAAAAAEAAABOAAAAAAAAAJAAAAABAAAAkAAAAAEAA5KGAAcAAAASAAAAeKACAAQAAAABAAABUKADAAQAAAABAAAD/gAAAABBU0NJSQAAAFNjcmVlbnNob3Rb2GbxAAAACXBIWXMAABYlAAAWJQFJUiTwAAAB12lUWHRYTUw6Y29tLmFkb2JlLnhtcAAAAAAAPHg6eG1wbWV0YSB4bWxuczp4PSJhZG9iZTpuczptZXRhLyIgeDp4bXB0az0iWE1QIENvcmUgNi4wLjAiPgogICA8cmRmOlJERiB4bWxuczpyZGY9Imh0dHA6Ly93d3cudzMub3JnLzE5OTkvMDIvMjItcmRmLXN5bnRheC1ucyMiPgogICAgICA8cmRmOkRlc2NyaXB0aW9uIHJkZjphYm91dD0iIgogICAgICAgICAgICB4bWxuczpleGlmPSJodHRwOi8vbnMuYWRvYmUuY29tL2V4aWYvMS4wLyI+CiAgICAgICAgIDxleGlmOlBpeGVsWURpbWVuc2lvbj4xMDIyPC9leGlmOlBpeGVsWURpbWVuc2lvbj4KICAgICAgICAgPGV4aWY6UGl4ZWxYRGltZW5zaW9uPjMzNjwvZXhpZjpQaXhlbFhEaW1lbnNpb24+CiAgICAgICAgIDxleGlmOlVzZXJDb21tZW50PlNjcmVlbnNob3Q8L2V4aWY6VXNlckNvbW1lbnQ+CiAgICAgIDwvcmRmOkRlc2NyaXB0aW9uPgogICA8L3JkZjpSREY+CjwveDp4bXBtZXRhPgoy3imRAAAAHGlET1QAAAACAAAAAAAAAf8AAAAoAAAB/wAAAf8AAD4IJE7XqQAAPdRJREFUeAHsnQu0HVV5x/cluTcPAoQQDE9JoJUqj0SqAiqQFFdZ4lKiVRcgjwTE1gdNqCyqrSVJhRZbJQkotF2tCa1LBVRihVqhEhArQsEkJUhINAmJhATyrAmQkGS6/9vu033mvObMmbln7p3fXutkHvvbr98++d9vP2ZOT2SDIUAAAhCAQNsEehDQtpmRAAIQgIAjgIDyRYAABCCQkgACmhIcySAAAQggoHwHIAABCKQkgICmBEcyCEAAAggo3wEIQAACKQkgoCnBkQwCEIAAAsp3AAIQgEBKAghoSnAkgwAEIICA8h2AAAQgkJIAApoSHMkgAAEIIKB8ByAAAQikJICApgRHMghAAAIIKN8BCEAAAikJIKApwZEMAhCAAALKdwACEIBASgKJBfTXv/61aefdy6NGjTIHHHBA29VSGbt37zavvfaaGTZsmOnr60uUx969e82rr77qyhw+fHiqshMVhBEEIACB/yOQSED37dtnli5d2ha0N77xjWbkyJFtpZGxhHPjxo3mpZdeMkcccYQ56qijEuWxefNms2HDBie648ePd8dECTGCAAQgkJJAIgHdv3+/WblyZVUR8hRffvlld08e35AhQ6riJ0yYkErEENAqjFxAAAIFJpBIQOvVX6K6ZMkSF3XSSScZiWgWAQHNgiJ5QAAC/UGgXwVUc5T6SCR7e3uN5kmHDh1a1c64gB555JFmz5495pVXXnHzmpoWiKdRBkmG8Mp7165dbi53xIgRbn41zTxtVYW5gAAESkugXwRU4rd+/Xqzc+fOqoWonp4eI4F83eteV5kCCAX00EMPdaIpcfRBgjd69Gg3PyoR9KGZgO7YscPNq3rx9GkOPvhgV/6BBx5oVBcCBCAAgXYI5C6gWh1fsWKFW1lXxSR6Gu5rVV9xClr08WLpBfTFF190cRI2rcQrjVbn5cEqHHbYYW6Bya/SNxJQlaPFJYm3PFeVrzw1f6vy5QUfffTR7ugy5h8IQAACCQnkLqASQgmY5kxPPPFEtzLvvb1f/OIX5n/+53+cR/n617/eCVwooLIbO3as8xI15FfYsmWLy09248aNcyIqu3oCKsH91a9+ZbZv3+4EV6v6fq5WAvr888+78nVfedWbGkjIETMIQKCEBHIXUDGVp6etUPIWvXjqvkRPIqYVfImrRDIUUD/Elpfog4RY25xeeOGFKi+0noBu27bN2WnYLy/zoIMO8tm4o7ZKKS95pZpK0FCeAAEIQCApgX4RUF8Zv0neD8XlTWpILgHVvlEJbCigmhuV8MUXerZu3VrZ8ynhk8DWE1CJ46ZNm5wwjhkzxuXv66KjhvWqg0Rd5RxyyCFhNOcQgAAEmhLoFwHVMF1C1uhpJg2d6wmohtYStnhQfvJA5dlKQCWO9QR03bp1bkN+PH38WuUfe+yxLp94HNcQgAAEGhHIXUDlLWoFXmInT09zkNqK5Oci5SXqfjsCqlV1zavKo5WAagGqnoCqXA3T5dnqsdD4Zn8PRQKqRSmG8J4IRwhAIAmB3AX02WefdXsvNcw+7rjjqp5Okie5Zs0aV896Anr44Yc7DzQufBp2a+5UQuznLusJqMRZi1gamsublYgSIAABCGRFIHcBfeqpp9xGeD3aqf2b4XymRFAeYiMPVB6hBDKcm5Qnq+G7hFEr9HpWXotP9QRUq++y1cLTMcccU5WPAGpfqOZg/daqsG5ZASYfCEBg8BLIXUBXrVrl5j61Aj7e7vf025G0Qq45SgliozlQYZfoah5UQ36t5Es4NZ+qIK9SH4V6AqonmLSNSWXFV/S1uV9x8oIl0N6TdZnxDwQgAIEEBHIXUA23JVThHKiETWLoQz0B9Z6p5jnloWoYL09S6XSt4b28Tz+8ryegyj8USqWTgCtP1UdHpZd3qjlQxRMgAAEIJCWQWkAlPj/72c9cOa1eJhKKqK+Y5i81BNdikIKfA/VDdAmiRFICJ4/TC64WhCR2SqtzH/y8qOY5x1tPN5zv1KZ55achvbZJ+eDnUOWBIp6eCkcIQCApgdQCmrSA0C58UbIfyofxjc4lnvJaJaZK14nYee9XXq8+neTVqL7chwAEykGgXwW0HEhpJQQgUBYCCGhZepp2QgACmRNAQDNHSoYQgEBZCCCgZelp2gkBCGROAAHNHCkZQgACZSGAgJalp2knBCCQOYFEAhpuPI/XQNuAFB8PfnuQ4vy5bOK2YfrwXLb+2qePp5VN0uDzqmfv6xjaNCrT2/ij8qt3Ht4LbeL3fX0a3ffxjY5KpxBnkyS/JDZhuc3K8nZhPXz+/uht4te6H7+nawWfXxgfnsvGX8ePimsWvH0zm3pxzdI1i1NereJ9eXE7f62jgufSyL7efZ+Hj4sffbw/xuPrXTey1X0F1dOf+2sX8X//hOnDc0X7dO1seQzz7o/zxALqG9MflaIMCEAAAiKg91XooRjt2S5iQECL2CvUCQIQcAT0DmG9B6OoXigCyhcVAhAoLAEEtLBdQ8UgAIGiE9Db0uSBhu+9KFKd8UCL1BvUBQIQqCKAB1qFgwsIQAACyQnIA9ULz5kDTc4MSwhAAAKOgDxQrcIzhOcLAQEIQKBNAgzh2wSGOQQgAAFPAA/Uk+AIAQhAoE0CrMK3CQxzCEAAAp4Ai0ieBEcIQAACbRJAQNsEhjkEIAABTwAB9SQ4QgACEGiTAALaJjDMIQABCHgCCKgnwRECEIBAmwQQ0DaBYQ4BCEDAE0BAPQmOEIAABNokIAHlbUxtQsMcAhCAgAjwJBLfAwhAAAIpCSCgKcGRDAIQgABzoHwHIAABCKQkgAeaEhzJIAABCCCgfAcgAAEIpCQgAeVXOVPCIxkEIFBuAsyBlrv/aT0EINABATzQFvAeeughM3/+fLN06VKzdu1aZz169GgzefJkM3XqVHP55Ze3yIFoCEBgsBJgDrRBz0osp0+fbiSgzcL48ePN4sWLjY7dDsuWLTNLliypVGPatGmV826dFLFO3WJBuYOPAB5onT6VeE6ZMqXicdYxqbpVFBGdM2eOmT17dqVuURRVzrt1UsQ6dYsF5Q4+AkUXUGNFoGXYv39/S5t2DOzwXMpT+ViBjKyXGW3bts1lo/O4ja67Hax4Vuqs+hchFLFOReBCHQYHgR07dkR79uwpbGN6VLNWf7dk0tPT08osUbyG7PI+fZB3qWGx5j3jQXbhEH/NmjVG9vEgGw1lNY+q+IkTJ5pJkybVtV20aJHZvn27y0K2VpidJ/zd7363kv6cc85x93058phVhmyU3ocFCxa4U83VxuuvMu64446Kl62yLrjggsR18ul9m9qtk9qlMsMQ56R45Ru3C9NwDoFuEij6y0QSuVFZeqB23rDKi5O32SgoznZe5TNv3rwqUysukf3PX4kPbXUu7yweQnvVRXnG0+l65syZlaRWKOva+HTxNiitj4sfFec9bV+AFbuKvc4XLlwYWUGu3PN5hHWKs/E2/qg8fEjDyaflCIFuErACWmgPtN8F1HqGFWGQmLUKEi//kRD4YL3RuiLjBcQf4yIaCmgoXN4+PHoRakdAm4mnz1vlhiGsh+pXTzx9Wt+epAIqTmGblU+9MuJ/nML6cQ6BbhEo+hC+3wXUC4GOduibul/iojBr1qxIYiFhicfpng/xOF1LIO+5554o7h17ofP5xuOVrz7eo4wL7YwZM1yc4ufOnVv5w6G2e3FWvUIB9QInQVPe8TJVXwXlWS9e9/RpVCe1xYdQ7CXaBAgUjQAeaNAj+s8bCqjEIU2QQIT5SDzDoHJCLy4sJxRQ2YSCojxCMYuLSqsFmzBtvT8OYXovzvEy1a54nZRX2N6wrWGesomHMN6Lr7eRyCref7zo+niOEOg2AQQ06AH9Bw2FIBS2wKzlaSgK9QRHGYRiFgpHKKCtRC4uSPFy4xUNRVt5yyMNP6HHF+Yd1jUUVp+/8gi5hQLbqk7xOV5NoXjv1ufPEQJFJYCAxnomLjKx6ESX4bA27iX6DBqJVSig9QS8mSA1i4v/cQgFr9G5F8I8BVT1Cued43VR2eF0gufHEQJFIMAcaKwXwv/MEr9Ww0aJnP9onlIhiYA2Erv+ElC1TWU1+/SHgIqXGGuaI2x7PSGVLQECRSIgD3T37t1FqlJVXWonzaqif3OR5TamuLA1W/2ND13tHkxXoXge9UQ4nDeUaPsQikiWHqjyD73rdry6PD1Q325/tHtuKwtmIQsJquaWCRAoEgF5oAho0CPyukLvR6Kj/9TxILv4f3DvscUXkSSoYZBdKGahUIZ5hvd9+rg4+/s6NotTfCshVL2Uhz7hH45W6eJ/SDyHenWK/zFROb5M78ErnYLyCftCdgQIFIkAAlqnN+Lzk/pPLDGTUOij+FAAFR9faQ+FULby+CQeEtdwmkBpdc+HMF2nAhrmq/xV90aCJNtGZXcioPEy455v6Imr/FB8Vaewvt7D96w4QqDbBFhEatAD9jV1Vf95w//I8XPZxkP8P388jb/WXswwNBIxbyMvzKfVMQyNytR9H0Ix9PnE/xjoOhSyMI3O4yEukmHaRnXyQlovXn9gQg6qp64JECgaAQS0SY+0WtiQ0GgDeqOgIWlcCLxo6RgXT+UT2rfrgSp9KHa+rFBA5QUrXx8XP6r88ImqeJ7tCqjS1/tj5AVU8a04qcxQlJWGAIEiECj6EL7fXyZiBaUq6KUZekGHXgail3YoWJFxLwSxw8+al3Q4g9g/Vixcev+SEOthuRcxWwGOWRpXlrdTOVY8qmySvF8zXp79Q+DqHGaktoQvE1Fd9DKReHlK8/DDDxsrYC657NTuMCgvvQjEh3pcxFD5+LbZPx7uhSo+jY5xm2Z1CtNxDoFuEeCFyt0iT7kQgMCAJ4CADvgupAEQgEC3CCCg3SJPuRCAwIAnUPQ30nd9DnTA9zANgAAEciOAgOaGlowhAIHBTsBuYzIjRowwvb29hWwqHmghu4VKQQACIoCA8j2AAAQgkJIAQ/iU4EgGAQhAAA+U7wAEIACBlATYxpQSHMkgAAEIMITnOwABCEAgJQE80JTgSAYBCEAAD5TvAAQgAIGUBLSINHz4cNPX15cyh3yTsQ80X77kDgEIdECAVfgO4JEUAhAoNwEN4fUk0tChQwsJAg+0kN1CpSAAARFgDpTvAQQgAIGUBJgDDcBt2LAhuOIUAhCAQHMCQ4YMMWPGjOFlIs0xEQsBCECglgCLSLVMuAMBCEAgEQEENBEmjCAAAQjUEkBAa5lwBwIQgEAiAghoIkwYQQACEKglgIDWMuEOBCAAgUQE2AeaCBNGEIAABGoJ4IHWMuEOBCAAgUQE8EATYRocRsuWLTNLlixxjTnkkEPMhAkTzKRJkwZH42gFBLpAQAI6bNgw3sbUBfb9UuSWLVvMvHnzzJe//GWzffv2mjLHjx9vLrzwQnP11Vebo446qiaeGxCAQGMCGsLzOrvGfAZ0zN/93d+Zz372s044R48ebS666CLncerdhTt27DBPPPGEeeCBB8ymTZuMhFRCe8EFFwzoNlN5CPQngaILqIkShP379yewKpfJ7NmzI/tFiqxwRrfeemvUjNFf/dVfRT09Pc7+pptuKhcoWguBDghYAY327NnTQQ75JuV1din+nH7pS18y1157rfMqFy9e7I6tsnnmmWfM+eefb9auXWsefPBBM2XKlFZJiIdA6QloDpT3gQ6ir4EE8Mwzz3TzMknF0zd/6dKl5h3veIcZO3as0YKThv0ECECgMYGiLyIxhG/Tw582bZobiv/DP/xDmyl/Y+6H/gzlU+EjUckI2LWEaPfu3YVtdaGH8FrVvuOOO9zCixZhmgV5hvpMnjy5mVnHcdqapLBmzZqWee3du9d8/OMfNz/96U/d9ib9LIHapLaccMIJ5sknn2yZBwYQKDMBNtIHvS/xuOaaa4I7jU8XLFhg5syZY6zHZqZOnWruueeexsY2Zvr06WbhwoXyqJvadRIpIdTw3XqhRvVrFiTm73vf+8xTTz1lzjjjDPPoo49WzM877zxz//33m23btjGMr1DhZKARsAun5oADDsi12qzCB8639doi631VfSx9t5Idv69ksrfiGdm5w0ouixYtcukVFwY/tA7vZX1+1113ueH7bbfdVpX1P//zP7u6+psPP/xwdPTRRzvbT3ziEzUr9DNnznRxYbt8Wo4QGAgEtm7dHj3zzKrcV8g1hC/yKnzX50AlnHbYnfg7Yz0/Jz7dEFBftvV0K/X97//+b1efd7/73e6eXaF31729vdHcuXMrduGJnwe1+0Ijia31RMNoziFQeAISz2XLfp67iGobU5HnQAstoBIWu9Jd8e507r03eaJhXCMPVHlI+CRadhqgkleab6g8TXnMX/nKV6qS6w+A7v/BH/yBO+qPwmOPPVZlE174NiiN/7zzne+MJMxF/rKEbeC83AR2797jxDNvEUVAW3zPmnmgEkgJjPf4vNiERx9XT0AVp43usg+PPk2LqtVEr1ixwuX10Y9+tCrO11PlTJw4saVIe8GVqF933XXOA/dtEo8f/OAHVflzAYEiEugPEZWAMoRv0vvtCKiy8cPoVkN4xUs07cs8KoKme7rWfZ2nCePGjXPpd+3aVZX8j/7ojyK7QBbt3Lmz6n78QuVKLE8//fSqKN3/3Oc+5+IUP3/+/Kp4LiBQRAJ5iygeaItez0tAvUcaF0ovYBpGpwl+/lLHNMHXq5EXvHr1ardIJhH913/91zRFkAYC/UogTxFFQFt0ZV4CKk/Te58SzfDTrMwW1XULPocddpjzQleuXNnKvCr+e9/7nvMwVX6zYF+J5/K3v4cdbd26tZkpcRAoBIG8RJRV+Bbd20zM/Nxi6K0lHcIrXz+vWO/YSsSaVfu+++6rCKE8xiTBPv/uRFF10cp9PNx4443RWWedVZnv6dTTjefPNQTyJKB5Sr8yv3z5iujll1/JpDgEtAXGPAW0kQfqvdEWVWsarS1IEkO7kTiyr7RzHm69BNoFYJ9GqhLzD37wg1VzpV4s7VNOlSzsQwdOcDVf2+xNT5UEnECgSwTyEk81BwFt0al5Cag24Et88txj+cMf/rAyX6l9n1pdt29pclum7AuUo7PPPjsaMmSIE0+J43/+539G2i8q4fX7RkPxtE8vVdHy2500pCdAoIgE8hRPtZdV+Ba9nlZAtQ80DH5xxt/zw//4YpGe/pGAyT6LoNV4TSu88Y1vrPIyVYY+ElXtH33llf8f0ngRtW+odzYS17h4qm72LfcuXukJECgagbzFU+1FQFv0ersCKo8yFCcvpHEBVbGzZs1ytipD8X7/pYb2eXimGm488sgj7gkk1bHZSr32i8pGXnI98VT9/XxvOAes+wQIdJtAKJ6a+9QiUh5B/6eK/HCJSdLoPOfgZsyY0VBoNFcp4ZM3GQYNaeVZhnESG13Hg+5rOC/x1FFzl3mIZ1iu6idxjHu/3sYP2/1b6vUEU739o3rmXvnceeedPilHCHSdwN69+yoLRnmKpxqKB9r17u7/CngvWaIdD148NWx/+umnIy0oSSTriag25isu/gcknifXEOhvAhs3vuRENC/P07eHfaCeRMmOEk8tLIXebiie8q4V5Hn6OdGPfOQj7p7/R1MPo0aNil599VV/iyMECkNAnmjeAQ80b8IFzf/mm2923qPmYX2QqB5//PE1c54SUft7SdFxxx1XEUs//1lvWsLnxxECg51A0QW00G+kt8PXARusKJpTTjnF2AUi91Llk08+2bXFToibYcOG1W2XXdE3Bx54oEujH5177rnnjN2ob6wnWteemxAY7AT0m0j6XXg7mitkUxHQHLvFzl2ac88919gXkLg30icRwhdffNG99V7C+cUvftF8+tOfzrGGZA2BYhMouoB2fRV+sA9B/vqv/9oN5TWXqWH9a6+91rDJ3/nOd9ww3n6l3RashoZEQKAkBIq+iIQH2g9/gO+++25j3/vphubyQu1cqLF7Uc0hhxxi9u3bZ5YvX25k8/zzz5uRI0ca+1y8sVug+qFmFAGBYhMougeKgPbT90dzobfeequxXqYT0nixdkO9ueKKK4x9BJQ5zzgcrktLwHqgbg60r6+vkAwQ0C50i/0dJPeLnPqVUgUtMP3Wb/0Wv9DZhb6gyGITwAMtdv9QOwhAoMAE5IGOGDGCVfgC9xFVgwAECkoAD7SgHUO1IACB4hOQgGrfNHOgxe8raggBCBSMAB5owTqE6kAAAgOHAAI6cPqKmkIAAgUjwBC+YB1CdSAAgYFDgH2gA6evqCkEIFAwAgho0CFyxwkQgAAEkhLQ28sOPvhgVuEFbMuWLUm5YQcBCEBALzty74zgdXZ8GSAAAQi0SYAnkdoEhjkEIAABT4BVeE+CIwQgAIE2CbAPtE1gmEMAAhDwBBBQT4IjBCAAgTYJMIRvExjmEIAABDwBBNST4AgBCECgTQIM4dsEhjkEIAABTwAB9SQ4QgACEGiTAALaJjDMIQABCHgCCKgnUeLjnj17zIYNGyo/W3ziiSe6ny8uMRKaDoFEBCSgvJE+EarBZfTss8+ab3zjG+bee+81Tz75ZE3jTjjhBHPWWWeZadOmmXPOOacmnhsQgIAxeKAl+xasX7/eXH/99WbhwoWVluttMmPGjDFHH3202blzp3nuueeM/0ljGZ1++unmm9/8Jr8HXyHGCQR+QwABLdE34T/+4z/MxRdfbF566SX3G+8XXXSR+fCHP2ze8pa3mFGjRlWRWLp0qfn6179u7r77brN27VoXN3v2bDNr1qwqOy4gUGYCDOFL0vt33HGHueKKK8z+/fvNlClTzFe/+tVEHuWmTZvM7bffbubMmeNIIaIl+cLQzEQEiv42Jr1vr2WwotDSJg+DJUuWROPHj4/mzZvXMvsFCxZEdj6xpV0eBosXL47st8F9rAeZqoj77rsvOuigg1weN9xwQ6o8SASBwUbACmhkX6pc2Gb1q4CuWbOmIjRecBodRUzCqfhQGLdt2xZJsHQMg2xk29/Bzmc6kVfZacXT1/nb3/52hY/aSIBAkQns3Lkr9+rt2LEjsrtYci8nbQE9Smj/8zcNMunp6WlqkyRSCyeLFi2qMr3mmmvcUHfGjBlV97U6rfDQQw+ZSZMmuTlFXWtxZvr06caKcdUQWfcUl6A5yiazcOWVV7rh+tlnn20efvjhhvmuXLnSbWUaPXq0a08jw8997nPmxhtvdCvzajsBAkUksH79BrNt2w5z1FHjzNixY3KrIkN4KXSToCH65MmTm1hUR2mobnsrkjcbhm54oKrD0KFD69bH1002b3rTmyqepequNsfr7+337dsXHXPMMc7+wQcf9Lc5QqBQBNavfz5atuzn7rNx44u51Y0hfAu0zQRUc6ASV+u1ulx0LnuJkM7DuEYCqmkAn05H66W2qFHyaC/mduW9YaKJEye6+lrPMzr33HOjI4880l2rHY3CzTff7Gze+973NjLhPgS6TqA/RBQBbdHNzQRU84ASSy96EkmJoO5NnTrVzY36ucJ6AurvKY1d3XZpfNoW1UoUfd5557m63HXXXQ3tTzvtNCf6dvrC2axYscKlUT0aeaEvvPCCs5HoyiMlQKCoBPIWUQS0Rc+3I6DKynt9cfHxYumL83bxhR1dS7y8V+vt0xzHjh3r8pLgJQ2PP/64S3PEEUc0TeI97V/+8pdN7YiEQLcJ5CmiEtAiLyJp0aVlyHMbU14C6oft9Ronz06C20nQ1goJsf251cTZ2M3z0bHHHuvS3XTTTU3Tvec973F29lHQpnZEQqAIBDZufCmXOVE80Ba9m5eAKl8vlBLL8KP7dmW/Rc2aR69bt84JnAQxSZDH7Bec4l5xvfSXXHKJy/9f/uVf6kVzDwKFI7B27bqKiG7dWr3NMG1lEdAW5PIWUHmi9T6deqASRHmgqn+ScNlllzl7u20riXlkn2Zy9vbx0ET2GEGgmwS2bt1eEc+VK1dHe/dmM3df9H2gg3YILw+zUy+z2ReyXQH9/d//fSeIftGrWd6K81uftBOBAIEiEwjFc9265zMTT7UZD7RFz6f1QOPCIo9SHqEPWnXXddxO8VpgSipkPr/4sV0BtW9bctMI9sUh8axqrn3emmogQKDIBOLimXVdEdAWRNsVUK2eSxhnzpzpxNE/0hkXUImQBEj5e7HUPaVTer81qkX1GkZ7kUs6hFc9k67W+x0EH/rQhxqWTwQEuk0gb/FU+xjCt+jldgVUQqShuUQwFMK4gKpYeZ/K39vqKFGdO3dui1q1jm5XQH09JI6tgrfNYqtVq7KIh0AaAuGqu4bteQV5oEXextSvz8JbAasJ/l2YVjRq4nRD8Vb0Ks/CeyO9T1PP1lsxdXE616dePnqmXPkoztv7fNIeld+ECRNcnlZMm2ajeslWxz//8z839m1LDe31Wju90k72q1evbmhHBAS6RWDfvv1m1arVZs+e18yhhx5ijj32qNyqwvtAc0Pb3YzbEVDVVIL/4x//2Fx11VXuN17q1f5rX/uaufTSS12URFmCT4BAEQlIPDdv3upeJpJn/XgjfZ50u5h3uwLaqqp2v6f51Kc+ZeyQxb2VXl4oAQJlJ4CADtJvQFYCqmG9hu32pSeOlN1k74bwgxQbzYJAWwQYwreFa+AYdyqgjz32mPm3f/s3c8stt7i5UftIqPmbv/kbY3cJDBwI1BQCORNAQHMG3K3svYBqgUsLU0mCfbOS2bhxo3ux8q5duypJ7JNSZv78+ebUU0+t3OMEAhD4zc8a87vwg/CbEK6sp2ne61//evOBD3zAXHDBBUYCSoAABGoJMAday2TQ3JEXqk/SMGTIEPO6173OjBs3rmZbVtI8sINAmQggoGXqbdoKAQhkSoA50ExxkhkEIFAmAnigZept2goBCGRKQPuiR4wYYbRLpYih649yFhEKdYIABIpBAA+0GP1ALSAAgQFIAAEdgJ1GlSEAgWIQ0BB++PDhpq+vrxgVitWCIXwMCJcQgEBxCCCgxekLagIBCAwwAgzhB1iHUV0IQKA4BPBAi9MX1AQCEBhgBBDQoMPaeewxSMYpBCBQUgLa/3n44YeziFTS/qfZEIBABwTkgbKRvgOAJIUABMpLAAEtb9/TcghAoEMCEtCRI0eaoUOHdphTPsnZB5oPV3KFAAQyIMAiUgYQyQICECgnAe0D5Y305ex7Wg0BCHRIAAHtECDJIQCB8hLgSaTy9j0thwAEOiTAHGiHAEkOAQiUlwACWt6+N+r8f/qnfzIPPPCAWb9+vftBucsuu8x88IMfNAceeGCJydB0CCQjwBA+GadBZ6XHVt/1rnc5sZw2bZoZP368WbFihbntttvMD3/4Q/fRPQIEINCYgJwQnkRqzGfQxrz1rW81H/3oR80f/uEf1rTx+9//vrn22mvN008/XRPHDQhA4P8J4IH+P4vSnH33u981ixYtMgsWLHBtPv30083WrVvNJz/5STNz5kx374orrjDvfe97zfvf//7ScKGhEGiXAALaLrFBYP8nf/In5pxzzjEXXHCBa82ECRPMXXfdZT72sY+ZJUuWuHs/+MEPzDe/+c2KyA6CZtMECGROAAHNHGnxM5w+fbrRvKdEVOGggw4yGtJv3LjR/OQnPzGjR482zz77rPnEJz7h5kKL3yJqCIHuEJCA8iRSB+w1FJ40aZJbhOkgm8yTvvLKK+anP/2pee6555wghnWUB3raaaeZSy65xJUrD1TtuPrqq82NN95ozjrrLLcyf88997hFJRlp0emhhx5y9lpcmjx5sjvnHwiUmQDbmILe3759u5k/f35wp/HprFmzzMKFC4335vx8YqMUspN9FEWNTDK7L7GbOnWqeec73+m2JqnMu+++23mZX/jCF8zPf/5z8/nPf77iXWrovmXLFiecfg5UHuqHPvQh8/a3v90tNL300ktGc6VacfzFL35hfvzjHztxffe7351ZvckIAgONQNEFVILTMuzfv7+lTRKDNWvWSN0SfZSfnS+MrGcXWU+tkr310iIrPtG2bdsq93Sie8q7P8KLL74YrVq1qqaouXPnRqecckpkhx3Rhz/84Wj27NmR6nvLLbdEarsPc+bMic477zx3qfbdfPPNPqpylP2JJ54Y/ehHP6rc4wQCRSFgR2D2O70u2rt3X65VsgIa7dmzJ9cyOsk8keJkJaD1KmqHq5EdrtaLqnvPeqJOKENBkmF/Caj1PKvqdd9999kv0prKvWuuucYJpwT+0ksvjdS+v/3bv41OPfXU6Ktf/apr6/nnn+/+AOh6xowZlbR2mO/S+vx0lCDv3bu3YsMJBLpNQKK5fPmKaNmyn0crV67OVUR37NgR7d69u9tNblh+oQVUIiQR8d6mzufNm+cEdPHixVVxzQRUnqzs9ekkyJu0K+tVWUgg/+zP/qxyT3X97d/+bXd97733Rna/pzt/85vfHH384x+vqoO8T7VJQcIrwb311lujG264wd3TPxdffHFkh/OVa04gUAQCW7dudwKat4jigbbo7WYeqARPw3I7t+lyqTf893H1BFTiJO82TKfyJKhpgrxfDct9sPs9I3mkyvPVV1/1t921Luy8aEVA7fxmZFfhKzY6OfrooyvX48aNq5yHJyrPtzG8zzkEuk1g585d1hN9NldPFAFt0cvtCKgEVYIiQZSY6dp7p3EBlXgqb31kp2sddW23EVXStaheVfQdd9wR2UWgyr3LL788esc73uGE8P7776/cP/LII9253fsZffrTn3bn9QTUrs5X0px88smujrrx+OOPV+5fd911kYb2BAgUkYDmQvMUUQS0Ra+3I6DKSsIpAZUghiEuoBK6enYSUd0PPckwn2bnEus3vOENzkTnqvtjjz0Wfe1rX4vsE0Xuvt3aFNmVc3d+5513NhXQc88914m6jO0LRyK7V9Qtmtknllx6/aNh/urVqyvXnECgaATyFFHNgbKI1KTH8xJQDd0bLU6pzPhiUJMqVkV96lOfiuwWJXdv586dlTgJqhbbtOjzve99z91vJaASc82N6kvig90i5U8jrerrDwMBAkUnEIroM8+sykz0ENAWPZ+XgCpfeZqNPopPEySUJ510UnT99ddH2s7kg33CKDr77LMju3/V34o0hLeb6t21hvBaHIrPZ8r+hBNOsKuZKyvpVIby1/1QUCsGnECggAS0rUmLSvrs2PHrTGqoIXyRV+G7/qucekrHipmx3pjVuuqgJ3OmTJlirOgYO9/oInWuTfN2CO/S+RTxjfTKV49MWi/Om1QdFWeHx1X32rnQE0Xf+c533EtCDj74YDNmzBijzf/W661k861vfcs8+uij5ktf+pI544wz3Gfz5s3uXl9fn7nwwguN3cbkNs3LZtOmTcZuWTLDhw83H/jAB9yLR1RPAgSKTmD9+g1m27YdrprHHnuUOfTQQzKpshXQQr/OziT5M9GtfaB+vjL02pLOgWr4rsWibgYrsFUeqFbhtbXJPoHkqqWV97Fjx0Zve9vboqeeeqqbVaVsCKQisG/fPrcX1Hue2t6UZSi6BzpgBVTiGob4IpIX2vhikRafNP+p/aRZB21bCp+a0rkfwmsz/a5duyJtvLcvEXFFv+Utb4nsO0HdUD/cUJ91vcgPAnkQyFs8VWdW4Vv0nB2+N1zsqeeB+ntKp5V2L6RxAVWx8kLtOMItxEhIZS+vVGklpFkGbYRXHbSy7kVb24+8gPqyNL/pV9XPPPPMSAtR2gJ11VVXeROOECg8gf4QT0FgEanFV0HeYLi3MjTXhneJoBdJHyfvUvclhD5OoqV78aCVbG0Fkq0X3azFU2W+5z3vcRv0tRp55ZVXujbVE9CwfhJTBQQ0pML5QCCgRzjzGraH7ZeAsoiUyXRysTPRez71g3FPPPGEW7yygm5uv/1290o7LRA1C1ZIzbp168zEiRObmREHgcIQ2LRps9m8eYs56qgjMlswqte4oi8idX0Vvh60gXrPPsfuVuatV+ya8Jd/+Zdm1KhRRu8HJUBgsBHYs+c109fXm2uzJKDalaJdK0UMCGjGvfIXf/EXxs5rNtw+Va+4Bx980NgnmsxnP/vZetHcg0BpCfBG+hJ2vV1MMscff7yxm+ETtd6+L9TYSXljF6IS2WMEgbIQwAMtS08H7bQT38YuaBm7su5+9yiIqjnV/Kd+/kPDfrvIVRPPDQiUmQACWtLe189+6Fc5tZCkn+1oFPSTHRLbP/3TP21kwn0IlJYAAlrarjfuZ4vtq+mM/cmOuhQksnoE1S861TXiJgRKTAABLXHn61c3H3nkEQS0xN8Bmt4ZAX4XvjN+Azq1Xoainz7+zGc+U7cd8kCvuOIKo1V4AgQgUEtAHqh+qba3N9/tUrUlJ7vDNqZknLCCAAS6QAAB7QJ0ioQABAYHAfaBDo5+pBUQgEAXCOCBdgE6RUIAAoODAB7o4OhHWgEBCHSBANuYugCdIiEAgcFBAA90cPQjrYAABLpAAAHtAnSKhAAEBgcBBHRw9COtgAAEukBAAqr3gbKR3sLfsGFDF7qAIiEAgYFKYMiQIfaN94fyQuWB2oHUGwIQ6B4BhvDdY0/JEIDAACfAEH6AdyDVhwAEukeAJ5G6x56SIQCBAU4AD3SAdyDVhwAEukeAOdDusadkCEBggBPAAx3gHUj1IQCB7hHAA+0ee0qGAAQGOAEWkQZ4B1J9CECgewR4G1P32FMyBCAwwAkwBzrAOzBJ9X/1q1+Zf//3fzdjxoxxnxNPPNEceeSRSZJiAwEINCHAHGgTOIMh6tvf/ra57LLLzMsvv1zVHD3D+4Y3vMGMGzfOHHjggeZ3fud3zDHHHGMkrhJaHUePHl2VhgsIQKCaAB5oNY9BdRVFkTn++OPNpEmTzN///d+bV155xWzatMls3brVrFixwsgz1XHLli3uuH379qr2jxw50nmqxx57rDn88MOdqEpkJbyHHXaYOfXUU6vsuYBA2QjggQ7iHv+v//ov87a3vc088MAD5l3veleilq5bt86sXr3avPjii+aZZ54x4bXEV2Lrg4T185//vLn88sv9LY4QKBUBBHQQd/f3v/99c/7555uf/exn5s1vfnMmLZUX673Wr3zlK+bee+81L7zwghk7dmwm+ZMJBAYSAVbhO+ittWvXmmuuucbMmDHDTJ48uWlOixYtMsuWLTOzZs1qapdl5D/+4z+aq666ys1/jhgxIsusXV6aCtBQfuHChXihmdMlw4FAgH2gQS9JEKdMmRLcaXy6Zs0aM3/+fDNz5kwzbdo0s2DBAmeseUR9xo8fX5V4+vTpTmg0L5ln0PD7yiuvNGqLr8txxx3XcZES4DPOOMPcdNNNbuFJGWp4r7zvueceM3Xq1I7LIAMIZElg//795oADDsgyy5q8WEQKkEhw5FGGQZ6jVqPjHqYEU/YPPfSQW6TxgilvTGIpgfX3lF9/COhrr73mFnhU3iWXXGKGDh2q00yCFpy+9a1vmRNOOME88cQTLk+1XX9wFi9eXMMnk0LJBAIpCWzatNls3rzVfl+Psz+5MSxlLq2TFd0DNdZjaxnsX5qWNmkNrAhGVjwTJ7fCKhczsgJalcZ6qe5+1c2ML6zYuzKWLFmScc6/yc4KpcvfCqi7ceedd7rrpUuX5lIemUIgDYG9e/dFK1eujpYt+3m0fPmz0SuvvJomm0RpduzYEe3ZsyeRbTeMCi2gEsnZs2dHXrB0boeyTlTs0L4qrpGASpQUJ5HW0Q6HU3P24r1+/fq28rALQ07wt23b1jSd2qs/DhJqhTlz5rjrV1/N7wvatEJEQqABgf4SUQS0QQf42808UO+R2WG7M5cI2j2XTlR01LVsFOoJqARXgmSnCJzwqixd636akEZAn3zyycguBLlyVbZd5GpYdFxAr7322siuvje0JwIC3SQQF9GtW7dnXh0EtAXSdgRUWXkRk9iEIS6gXnzjgiXPVULmhTfMo9W5LzupB2q3H0Vqn8TePrEUXXfdda5suz2pblFxAX3f+94Xvf3tb69ry00IFIFAKKIa0mctohLQ3bt3F6GpdetQ6CG8F0HvgaoFXsRaCagEVZ5nPGgYrfuKbzf4spMKqN3D6QTTT0GoPLvS7rzhemXHBfTMM8+MJKIECBSZQJ4iaheRENBmnZ+XByqvT3lL9OIfCaji2w3KR95rUgF95JFHarxd1en9739/3aLjAmqfmXdea11jbkKgQATyElEJKItITTo6LwFVvhJKHet92ln599VvV0CVbuLEiZF9JDP6yEc+4uZsJcCPP/64z7LqGAqofTmJE1+7F7bKhgsIFJGAFkqXL1/hVuafeWaV9RqzWTnHA23R23kKaBovs1l1GwmoxO6LX/xidOGFF0af/OQno2effbaSzXPPPeemC0466SQnoPfdd18lLjzR1MIf//EfO9HUKrx9PNSdf+Mb3wjNOIdA4QjkJZ5qKALaorvzElC/WBSfK1V1NCcZzku2qGIlup6Arly5MjrllFOc2Plpg56enuiWW26ppGt2smvXLrddSd6yPvJQJaD333+/O0+z2NWsPOIgkCWBPMVT9WQI36K30gqoBDIM8VV4CaTESKLmRVRent/aFC5Mhfk0O48L6O23316ZJvjRj37kkqoMv1e11XYpieOb3vQmV89LL700sk8eVQTUl7Vq1apmVSIOAl0jEIqnNtZnNWwPG8QqfEijznm7AiqBUhqJoz5eCOMCqqIkQt6rUxp/bl9OUqcmrW95UXvqqaeij33sY678iy++ONq4cWNNYm2fUv20dSke7PP00e/93u+5+NNOOy3yXmY4B3rDDTe4+HhariFQBAJx8dQiUh6BfaAtqOrJoEZPB0ksJVreg/RZ6Vppwjh5b7qOB9nqvrzBefPmVcQqbpfkWvlIFLU6bl+GHM2dO7dpMi+iWnVXPdQeCaofrt92221V6WWj/DWEt295cn8oqgy4gEBBCGihSPs+5XnmJZ5qKh5oQTo8i2p4AZU3a9/ZmSjLW2+9NdKcqIRRH/vzHpGmHySm8RAKqHYJpNkpEM+TawjkQUAe6C9/uTZX8VS9i+6B9qiS9j920yATKwJNbcoQaacL3Fufnn76aWPnLhM3Wa++04/O2f1s5qKLLnI/31EvsewmTJhgPvOZz7jX2uk9qNZrrmfKPQiUggCvsxtE3ewF1G6kdz8Ql3XTvIAqX/0Ind54b73drIshPwgMGAL8pMeA6arWFe0vAdWLpO2e0NYVwgICg5wAHugg6uCvf/3rxj5RZB599FH39vism/blL3/ZXH311ebhhx82Z599dtbZkx8EBhwBBHTAdVnjCuu3308++WT3pnz7iGZjwxQxevv+8uXLzVvf+lbzk5/8JEUOJIHA4COAgA6yPtU85Re+8AX3y5lZNu3ggw82v/u7v2uuv/76LLMlLwgMaAL2SST7kyHDTV9fXyHbwSp8IbuFSkEAAiLAIhLfAwhAAAIpCeCBpgRHMghAAAJ4oHwHIAABCKQkwCJSSnAkgwAEICABHTFihBk6dGghYbCIVMhuoVIQgIAIMAfK9wACEIBASgISUHmgvb29KXPINxkeaL58yR0CEOiAAHOgHcAjKQQgUG4CrMKXu/9pPQQg0AEBBDSAt2HDhuCKUwhAAALNCRxwwAHmsMMOYw5UmHbv3t2cFrEQgAAEAgJ6gc+oUaMQ0IAJpxCAAAQSEWARKREmjCAAAQjUEkBAa5lwBwIQgEAiAmykT4QJIwhAAAK1BPBAa5lwBwIQgEAiAjyJlAgTRhCAAARqCbAPtJYJdyAAAQgkIsAQPhEmjCAAAQjUEsADrWXCHQhAAAKJCLAKnwgTRhCAAARqCbCIVMuEOxCAAAQSEUBAE2HCCAIQgEAtAQS0lgl3IAABCCQigIAmwoQRBCAAgVoCCGgtE+5AAAIQSEQAAU2ECSMIQAACtQQQ0Fom3IEABCCQiIAEdPjw4aavry+RfX8b8auc/U2c8iAAgcQEeBIpMSoMIQABCFQTQECreXAFAQhAIDEB5kATo8IQAhCAQDUBPNBqHlxBAAIQSEwAAU2MCkMIQAAC1QQkoFqF7+3trY4oyBWr8AXpCKoBAQjUEmAOtJYJdyAAAQgkIoAHmggTRhCAAARqCTAHWsuEOxCAAAQSEcADTYQJIwhAAAK1BBDQWibcgQAEIJCIAItIiTBhBAEIQKCWAC8TqWXCHQhAAAKJCDCET4QJIwhAAAK1BBjC1zLhDgQgAIFEBPBAE2HCCAIQgEAtAQS0lgl3IAABCCQigIAmwoQRBCAAgVoCzIHWMuEOBCAAgUQE5IEOGzaM30RKRAsjCEAAAgEB9oEGMDiFAAQg0A4BBLQdWthCAAIQCAiwiBTA4BQCEIBAOwQQ0HZoYQsBCEAgIMAQPoDBKQQgAIF2CLAK3w4tbCEAAQgEBBDQAAanEIAABNohgIC2QwtbCEAAAgEBFpECGJxCAAIQaIcAAtoOLWwhAAEIBAR4Fj6AwSkEIACBdgggoO3QwhYCEIBAQIAhfACDUwhAAALtEMADbYcWthCAAAQCAmxjCmBwCgEIQKAdAgzh26GFLQQgAIGAAB5oAINTCEAAAu0QwANthxa2EIAABAICvI0pgMEpBCAAgXYIsArfDi1sIQABCAQENIQfMWKEGTp0aHC3OKc9kQ2tqiOTnp6eVmbEQwACEMiUAHOgmeIkMwhAoEwEmAMtU2/TVghAIFMCeKCZ4iQzCECgTARYRCpTb9NWCEAgUwIIaKY4yQwCECgTAQS0TL1NWyEAgUwJIKCZ4iQzCECgTAQQ0DL1Nm2FAAQyJcAqfKY4yQwCECgTATzQMvU2bYUABDIlgAeaKU4ygwAEykRAAjps2DDT19dXyGbzLHwhu4VKQQACIqAh/PDhwxFQvg4QgAAE2iWAgLZLDHsIQAAC/0eAOVC+ChCAAARSEpCA8j7QlPBIBgEIlJsAi0jl7n9aDwEIdECAOdAO4JEUAhAoNwE20pe7/2k9BCDQAQE80A7gkRQCECg3ATzQcvc/rYcABDogwCJSB/BICgEIlJsAAlru/qf1EIBABwQkoHqUs7e3t4Nc8kvKs/D5sSVnCECgQwJ4oB0CJDkEIFBeAghoefuelkMAAh0SYBW+Q4AkhwAEyksAAS1v39NyCECgQwIIaIcASQ4BCJSXAKvw5e17Wg4BCHRIAAHtECDJIQCB8hLQEJ6f9Chv/9NyCECgAwJ4oB3AIykEIFBuAuwDLXf/03oIQKADAnigHcAjKQQgUG4CCGi5+5/WQwACHRBAQDuAR1IIQKDcBBDQcvc/rYcABDogIAEdNmyY6evr6yCX/JLyOrv82JIzBCDQIQE80A4BkhwCECgvATbSl7fvaTkEINAhATzQDgGSHAIQKC8B3sZU3r6n5RCAQIcE8EA7BEhyCECgvARYhS9v39NyCECgQwJ4oB0CJDkEIFBeAghoefuelkMAAh0SYAjfIUCSQwAC5SXAPtDy9j0thwAEOiSAgHYIkOQQgEB5CSCg5e17Wg4BCHRIgI30HQIkOQQgUF4CCGh5+56WQwACHRJgFb5DgCSHAATKS4B9oOXte1oOAQh0SAAB7RAgySEAgfISYAhf3r6n5RCAQIcEENAOAZIcAhAoLwGG8OXte1oOAQh0SAAB7RAgySEAgfISQEDL2/e0HAIQ6JAAAtohQJJDAALlJSAB5Xfhy9v/tBwCEOiAAB5oB/BICgEIlJsAAlru/qf1EIBABwQYwncAj6QQgEC5CfA2pnL3P62HAAQ6IIAH2gE8kkIAAuUmgAda7v6n9RCAQAcEENAO4JEUAhAoNwGG8OXuf1oPAQh0QAAB7QAeSSEAgXITQEDL3f+0HgIQ6ICABHT48OGmt7e3g1zyS9oT2dAqe5n09PS0MiMeAhCAQKYE8EAzxUlmEIBAmQggoGXqbdoKAQhkSoBtTJniJDMIQKBMBPBAy9TbtBUCEMiUAAKaKU4ygwAEykSAIXyZepu2QgACmRKQB8o2pkyRkhkEIFAWAgzhy9LTtBMCEMicAB5o5kjJEAIQKAsBBLQsPU07IQCBzAkwhM8cKRlCAAJlIYCAlqWnaScEIJA5AQQ0c6RkCAEIlIUAc6Bl6WnaCQEIZE4AAc0cKRlCAAJlIcAQviw9TTshAIHMCeCBZo6UDCEAgbIQ4Fn4svQ07YQABDIngAeaOVIyhAAEykIAAS1LT9NOCEAgcwIawuttTH19fZnnnUWG/KhcFhTJAwIQyIUAApoLVjKFAATKQIAhfBl6mTZCAAK5EMADzQUrmUIAAmUggICWoZdpIwQgkAsBBDQXrGQKAQiUgYAEdMSIEaa3t7eQzWUVvpDdQqUgAAERQED5HkAAAhBISUACOnLkSDN06NCUOeSbDA80X77kDgEIdECAOdAO4JEUAhAoNwHtAx02bBhPIpX7a0DrIQCBNAQQ0DTUSAMBCEDAEuBJJL4GEIAABFISYA40JTiSQQACEEBA+Q5AAAIQSEmAIXxKcCSDAAQgIA+UJ5H4HkAAAhBIQQAPNAU0kkAAAhAQAQSU7wEEIACBlAQQ0JTgSAYBCEBAAsqTSHwPIAABCKQgwDamFNBIAgEIQEAEEFC+BxCAAARSEmAONCU4kkEAAhDAA+U7AAEIQCAlATzQlOBIBgEIQAAB5TsAAQhAICUBBDQlOJJBAAIQ4Fl4vgMQgAAEUhJAQFOCIxkEIAABDeF5EonvAQQgAIEUBPBAU0AjCQQgAAERwAPlewABCEAgJQFW4VOCIxkEIAABhvB8ByAAAQikJCABHT58uOnr60uZQ77JeiIbWhUhk56enlZmxEMAAhDIlAAeaKY4yQwCECgTATzQMvU2bYUABDIlwCp8pjjJDAIQKBMBPNAy9TZthQAEMiWAgGaKk8wgAIEyEUBAy9TbtBUCEMiUAAKaKU4ygwAEykSAJ5HK1Nu0FQIQyJSAPNARI0aY3t7eTPPNKjM20mdFknwgAIHMCSCgmSMlQwhAoCwE2Adalp6mnRCAQOYE8EAzR0qGEIBAWQjggZalp2knBCCQOQG2MWWOlAwhAIGyEMADLUtP004IQCBzAgho5kjJEAIQKAsBBLQsPU07IQCBzAlIQPVGejbSZ46WDCEAgcFOAA90sPcw7YMABHIjgIDmhpaMIQCBwU6AIfxg72HaBwEI5EaAJ5FyQ0vGEIDAYCeABzrYe5j2QQACuREo+hzo/wIAAP//MdRz0gAAFXJJREFU7d1BbuNIDAVQC7Blu+9/0pkDZFLA7I0mWYCh/7KNyW4+FoiSSnKOn9+f24ef9ZHjOD58yq8JECAwK/Dvv//eXq/X7fF4zCYeynYYoEOS0hAgMC6wBujz+byd5zmeeyKhATqhKAcBAlsE/vnnn9v7/bYD3aIrKQEClxZYA3RdwtuBXrrNiiNAYIeAe6A7VOUkQCBCwD3QiDYrkgCBHQJ2oDtU5SRAIELADjSizYokQGCHgAG6Q1VOAgQiBJzCR7RZkQQI7BDwHOgOVTkJEIgQcIgU0WZFEiCwQ8AOdIeqnAQIRAgYoBFtViQBAjsEDNAdqnISIBAhYIBGtFmRBAjsEFgD1JeJ7JCVkwCBywt4kP7yLVYgAQK7BDzGtEtWXgIELi9gB3r5FiuQAIFdAgboLll5CRC4vIBL+Mu3WIEECOwScAq/S1ZeAgQuL+A50Mu3WIEECOwSsAPdJSsvAQKXF7ADvXyLFUiAwC4Bh0i7ZOUlQODyAh5junyLFUiAwC4BO9BdsvISIHB5AQP08i1WIAECuwQM0F2y8hIgcHkBjzFdvsUKJEBgl4BDpF2y8hIgcHkBO9DLt1iBBAjsErAD3SUrLwEClxdwiHT5FiuQAIFdAmuAvt/v2/1+3/VPtPIeP78/nzKsjxzH8eljfk+AAIFRAfdARzklI0AgScCXiSR1W60ECIwKuAc6yikZAQJJAk7hk7qtVgIERgUM0FFOyQgQSBJwDzSp22olQGBUwAAd5ZSMAIEkAYdISd1WKwECowIG6CinZAQIJAl4kD6p22olQGBUwA50lFMyAgSSBBwiJXVbrQQIjAp4DnSUUzICBJIEXMIndVutBAiMCtiBjnJKRoBAkoBT+KRuq5UAgVEBh0ijnJIRIJAkYIAmdVutBAiMChigo5ySESCQJGCAJnVbrQQIjAoYoKOckhEgkCRggCZ1W60ECIwKGKCjnJIRIJAksAbo6/W6nef5lWX7u/Bf2Rb/KQIEloA3kawDAgQIFAUM0CKcMAIECLgHag0QIECgKGAHWoQTRoAAAQPUGiBAgEBRYA3QdQr/eDyKGfaGOYXf6ys7AQINAfdAG3hCCRDIFrADze6/6gkQaAi4B9rAE0qAQLaAHWh2/1VPgEBDwABt4AklQCBbwCFSdv9VT4BAQ8CXiTTwhBIgkC3gEj67/6onQKAh4BK+gSeUAIFsATvQ7P6rngCBhoAB2sATSoBAtoABmt1/1RMg0BBwD7SBJ5QAgWyBtQN9Pp/+JlL2MlA9AQIVAc+BVtTEECBA4FfAALUMCBAgUBRwiFSEE0aAAAED1BogQIBAUcAlfBFOGAECBJzCWwMECBAoChigRThhBAgQMECtAQIECBQFHCIV4YQRIEDAALUGCBAgUBTwLnwRThgBAgQMUGuAAAECRQGX8EU4YQQIELADtQYIECBQFPAYUxFOGAECBFzCWwMECBAoCtiBFuGEESBAwA7UGiBAgEBRwLcxFeGEESBAwCm8NUCAAIGiwLqEf7/ft/v9XsywN+z4+f359E+sjxzH8eljfk+AAIFRAfdARzklI0AgScA90KRuq5UAgVEBO9BRTskIEEgScIiU1G21EiAwKmCAjnJKRoBAkoABmtRttRIgMCpggI5ySkaAQJKAAZrUbbUSIDAq4BR+lFMyAgSSBOxAk7qtVgIERgXsQEc5JSNAIElgDdDn83k7z/Mry/Yu/Fe2xX+KAIElsC7hX6+XAWo5ECBA4G8FDNC/FfN5AgQI/C/gHqilQIAAgaLAGqC+D7SIJ4wAgWwBh0jZ/Vc9AQINAfdAG3hCCRDIFvAgfXb/VU+AQEPADrSBJ5QAgWwBO9Ds/queAIGGgEOkBp5QAgSyBQzQ7P6rngCBhsAaoOtVzsfj0ciyL9S78PtsZSZAoClgB9oEFE6AQK6AAZrbe5UTINAUcArfBBROgECugAGa23uVEyDQFDBAm4DCCRDIFXAKn9t7lRMg0BQwQJuAwgkQyBVYl/D+pEdu/1VOgEBDwA60gSeUAIFsAc+BZvdf9QQINATsQBt4QgkQyBYwQLP7r3oCBBoCBmgDTygBAtkCBmh2/1VPgEBDYA3Q5/N5O8+zkWVfqK+z22crMwECTQE70CagcAIEcgU8SJ/be5UTINAUsANtAgonQCBXwLcx5fZe5QQINAXsQJuAwgkQyBVwCp/be5UTINAUsANtAgonQCBXwADN7b3KCRBoCriEbwIKJ0AgV8BzoLm9VzkBAk0BA7QJKJwAgVwBAzS39yonQKAp4EH6JqBwAgRyBQzQ3N6rnACBpoBT+CagcAIEcgU8B5rbe5UTINAUMECbgMIJEMgVcAmf23uVEyDQFDBAm4DCCRDIFXAJn9t7lRMg0BQwQJuAwgkQyBUwQHN7r3ICBJoCBmgTUDgBArkCa4D6u/C5/Vc5AQINATvQBp5QAgSyBQzQ7P6rngCBhoBL+AaeUAIEsgV8G1N2/1VPgEBDwA60gSeUAIFsATvQ7P6rngCBhoAB2sATSoBAtoBL+Oz+q54AgYaAAdrAE0qAQLaAAZrdf9UTINAQWAP09XrdHo9HI8u+0OPn9+dT+vWR4zg+fczvCRAgMCpgBzrKKRkBAkkCBmhSt9VKgMCogMeYRjklI0AgScAONKnbaiVAYFTAAB3llIwAgSQBl/BJ3VYrAQKjAmsH6jGmUVLJCBBIEXAJn9JpdRIgMC5gBzpOKiEBAikCBmhKp9VJgMC4gEv4cVIJCRBIETBAUzqtTgIExgUM0HFSCQkQSBFwDzSl0+okQGBcwAAdJ5WQAIEUAZfwKZ1WJwEC4wJ2oOOkEhIgkCLgXfiUTquTAIFxATvQcVIJCRBIETBAUzqtTgIExgXWJfz6NqbzPMdzTyT0R+UmFOUgQGCLgAG6hVVSAgQSBFzCJ3RZjQQIbBGwA93CKikBAgkCBmhCl9VIgMAWAQN0C6ukBAgkCKwB+n6/b4/H4yvLdQr/lW3xnyJAYAkYoNYBAQIEigJrgP758+d2v9+LGfaG2YHu9ZWdAIGGgHugDTyhBAhkC6znQJ/PpzeRspeB6gkQqAgYoBU1MQQIEPgV8CaSZUCAAIGigHugRThhBAgQMECtAQIECBQFXMIX4YQRIEBg7UC9iWQdECBAoCBgB1pAE0KAAIElYIBaBwQIECgKGKBFOGEECBBYA9SbSNYBAQIECgIeYyqgCSFAgMASMECtAwIECBQF3AMtwgkjQICAHag1QIAAgaKAHWgRThgBAgQMUGuAAAECRQEDtAgnjAABAt6FtwYIECBQFDBAi3DCCBAgsC7hvYlkHRAgQKAgYAdaQBNCgACBJWAHah0QIECgKOAUvggnjAABAi7hrQECBAgUBdYAfb1et/M8ixn2hh0/vz+f/on1keM4Pn3M7wkQIDAqYAc6yikZAQJJAnagSd1WKwECowJO4Uc5JSNAIEnADjSp22olQGBUwAAd5ZSMAIEkAQM0qdtqJUBgVMAAHeWUjACBJAFvIiV1W60ECIwKrB3o+/2+PR6P0bxTyTxIPyUpDwEC4wIG6DiphAQIpAh4DjSl0+okQGBcwA50nFRCAgRSBOxAUzqtTgIExgU8xjROKiEBAikCdqApnVYnAQLjAgboOKmEBAikCBigKZ1WJwEC4wJrgK5vpPcg/TithAQIXF3ADvTqHVYfAQLbBAzQbbQSEyBwdQGX8FfvsPoIENgm4E2kbbQSEyBwdQE70Kt3WH0ECGwTcA90G63EBAhcXcAO9OodVh8BAtsE7EC30UpMgMDVBRwiXb3D6iNAYJuAb2PaRisxAQJXF3AP9OodVh8BAtsE3APdRisxAQJXF7ADvXqH1UeAwDYBO9BttBITIHB1AQP06h1WHwEC2wScwm+jlZgAgasLeA706h1WHwEC2wQcIm2jlZgAgasL2IFevcPqI0Bgm4ABuo1WYgIEri5ggF69w+ojQGCbgAG6jVZiAgSuLrAG6Pqzxud5fmWpx8/vz6f/2frIcRyfPub3BAgQGBXwIP0op2QECCQJeIwpqdtqJUBgVMAOdJRTMgIEkgQM0KRuq5UAgVEBl/CjnJIRIJAk4BQ+qdtqJUBgVMBzoKOckhEgkCRgB5rUbbUSIDAqYAc6yikZAQJJAg6RkrqtVgIERgU8xjTKKRkBAkkCdqBJ3VYrAQKjAgboKKdkBAgkCRigSd1WKwECowIeYxrllIwAgSQBh0hJ3VYrAQKjAnago5ySESCQJGAHmtRttRIgMCrgEGmUUzICBJIE1gB9v9+3+/3+lWX7m0hf2Rb/KQIEloB7oNYBAQIEigK+TKQIJ4wAAQLugVoDBAgQKAo4hS/CCSNAgIABag0QIECgKOAeaBFOGAECBAxQa4AAAQJFAYdIRThhBAgQMECtAQIECBQFPEhfhBNGgAABO1BrgAABAkUBh0hFOGEECBDwHKg1QIAAgaKAS/ginDACBAjYgVoDBAgQKAo4hS/CCSNAgIBDJGuAAAECRQEDtAgnjAABAgaoNUCAAIGigAFahBNGgAABA9QaIECAQFHAAC3CCSNAgIABag0QIECgKLAG6Ov1up3nWcywN8zfhd/rKzsBAg0BbyI18IQSIJAtYIBm91/1BAg0BNwDbeAJJUAgW8AONLv/qidAoCFggDbwhBIgkC2wBug6hX88Hl8J4RT+K9viP0WAwBJwD9Q6IECAQFHADrQIJ4wAAQLugVoDBAgQKArYgRbhhBEgQMAAtQYIECBQFHCIVIQTRoAAAV8mYg0QIECgKOASvggnjAABAi7hrQECBAgUBexAi3DCCBAgYIBaAwQIECgKGKBFOGEECBBwD9QaIECAQFFg7UCfz6e/iVT0E0aAQLCA50CDm690AgR6AgZoz080AQLBAg6RgpuvdAIEegIGaM9PNAECwQIu4YObr3QCBHoCTuF7fqIJEAgWMECDm690AgR6AgZoz080AQLBAg6RgpuvdAIEegIGaM9PNAECwQLehQ9uvtIJEOgJGKA9P9EECAQLuIQPbr7SCRDoCdiB9vxEEyAQLOAxpuDmK50AgZ6AS/ien2gCBIIF7ECDm690AgR6AnagPT/RBAgEC/g2puDmK50AgZ6AU/ien2gCBIIF1iX8+/2+3e/3r1Q4fn5/Pv3P1keO4/j0Mb8nQIDAqIB7oKOckhEgkCTgHmhSt9VKgMCogB3oKKdkBAgkCThESuq2WgkQGBUwQEc5JSNAIEnAAE3qtloJEBgVMEBHOSUjQCBJwABN6rZaCRAYFXAKP8opGQECSQJ2oEndVisBAqMCdqCjnJIRIJAksAbo8/m8nef5lWV7F/4r2+I/RYDAEliX8K/XywC1HAgQIPC3Agbo34r5PAECBP4XcA/UUiBAgEBRYA1Q3wdaxBNGgEC2gEOk7P6rngCBhoB7oA08oQQIZAt4kD67/6onQKAhYAfawBNKgEC2gB1odv9VT4BAQ8AhUgNPKAEC2QIGaHb/VU+AQENgDdD1Kufj8Whk2RfqXfh9tjITINAUsANtAgonQCBXwADN7b3KCRBoCjiFbwIKJ0AgV8AAze29ygkQaAoYoE1A4QQI5Ao4hc/tvcoJEGgKGKBNQOEECOQKrEt4f9Ijt/8qJ0CgIWAH2sATSoBAtoDnQLP7r3oCBBoCdqANPKEECGQLGKDZ/Vc9AQINAQO0gSeUAIFsAQM0u/+qJ0CgIbAG6PP5vJ3n2ciyL9TX2e2zlZkAgaaAHWgTUDgBArkCHqTP7b3KCRBoCtiBNgGFEyCQK+DbmHJ7r3ICBJoCdqBNQOEECOQKOIXP7b3KCRBoCtiBNgGFEyCQK2CA5vZe5QQINAVcwjcBhRMgkCvgOdDc3qucAIGmgAHaBBROgECugAGa23uVEyDQFPAgfRNQOAECuQIGaG7vVU6AQFPAKXwTUDgBArkCngPN7b3KCRBoChigTUDhBAjkCriEz+29ygkQaAoYoE1A4QQI5Aq4hM/tvcoJEGgKGKBNQOEECOQKGKC5vVc5AQJNAQO0CSicAIFcgTVA/V343P6rnACBhoAdaANPKAEC2QIGaHb/VU+AQEPAJXwDTygBAtkCvo0pu/+qJ0CgIWAH2sATSoBAtoAdaHb/VU+AQEPAAG3gCSVAIFvAJXx2/1VPgEBDwABt4AklQCBbwADN7r/qCRBoCKwB+nq9bo/Ho5FlX+jx8/vzKf36yHEcnz7m9wQIEBgVsAMd5ZSMAIEkAQM0qdtqJUBgVMBjTKOckhEgkCRgB5rUbbUSIDAqYICOckpGgECSgEv4pG6rlQCBUYG1A/UY0yipZAQIpAi4hE/ptDoJEBgXsAMdJ5WQAIEUAQM0pdPqJEBgXMAl/DiphAQIpAgYoCmdVicBAuMCBug4qYQECKQIuAea0ml1EiAwLmCAjpNKSIBAioBL+JROq5MAgXEBO9BxUgkJEEgR8C58SqfVSYDAuIAd6DiphAQIpAgYoCmdVicBAuMC6xJ+fRvTeZ7juScS+qNyE4pyECCwRcAA3cIqKQECCQIu4RO6rEYCBLYI2IFuYZWUAIEEAQM0octqJEBgi4ABuoVVUgIEEgTWAH2/37fH4/GV5TqF/8q2+E8RILAEDFDrgAABAkWBNUD//Plzu9/vxQx7w+xA9/rKToBAQ8A90AaeUAIEsgXWc6DP59ObSNnLQPUECFQEDNCKmhgCBAj8CngTyTIgQIBAUcA90CKcMAIECBig1gABAgSKAi7hi3DCCBAgsHag3kSyDggQIFAQsAMtoAkhQIDAEjBArQMCBAgUBQzQIpwwAgQIrAHqTSTrgAABAgUBjzEV0IQQIEBgCRig1gEBAgSKAu6BFuGEESBAwA7UGiBAgEBRwA60CCeMAAECBqg1QIAAgaKAAVqEE0aAAAHvwlsDBAgQKAoYoEU4YQQIEFiX8N5Esg4IECBQELADLaAJIUCAwBKwA7UOCBAgUBRwCl+EE0aAAAGX8NYAAQIEigJrgL5er9t5nsUMe8OOn9+fT//E+shxHJ8+5vcECBAYFbADHeWUjACBJAE70KRuq5UAgVEBp/CjnJIRIJAkYAea1G21EiAwKmCAjnJKRoBAkoABmtRttRIgMCpggI5ySkaAQJKAN5GSuq1WAgRGBdYO9P1+3x6Px2jeqWQepJ+SlIcAgXEBA3ScVEICBFIEPAea0ml1EiAwLmAHOk4qIQECKQJ2oCmdVicBAuMCHmMaJ5WQAIEUATvQlE6rkwCBcQEDdJxUQgIEUgQM0JROq5MAgXGBNUDXN9J7kH6cVkICBK4uYAd69Q6rjwCBbQIG6DZaiQkQuLqAS/ird1h9BAhsE/Am0jZaiQkQuLrAt+9A/wNFvAaeuMsuLwAAAABJRU5ErkJggg==;" vertex="1" parent="WIyWlLk6GJQsqaUBKTNV-1">
          <mxGeometry x="-270" y="40" width="130" height="395.41" as="geometry" />
        </mxCell>
        <mxCell id="dSwJCHyqDTHwkJdP5-SC-13" value="" style="edgeStyle=orthogonalEdgeStyle;rounded=0;orthogonalLoop=1;jettySize=auto;html=1;endArrow=none;endFill=0;" edge="1" parent="WIyWlLk6GJQsqaUBKTNV-1" source="dSwJCHyqDTHwkJdP5-SC-5" target="dSwJCHyqDTHwkJdP5-SC-8">
          <mxGeometry relative="1" as="geometry" />
        </mxCell>
        <mxCell id="dSwJCHyqDTHwkJdP5-SC-14" value="" style="edgeStyle=orthogonalEdgeStyle;rounded=0;orthogonalLoop=1;jettySize=auto;html=1;endArrow=none;endFill=0;" edge="1" parent="WIyWlLk6GJQsqaUBKTNV-1" source="dSwJCHyqDTHwkJdP5-SC-5" target="dSwJCHyqDTHwkJdP5-SC-9">
          <mxGeometry relative="1" as="geometry" />
        </mxCell>
        <mxCell id="dSwJCHyqDTHwkJdP5-SC-17" value="" style="edgeStyle=orthogonalEdgeStyle;rounded=0;orthogonalLoop=1;jettySize=auto;html=1;entryX=0;entryY=0.5;entryDx=0;entryDy=0;endArrow=none;endFill=0;" edge="1" parent="WIyWlLk6GJQsqaUBKTNV-1" source="dSwJCHyqDTHwkJdP5-SC-5" target="dSwJCHyqDTHwkJdP5-SC-11">
          <mxGeometry relative="1" as="geometry">
            <mxPoint x="-290" y="1100" as="targetPoint" />
            <Array as="points">
              <mxPoint x="-290" y="1040" />
            </Array>
          </mxGeometry>
        </mxCell>
        <mxCell id="dSwJCHyqDTHwkJdP5-SC-5" value="&amp;lt;&amp;lt;Agg Root&amp;gt;&amp;gt;&lt;div&gt;카테고리&lt;/div&gt;" style="rounded=1;whiteSpace=wrap;html=1;" vertex="1" parent="WIyWlLk6GJQsqaUBKTNV-1">
          <mxGeometry x="-350" y="930" width="120" height="60" as="geometry" />
        </mxCell>
        <mxCell id="dSwJCHyqDTHwkJdP5-SC-6" value="&amp;lt;&amp;lt;Other Agg&amp;gt;&amp;gt;&lt;div&gt;스타페이지&lt;/div&gt;" style="rounded=1;whiteSpace=wrap;html=1;" vertex="1" parent="WIyWlLk6GJQsqaUBKTNV-1">
          <mxGeometry x="-790" y="930" width="120" height="60" as="geometry" />
        </mxCell>
        <mxCell id="dSwJCHyqDTHwkJdP5-SC-12" value="" style="edgeStyle=orthogonalEdgeStyle;rounded=0;orthogonalLoop=1;jettySize=auto;html=1;endArrow=none;endFill=0;" edge="1" parent="WIyWlLk6GJQsqaUBKTNV-1" source="dSwJCHyqDTHwkJdP5-SC-7" target="dSwJCHyqDTHwkJdP5-SC-5">
          <mxGeometry relative="1" as="geometry" />
        </mxCell>
        <mxCell id="dSwJCHyqDTHwkJdP5-SC-7" value="스타페이지 소속" style="rounded=1;whiteSpace=wrap;html=1;" vertex="1" parent="WIyWlLk6GJQsqaUBKTNV-1">
          <mxGeometry x="-500" y="930" width="120" height="60" as="geometry" />
        </mxCell>
        <mxCell id="dSwJCHyqDTHwkJdP5-SC-8" value="카테고리 제목" style="rounded=1;whiteSpace=wrap;html=1;" vertex="1" parent="WIyWlLk6GJQsqaUBKTNV-1">
          <mxGeometry x="-350" y="840" width="120" height="60" as="geometry" />
        </mxCell>
        <mxCell id="dSwJCHyqDTHwkJdP5-SC-9" value="카테고리 내&amp;nbsp;&lt;div&gt;컨텐츠 타입&lt;/div&gt;" style="rounded=1;whiteSpace=wrap;html=1;" vertex="1" parent="WIyWlLk6GJQsqaUBKTNV-1">
          <mxGeometry x="-200" y="930" width="120" height="60" as="geometry" />
        </mxCell>
        <mxCell id="dSwJCHyqDTHwkJdP5-SC-10" value="카테고리 상태" style="rounded=1;whiteSpace=wrap;html=1;" vertex="1" parent="WIyWlLk6GJQsqaUBKTNV-1">
          <mxGeometry x="-200" y="840" width="120" height="60" as="geometry" />
        </mxCell>
        <mxCell id="dSwJCHyqDTHwkJdP5-SC-11" value="카테고리 제약 사항" style="rounded=1;whiteSpace=wrap;html=1;" vertex="1" parent="WIyWlLk6GJQsqaUBKTNV-1">
          <mxGeometry x="-200" y="1010" width="120" height="60" as="geometry" />
        </mxCell>
        <mxCell id="dSwJCHyqDTHwkJdP5-SC-15" value="" style="edgeStyle=orthogonalEdgeStyle;rounded=0;orthogonalLoop=1;jettySize=auto;html=1;exitX=0.75;exitY=0;exitDx=0;exitDy=0;entryX=0.5;entryY=1;entryDx=0;entryDy=0;endArrow=none;endFill=0;" edge="1" parent="WIyWlLk6GJQsqaUBKTNV-1" source="dSwJCHyqDTHwkJdP5-SC-5" target="dSwJCHyqDTHwkJdP5-SC-10">
          <mxGeometry relative="1" as="geometry">
            <mxPoint x="-220" y="970" as="sourcePoint" />
            <mxPoint x="-190" y="970" as="targetPoint" />
            <Array as="points">
              <mxPoint x="-260" y="910" />
              <mxPoint x="-140" y="910" />
            </Array>
          </mxGeometry>
        </mxCell>
        <mxCell id="dSwJCHyqDTHwkJdP5-SC-20" value="&lt;font style=&quot;font-size: 26px;&quot;&gt;&lt;b&gt;Category Aggregate&lt;/b&gt;&lt;/font&gt;" style="text;html=1;align=center;verticalAlign=middle;whiteSpace=wrap;rounded=0;" vertex="1" parent="WIyWlLk6GJQsqaUBKTNV-1">
          <mxGeometry x="-540" y="760" width="60" height="30" as="geometry" />
        </mxCell>
        <mxCell id="dSwJCHyqDTHwkJdP5-SC-21" value="" style="endArrow=classic;html=1;rounded=0;exitX=0;exitY=0.5;exitDx=0;exitDy=0;entryX=1;entryY=0.5;entryDx=0;entryDy=0;" edge="1" parent="WIyWlLk6GJQsqaUBKTNV-1" source="dSwJCHyqDTHwkJdP5-SC-7" target="dSwJCHyqDTHwkJdP5-SC-6">
          <mxGeometry width="50" height="50" relative="1" as="geometry">
            <mxPoint x="-450" y="980" as="sourcePoint" />
            <mxPoint x="-400" y="930" as="targetPoint" />
          </mxGeometry>
        </mxCell>
        <mxCell id="dSwJCHyqDTHwkJdP5-SC-23" value="" style="edgeStyle=orthogonalEdgeStyle;rounded=0;orthogonalLoop=1;jettySize=auto;html=1;entryX=0.25;entryY=1;entryDx=0;entryDy=0;" edge="1" parent="WIyWlLk6GJQsqaUBKTNV-1" source="dSwJCHyqDTHwkJdP5-SC-22" target="dSwJCHyqDTHwkJdP5-SC-5">
          <mxGeometry relative="1" as="geometry" />
        </mxCell>
        <mxCell id="dSwJCHyqDTHwkJdP5-SC-22" value="&amp;lt;&amp;lt;Other Agg&amp;gt;&amp;gt;&lt;div&gt;포스트&lt;/div&gt;" style="rounded=1;whiteSpace=wrap;html=1;" vertex="1" parent="WIyWlLk6GJQsqaUBKTNV-1">
          <mxGeometry x="-500" y="1130" width="120" height="60" as="geometry" />
        </mxCell>
        <mxCell id="dSwJCHyqDTHwkJdP5-SC-24" value="Infrastructure&lt;div&gt;Layer&lt;/div&gt;" style="rounded=1;whiteSpace=wrap;html=1;" vertex="1" parent="WIyWlLk6GJQsqaUBKTNV-1">
          <mxGeometry x="420" y="930" width="120" height="60" as="geometry" />
        </mxCell>
        <mxCell id="dSwJCHyqDTHwkJdP5-SC-25" value="Domain&lt;div&gt;Layer&lt;/div&gt;" style="rounded=1;whiteSpace=wrap;html=1;" vertex="1" parent="WIyWlLk6GJQsqaUBKTNV-1">
          <mxGeometry x="420" y="660" width="120" height="60" as="geometry" />
        </mxCell>
        <mxCell id="dSwJCHyqDTHwkJdP5-SC-26" value="&lt;&lt;Agg Root&gt;&gt;&#xa;Category" style="swimlane;fontStyle=0;align=center;verticalAlign=top;childLayout=stackLayout;horizontal=1;startSize=40;horizontalStack=0;resizeParent=1;resizeLast=0;collapsible=1;marginBottom=0;rounded=0;shadow=0;strokeWidth=1;" vertex="1" parent="WIyWlLk6GJQsqaUBKTNV-1">
          <mxGeometry x="790" y="470" width="240" height="386" as="geometry">
            <mxRectangle x="130" y="380" width="160" height="26" as="alternateBounds" />
          </mxGeometry>
        </mxCell>
        <mxCell id="dSwJCHyqDTHwkJdP5-SC-27" value="- CategoryId categoryId" style="text;align=left;verticalAlign=top;spacingLeft=4;spacingRight=4;overflow=hidden;rotatable=0;points=[[0,0.5],[1,0.5]];portConstraint=eastwest;" vertex="1" parent="dSwJCHyqDTHwkJdP5-SC-26">
          <mxGeometry y="40" width="240" height="26" as="geometry" />
        </mxCell>
        <mxCell id="dSwJCHyqDTHwkJdP5-SC-28" value="- StarPageId starPageid" style="text;align=left;verticalAlign=top;spacingLeft=4;spacingRight=4;overflow=hidden;rotatable=0;points=[[0,0.5],[1,0.5]];portConstraint=eastwest;rounded=0;shadow=0;html=0;" vertex="1" parent="dSwJCHyqDTHwkJdP5-SC-26">
          <mxGeometry y="66" width="240" height="26" as="geometry" />
        </mxCell>
        <mxCell id="dSwJCHyqDTHwkJdP5-SC-32" value="- CategoryStatus categoryStatus" style="text;align=left;verticalAlign=top;spacingLeft=4;spacingRight=4;overflow=hidden;rotatable=0;points=[[0,0.5],[1,0.5]];portConstraint=eastwest;rounded=0;shadow=0;html=0;" vertex="1" parent="dSwJCHyqDTHwkJdP5-SC-26">
          <mxGeometry y="92" width="240" height="26" as="geometry" />
        </mxCell>
        <mxCell id="dSwJCHyqDTHwkJdP5-SC-33" value="- ContentType contentType" style="text;align=left;verticalAlign=top;spacingLeft=4;spacingRight=4;overflow=hidden;rotatable=0;points=[[0,0.5],[1,0.5]];portConstraint=eastwest;rounded=0;shadow=0;html=0;" vertex="1" parent="dSwJCHyqDTHwkJdP5-SC-26">
          <mxGeometry y="118" width="240" height="26" as="geometry" />
        </mxCell>
        <mxCell id="dSwJCHyqDTHwkJdP5-SC-34" value="- CategoryInformation categoryInformation" style="text;align=left;verticalAlign=top;spacingLeft=4;spacingRight=4;overflow=hidden;rotatable=0;points=[[0,0.5],[1,0.5]];portConstraint=eastwest;rounded=0;shadow=0;html=0;" vertex="1" parent="dSwJCHyqDTHwkJdP5-SC-26">
          <mxGeometry y="144" width="240" height="26" as="geometry" />
        </mxCell>
        <mxCell id="dSwJCHyqDTHwkJdP5-SC-35" value="- ContentRestriction restriction" style="text;align=left;verticalAlign=top;spacingLeft=4;spacingRight=4;overflow=hidden;rotatable=0;points=[[0,0.5],[1,0.5]];portConstraint=eastwest;rounded=0;shadow=0;html=0;" vertex="1" parent="dSwJCHyqDTHwkJdP5-SC-26">
          <mxGeometry y="170" width="240" height="26" as="geometry" />
        </mxCell>
        <mxCell id="dSwJCHyqDTHwkJdP5-SC-29" value="" style="line;html=1;strokeWidth=1;align=left;verticalAlign=middle;spacingTop=-1;spacingLeft=3;spacingRight=3;rotatable=0;labelPosition=right;points=[];portConstraint=eastwest;" vertex="1" parent="dSwJCHyqDTHwkJdP5-SC-26">
          <mxGeometry y="196" width="240" height="8" as="geometry" />
        </mxCell>
        <mxCell id="dSwJCHyqDTHwkJdP5-SC-31" value="+ reOpenCategory()" style="text;align=left;verticalAlign=top;spacingLeft=4;spacingRight=4;overflow=hidden;rotatable=0;points=[[0,0.5],[1,0.5]];portConstraint=eastwest;" vertex="1" parent="dSwJCHyqDTHwkJdP5-SC-26">
          <mxGeometry y="204" width="240" height="26" as="geometry" />
        </mxCell>
        <mxCell id="dSwJCHyqDTHwkJdP5-SC-36" value="+ deleteCategory()" style="text;align=left;verticalAlign=top;spacingLeft=4;spacingRight=4;overflow=hidden;rotatable=0;points=[[0,0.5],[1,0.5]];portConstraint=eastwest;" vertex="1" parent="dSwJCHyqDTHwkJdP5-SC-26">
          <mxGeometry y="230" width="240" height="26" as="geometry" />
        </mxCell>
        <mxCell id="dSwJCHyqDTHwkJdP5-SC-37" value="+ exposureCategory()" style="text;align=left;verticalAlign=top;spacingLeft=4;spacingRight=4;overflow=hidden;rotatable=0;points=[[0,0.5],[1,0.5]];portConstraint=eastwest;" vertex="1" parent="dSwJCHyqDTHwkJdP5-SC-26">
          <mxGeometry y="256" width="240" height="26" as="geometry" />
        </mxCell>
        <mxCell id="dSwJCHyqDTHwkJdP5-SC-38" value="+ modifyCategoryTitle()" style="text;align=left;verticalAlign=top;spacingLeft=4;spacingRight=4;overflow=hidden;rotatable=0;points=[[0,0.5],[1,0.5]];portConstraint=eastwest;" vertex="1" parent="dSwJCHyqDTHwkJdP5-SC-26">
          <mxGeometry y="282" width="240" height="26" as="geometry" />
        </mxCell>
        <mxCell id="dSwJCHyqDTHwkJdP5-SC-51" value="+ modifyFilteringRate()" style="text;align=left;verticalAlign=top;spacingLeft=4;spacingRight=4;overflow=hidden;rotatable=0;points=[[0,0.5],[1,0.5]];portConstraint=eastwest;" vertex="1" parent="dSwJCHyqDTHwkJdP5-SC-26">
          <mxGeometry y="308" width="240" height="26" as="geometry" />
        </mxCell>
        <mxCell id="dSwJCHyqDTHwkJdP5-SC-52" value="+ turnOnCommentRatingFilter()" style="text;align=left;verticalAlign=top;spacingLeft=4;spacingRight=4;overflow=hidden;rotatable=0;points=[[0,0.5],[1,0.5]];portConstraint=eastwest;" vertex="1" parent="dSwJCHyqDTHwkJdP5-SC-26">
          <mxGeometry y="334" width="240" height="26" as="geometry" />
        </mxCell>
        <mxCell id="dSwJCHyqDTHwkJdP5-SC-53" value="+ turnOffCommentRatingFilter()" style="text;align=left;verticalAlign=top;spacingLeft=4;spacingRight=4;overflow=hidden;rotatable=0;points=[[0,0.5],[1,0.5]];portConstraint=eastwest;" vertex="1" parent="dSwJCHyqDTHwkJdP5-SC-26">
          <mxGeometry y="360" width="240" height="26" as="geometry" />
        </mxCell>
        <mxCell id="dSwJCHyqDTHwkJdP5-SC-54" value="ContentTypeConverter" style="swimlane;fontStyle=0;align=center;verticalAlign=top;childLayout=stackLayout;horizontal=1;startSize=30;horizontalStack=0;resizeParent=1;resizeLast=0;collapsible=1;marginBottom=0;rounded=0;shadow=0;strokeWidth=1;" vertex="1" parent="WIyWlLk6GJQsqaUBKTNV-1">
          <mxGeometry x="880" y="1020" width="289" height="100" as="geometry">
            <mxRectangle x="130" y="380" width="160" height="26" as="alternateBounds" />
          </mxGeometry>
        </mxCell>
        <mxCell id="dSwJCHyqDTHwkJdP5-SC-61" value="" style="line;html=1;strokeWidth=1;align=left;verticalAlign=middle;spacingTop=-1;spacingLeft=3;spacingRight=3;rotatable=0;labelPosition=right;points=[];portConstraint=eastwest;" vertex="1" parent="dSwJCHyqDTHwkJdP5-SC-54">
          <mxGeometry y="30" width="289" height="8" as="geometry" />
        </mxCell>
        <mxCell id="dSwJCHyqDTHwkJdP5-SC-62" value="+ String convertToDatebaseColumn(ContentType)" style="text;align=left;verticalAlign=top;spacingLeft=4;spacingRight=4;overflow=hidden;rotatable=0;points=[[0,0.5],[1,0.5]];portConstraint=eastwest;" vertex="1" parent="dSwJCHyqDTHwkJdP5-SC-54">
          <mxGeometry y="38" width="289" height="26" as="geometry" />
        </mxCell>
        <mxCell id="dSwJCHyqDTHwkJdP5-SC-63" value="+ ContentType converToEntityAttribute(String)" style="text;align=left;verticalAlign=top;spacingLeft=4;spacingRight=4;overflow=hidden;rotatable=0;points=[[0,0.5],[1,0.5]];portConstraint=eastwest;" vertex="1" parent="dSwJCHyqDTHwkJdP5-SC-54">
          <mxGeometry y="64" width="289" height="26" as="geometry" />
        </mxCell>
        <mxCell id="dSwJCHyqDTHwkJdP5-SC-69" value="CategoryStatusConverter" style="swimlane;fontStyle=0;align=center;verticalAlign=top;childLayout=stackLayout;horizontal=1;startSize=30;horizontalStack=0;resizeParent=1;resizeLast=0;collapsible=1;marginBottom=0;rounded=0;shadow=0;strokeWidth=1;" vertex="1" parent="WIyWlLk6GJQsqaUBKTNV-1">
          <mxGeometry x="540" y="1020" width="300" height="100" as="geometry">
            <mxRectangle x="130" y="380" width="160" height="26" as="alternateBounds" />
          </mxGeometry>
        </mxCell>
        <mxCell id="dSwJCHyqDTHwkJdP5-SC-70" value="" style="line;html=1;strokeWidth=1;align=left;verticalAlign=middle;spacingTop=-1;spacingLeft=3;spacingRight=3;rotatable=0;labelPosition=right;points=[];portConstraint=eastwest;" vertex="1" parent="dSwJCHyqDTHwkJdP5-SC-69">
          <mxGeometry y="30" width="300" height="8" as="geometry" />
        </mxCell>
        <mxCell id="dSwJCHyqDTHwkJdP5-SC-71" value="+ String convertToDatebaseColumn(CategoryStatus)" style="text;align=left;verticalAlign=top;spacingLeft=4;spacingRight=4;overflow=hidden;rotatable=0;points=[[0,0.5],[1,0.5]];portConstraint=eastwest;" vertex="1" parent="dSwJCHyqDTHwkJdP5-SC-69">
          <mxGeometry y="38" width="300" height="26" as="geometry" />
        </mxCell>
        <mxCell id="dSwJCHyqDTHwkJdP5-SC-72" value="+ CategoryStatus converToEntityAttribute(String)" style="text;align=left;verticalAlign=top;spacingLeft=4;spacingRight=4;overflow=hidden;rotatable=0;points=[[0,0.5],[1,0.5]];portConstraint=eastwest;" vertex="1" parent="dSwJCHyqDTHwkJdP5-SC-69">
          <mxGeometry y="64" width="300" height="26" as="geometry" />
        </mxCell>
        <mxCell id="dSwJCHyqDTHwkJdP5-SC-73" value="CategoryCustomRepositoryImpl" style="swimlane;fontStyle=0;align=center;verticalAlign=top;childLayout=stackLayout;horizontal=1;startSize=30;horizontalStack=0;resizeParent=1;resizeLast=0;collapsible=1;marginBottom=0;rounded=0;shadow=0;strokeWidth=1;" vertex="1" parent="WIyWlLk6GJQsqaUBKTNV-1">
          <mxGeometry x="1640" y="1020" width="289" height="100" as="geometry">
            <mxRectangle x="130" y="380" width="160" height="26" as="alternateBounds" />
          </mxGeometry>
        </mxCell>
        <mxCell id="dSwJCHyqDTHwkJdP5-SC-75" value="- JPAQueryFactory jpaQueryFactory" style="text;align=left;verticalAlign=top;spacingLeft=4;spacingRight=4;overflow=hidden;rotatable=0;points=[[0,0.5],[1,0.5]];portConstraint=eastwest;" vertex="1" parent="dSwJCHyqDTHwkJdP5-SC-73">
          <mxGeometry y="30" width="289" height="26" as="geometry" />
        </mxCell>
        <mxCell id="dSwJCHyqDTHwkJdP5-SC-74" value="" style="line;html=1;strokeWidth=1;align=left;verticalAlign=middle;spacingTop=-1;spacingLeft=3;spacingRight=3;rotatable=0;labelPosition=right;points=[];portConstraint=eastwest;" vertex="1" parent="dSwJCHyqDTHwkJdP5-SC-73">
          <mxGeometry y="56" width="289" height="8" as="geometry" />
        </mxCell>
        <mxCell id="dSwJCHyqDTHwkJdP5-SC-77" value="+ CategoryId getNextId(ContentType)" style="text;align=left;verticalAlign=top;spacingLeft=4;spacingRight=4;overflow=hidden;rotatable=0;points=[[0,0.5],[1,0.5]];portConstraint=eastwest;" vertex="1" parent="dSwJCHyqDTHwkJdP5-SC-73">
          <mxGeometry y="64" width="289" height="26" as="geometry" />
        </mxCell>
        <mxCell id="dSwJCHyqDTHwkJdP5-SC-78" value="&lt;&lt; interface &gt;&gt;&#xa;CategoryCustomRepository" style="swimlane;fontStyle=0;align=center;verticalAlign=top;childLayout=stackLayout;horizontal=1;startSize=40;horizontalStack=0;resizeParent=1;resizeLast=0;collapsible=1;marginBottom=0;rounded=0;shadow=0;strokeWidth=1;" vertex="1" parent="WIyWlLk6GJQsqaUBKTNV-1">
          <mxGeometry x="1640" y="880" width="289" height="80" as="geometry">
            <mxRectangle x="130" y="380" width="160" height="26" as="alternateBounds" />
          </mxGeometry>
        </mxCell>
        <mxCell id="dSwJCHyqDTHwkJdP5-SC-80" value="" style="line;html=1;strokeWidth=1;align=left;verticalAlign=middle;spacingTop=-1;spacingLeft=3;spacingRight=3;rotatable=0;labelPosition=right;points=[];portConstraint=eastwest;" vertex="1" parent="dSwJCHyqDTHwkJdP5-SC-78">
          <mxGeometry y="40" width="289" height="8" as="geometry" />
        </mxCell>
        <mxCell id="dSwJCHyqDTHwkJdP5-SC-81" value="CategoryId getNextId(ContentType)" style="text;align=left;verticalAlign=top;spacingLeft=4;spacingRight=4;overflow=hidden;rotatable=0;points=[[0,0.5],[1,0.5]];portConstraint=eastwest;" vertex="1" parent="dSwJCHyqDTHwkJdP5-SC-78">
          <mxGeometry y="48" width="289" height="26" as="geometry" />
        </mxCell>
        <mxCell id="dSwJCHyqDTHwkJdP5-SC-83" value="" style="endArrow=block;html=1;rounded=0;exitX=0.5;exitY=0;exitDx=0;exitDy=0;entryX=0.498;entryY=1.114;entryDx=0;entryDy=0;entryPerimeter=0;endFill=0;strokeWidth=1;endSize=13;dashed=1;" edge="1" parent="WIyWlLk6GJQsqaUBKTNV-1" source="dSwJCHyqDTHwkJdP5-SC-73" target="dSwJCHyqDTHwkJdP5-SC-81">
          <mxGeometry width="50" height="50" relative="1" as="geometry">
            <mxPoint x="1540" y="1040" as="sourcePoint" />
            <mxPoint x="1590" y="990" as="targetPoint" />
          </mxGeometry>
        </mxCell>
        <mxCell id="dSwJCHyqDTHwkJdP5-SC-84" value="&lt;&lt; interface &gt;&gt;&#xa;JPARepository&lt;Category, CategoryId&gt;" style="swimlane;fontStyle=0;align=center;verticalAlign=top;childLayout=stackLayout;horizontal=1;startSize=40;horizontalStack=0;resizeParent=1;resizeLast=0;collapsible=1;marginBottom=0;rounded=0;shadow=0;strokeWidth=1;" vertex="1" parent="WIyWlLk6GJQsqaUBKTNV-1">
          <mxGeometry x="1300" y="1020" width="289" height="80" as="geometry">
            <mxRectangle x="130" y="380" width="160" height="26" as="alternateBounds" />
          </mxGeometry>
        </mxCell>
        <mxCell id="dSwJCHyqDTHwkJdP5-SC-85" value="" style="line;html=1;strokeWidth=1;align=left;verticalAlign=middle;spacingTop=-1;spacingLeft=3;spacingRight=3;rotatable=0;labelPosition=right;points=[];portConstraint=eastwest;" vertex="1" parent="dSwJCHyqDTHwkJdP5-SC-84">
          <mxGeometry y="40" width="289" height="8" as="geometry" />
        </mxCell>
        <mxCell id="dSwJCHyqDTHwkJdP5-SC-87" value="&lt;&lt; interface &gt;&gt;&#xa;CategoryRepository" style="swimlane;fontStyle=0;align=center;verticalAlign=top;childLayout=stackLayout;horizontal=1;startSize=40;horizontalStack=0;resizeParent=1;resizeLast=0;collapsible=1;marginBottom=0;rounded=0;shadow=0;strokeWidth=1;" vertex="1" parent="WIyWlLk6GJQsqaUBKTNV-1">
          <mxGeometry x="1300" y="880" width="289" height="80" as="geometry">
            <mxRectangle x="130" y="380" width="160" height="26" as="alternateBounds" />
          </mxGeometry>
        </mxCell>
        <mxCell id="dSwJCHyqDTHwkJdP5-SC-88" value="" style="line;html=1;strokeWidth=1;align=left;verticalAlign=middle;spacingTop=-1;spacingLeft=3;spacingRight=3;rotatable=0;labelPosition=right;points=[];portConstraint=eastwest;" vertex="1" parent="dSwJCHyqDTHwkJdP5-SC-87">
          <mxGeometry y="40" width="289" height="8" as="geometry" />
        </mxCell>
        <mxCell id="dSwJCHyqDTHwkJdP5-SC-90" value="" style="endArrow=block;html=1;rounded=0;exitX=0.5;exitY=0;exitDx=0;exitDy=0;entryX=0.5;entryY=1;entryDx=0;entryDy=0;endFill=0;strokeWidth=1;endSize=13;dashed=1;" edge="1" parent="WIyWlLk6GJQsqaUBKTNV-1" source="dSwJCHyqDTHwkJdP5-SC-84" target="dSwJCHyqDTHwkJdP5-SC-87">
          <mxGeometry width="50" height="50" relative="1" as="geometry">
            <mxPoint x="1501" y="1023" as="sourcePoint" />
            <mxPoint x="1500" y="960" as="targetPoint" />
          </mxGeometry>
        </mxCell>
        <mxCell id="dSwJCHyqDTHwkJdP5-SC-91" value="" style="endArrow=block;html=1;rounded=0;exitX=0;exitY=0.25;exitDx=0;exitDy=0;entryX=1;entryY=0.25;entryDx=0;entryDy=0;endFill=0;strokeWidth=1;endSize=13;dashed=1;" edge="1" parent="WIyWlLk6GJQsqaUBKTNV-1" source="dSwJCHyqDTHwkJdP5-SC-78" target="dSwJCHyqDTHwkJdP5-SC-87">
          <mxGeometry width="50" height="50" relative="1" as="geometry">
            <mxPoint x="1455" y="1030" as="sourcePoint" />
            <mxPoint x="1455" y="970" as="targetPoint" />
          </mxGeometry>
        </mxCell>
        <mxCell id="dSwJCHyqDTHwkJdP5-SC-93" value="CategoryId" style="swimlane;fontStyle=0;align=center;verticalAlign=top;childLayout=stackLayout;horizontal=1;startSize=30;horizontalStack=0;resizeParent=1;resizeLast=0;collapsible=1;marginBottom=0;rounded=0;shadow=0;strokeWidth=1;" vertex="1" parent="WIyWlLk6GJQsqaUBKTNV-1">
          <mxGeometry x="540" y="470" width="240" height="70" as="geometry">
            <mxRectangle x="130" y="380" width="160" height="26" as="alternateBounds" />
          </mxGeometry>
        </mxCell>
        <mxCell id="dSwJCHyqDTHwkJdP5-SC-99" value="- String value" style="text;align=left;verticalAlign=top;spacingLeft=4;spacingRight=4;overflow=hidden;rotatable=0;points=[[0,0.5],[1,0.5]];portConstraint=eastwest;rounded=0;shadow=0;html=0;" vertex="1" parent="dSwJCHyqDTHwkJdP5-SC-93">
          <mxGeometry y="30" width="240" height="26" as="geometry" />
        </mxCell>
        <mxCell id="dSwJCHyqDTHwkJdP5-SC-100" value="" style="line;html=1;strokeWidth=1;align=left;verticalAlign=middle;spacingTop=-1;spacingLeft=3;spacingRight=3;rotatable=0;labelPosition=right;points=[];portConstraint=eastwest;" vertex="1" parent="dSwJCHyqDTHwkJdP5-SC-93">
          <mxGeometry y="56" width="240" height="8" as="geometry" />
        </mxCell>
        <mxCell id="dSwJCHyqDTHwkJdP5-SC-108" value="&lt;&lt;Other Agg&gt;&gt;&#xa;StarPageId" style="swimlane;fontStyle=0;align=center;verticalAlign=top;childLayout=stackLayout;horizontal=1;startSize=40;horizontalStack=0;resizeParent=1;resizeLast=0;collapsible=1;marginBottom=0;rounded=0;shadow=0;strokeWidth=1;" vertex="1" parent="WIyWlLk6GJQsqaUBKTNV-1">
          <mxGeometry x="540" y="570" width="240" height="74" as="geometry">
            <mxRectangle x="130" y="380" width="160" height="26" as="alternateBounds" />
          </mxGeometry>
        </mxCell>
        <mxCell id="dSwJCHyqDTHwkJdP5-SC-109" value="- String value" style="text;align=left;verticalAlign=top;spacingLeft=4;spacingRight=4;overflow=hidden;rotatable=0;points=[[0,0.5],[1,0.5]];portConstraint=eastwest;rounded=0;shadow=0;html=0;" vertex="1" parent="dSwJCHyqDTHwkJdP5-SC-108">
          <mxGeometry y="40" width="240" height="26" as="geometry" />
        </mxCell>
        <mxCell id="dSwJCHyqDTHwkJdP5-SC-110" value="" style="line;html=1;strokeWidth=1;align=left;verticalAlign=middle;spacingTop=-1;spacingLeft=3;spacingRight=3;rotatable=0;labelPosition=right;points=[];portConstraint=eastwest;" vertex="1" parent="dSwJCHyqDTHwkJdP5-SC-108">
          <mxGeometry y="66" width="240" height="8" as="geometry" />
        </mxCell>
        <mxCell id="dSwJCHyqDTHwkJdP5-SC-111" value="&lt;&lt; Enum, VO &gt;&gt;&#xa;CategoryStatus" style="swimlane;fontStyle=0;align=center;verticalAlign=top;childLayout=stackLayout;horizontal=1;startSize=40;horizontalStack=0;resizeParent=1;resizeLast=0;collapsible=1;marginBottom=0;rounded=0;shadow=0;strokeWidth=1;" vertex="1" parent="WIyWlLk6GJQsqaUBKTNV-1">
          <mxGeometry x="1050" y="470" width="290" height="134" as="geometry">
            <mxRectangle x="130" y="380" width="160" height="26" as="alternateBounds" />
          </mxGeometry>
        </mxCell>
        <mxCell id="dSwJCHyqDTHwkJdP5-SC-116" value="(OPEN, EXPOSURE, DELETED)" style="text;align=left;verticalAlign=top;spacingLeft=4;spacingRight=4;overflow=hidden;rotatable=0;points=[[0,0.5],[1,0.5]];portConstraint=eastwest;rounded=0;shadow=0;html=0;" vertex="1" parent="dSwJCHyqDTHwkJdP5-SC-111">
          <mxGeometry y="40" width="290" height="26" as="geometry" />
        </mxCell>
        <mxCell id="dSwJCHyqDTHwkJdP5-SC-115" value="" style="line;html=1;strokeWidth=1;align=left;verticalAlign=middle;spacingTop=-1;spacingLeft=3;spacingRight=3;rotatable=0;labelPosition=right;points=[];portConstraint=eastwest;" vertex="1" parent="dSwJCHyqDTHwkJdP5-SC-111">
          <mxGeometry y="66" width="290" height="8" as="geometry" />
        </mxCell>
        <mxCell id="dSwJCHyqDTHwkJdP5-SC-112" value="- String categorySummarizedSymbol" style="text;align=left;verticalAlign=top;spacingLeft=4;spacingRight=4;overflow=hidden;rotatable=0;points=[[0,0.5],[1,0.5]];portConstraint=eastwest;rounded=0;shadow=0;html=0;" vertex="1" parent="dSwJCHyqDTHwkJdP5-SC-111">
          <mxGeometry y="74" width="290" height="26" as="geometry" />
        </mxCell>
        <mxCell id="dSwJCHyqDTHwkJdP5-SC-113" value="" style="line;html=1;strokeWidth=1;align=left;verticalAlign=middle;spacingTop=-1;spacingLeft=3;spacingRight=3;rotatable=0;labelPosition=right;points=[];portConstraint=eastwest;" vertex="1" parent="dSwJCHyqDTHwkJdP5-SC-111">
          <mxGeometry y="100" width="290" height="8" as="geometry" />
        </mxCell>
        <mxCell id="dSwJCHyqDTHwkJdP5-SC-114" value="+ CategoryStatus convertToCategoryStatus(String)" style="text;align=left;verticalAlign=top;spacingLeft=4;spacingRight=4;overflow=hidden;rotatable=0;points=[[0,0.5],[1,0.5]];portConstraint=eastwest;rounded=0;shadow=0;html=0;" vertex="1" parent="dSwJCHyqDTHwkJdP5-SC-111">
          <mxGeometry y="108" width="290" height="26" as="geometry" />
        </mxCell>
        <mxCell id="dSwJCHyqDTHwkJdP5-SC-117" value="&lt;&lt; Enum, VO &gt;&gt;&#xa;ContentStatus" style="swimlane;fontStyle=0;align=center;verticalAlign=top;childLayout=stackLayout;horizontal=1;startSize=40;horizontalStack=0;resizeParent=1;resizeLast=0;collapsible=1;marginBottom=0;rounded=0;shadow=0;strokeWidth=1;" vertex="1" parent="WIyWlLk6GJQsqaUBKTNV-1">
          <mxGeometry x="1050" y="623" width="290" height="134" as="geometry">
            <mxRectangle x="130" y="380" width="160" height="26" as="alternateBounds" />
          </mxGeometry>
        </mxCell>
        <mxCell id="dSwJCHyqDTHwkJdP5-SC-118" value="(OPEN, EXPOSURE, DELETED)" style="text;align=left;verticalAlign=top;spacingLeft=4;spacingRight=4;overflow=hidden;rotatable=0;points=[[0,0.5],[1,0.5]];portConstraint=eastwest;rounded=0;shadow=0;html=0;" vertex="1" parent="dSwJCHyqDTHwkJdP5-SC-117">
          <mxGeometry y="40" width="290" height="26" as="geometry" />
        </mxCell>
        <mxCell id="dSwJCHyqDTHwkJdP5-SC-119" value="" style="line;html=1;strokeWidth=1;align=left;verticalAlign=middle;spacingTop=-1;spacingLeft=3;spacingRight=3;rotatable=0;labelPosition=right;points=[];portConstraint=eastwest;" vertex="1" parent="dSwJCHyqDTHwkJdP5-SC-117">
          <mxGeometry y="66" width="290" height="8" as="geometry" />
        </mxCell>
        <mxCell id="dSwJCHyqDTHwkJdP5-SC-120" value="- String categorySummarizedSymbol" style="text;align=left;verticalAlign=top;spacingLeft=4;spacingRight=4;overflow=hidden;rotatable=0;points=[[0,0.5],[1,0.5]];portConstraint=eastwest;rounded=0;shadow=0;html=0;" vertex="1" parent="dSwJCHyqDTHwkJdP5-SC-117">
          <mxGeometry y="74" width="290" height="26" as="geometry" />
        </mxCell>
        <mxCell id="dSwJCHyqDTHwkJdP5-SC-121" value="" style="line;html=1;strokeWidth=1;align=left;verticalAlign=middle;spacingTop=-1;spacingLeft=3;spacingRight=3;rotatable=0;labelPosition=right;points=[];portConstraint=eastwest;" vertex="1" parent="dSwJCHyqDTHwkJdP5-SC-117">
          <mxGeometry y="100" width="290" height="8" as="geometry" />
        </mxCell>
        <mxCell id="dSwJCHyqDTHwkJdP5-SC-122" value="+ CategoryStatus convertToCategoryStatus(String)" style="text;align=left;verticalAlign=top;spacingLeft=4;spacingRight=4;overflow=hidden;rotatable=0;points=[[0,0.5],[1,0.5]];portConstraint=eastwest;rounded=0;shadow=0;html=0;" vertex="1" parent="dSwJCHyqDTHwkJdP5-SC-117">
          <mxGeometry y="108" width="290" height="26" as="geometry" />
        </mxCell>
      </root>
    </mxGraphModel>
  </diagram>
</mxfile>
